SplineFontDB: 3.2
FontName: ATM323-Regular
FullName: ATM323-Regular
FamilyName: ATM 323
Weight: Book
Version: 1.001
ItalicAngle: -11
UnderlinePosition: -271
UnderlineWidth: 102
Ascent: 1600
Descent: 400
InvalidEm: 0
sfntRevision: 0x00010042
LayerCount: 2
Layer: 0 1 "Back" 1
Layer: 1 1 "Fore" 0
XUID: [1021 192 2086997156 30908]
StyleMap: 0x0040
FSType: 8
OS2Version: 3
OS2_WeightWidthSlopeOnly: 0
OS2_UseTypoMetrics: 0
CreationTime: 1537420141
ModificationTime: 1545704432
PfmFamily: 17
TTFWeight: 400
TTFWidth: 5
LineGap: 0
VLineGap: 0
Panose: 2 0 5 5 0 0 0 2 0 2
OS2TypoAscent: 2000
OS2TypoAOffset: 0
OS2TypoDescent: -1320
OS2TypoDOffset: 0
OS2TypoLinegap: 0
OS2WinAscent: 2000
OS2WinAOffset: 0
OS2WinDescent: 744
OS2WinDOffset: 0
HheadAscent: 2000
HheadAOffset: 0
HheadDescent: -1320
HheadDOffset: 0
OS2SubXSize: 1400
OS2SubYSize: 1300
OS2SubXOff: 0
OS2SubYOff: 0
OS2SupXSize: 1400
OS2SupYSize: 1300
OS2SupXOff: 0
OS2SupYOff: 0
OS2StrikeYSize: 100
OS2StrikeYPos: 518
OS2CapHeight: 1586
OS2XHeight: -200
OS2Vendor: '    '
OS2CodePages: 00000001.00000000
OS2UnicodeRanges: 00100003.00000000.00000000.00000000
Lookup: 4 0 0 "'akhn' Akhand in Tamil2 lookup 0" { "'akhn' Akhand in Tamil2 lookup 0 subtable"  } ['akhn' ('tml2' <'dflt' > ) ]
Lookup: 4 0 0 "'akhn' Akhand in Tamil lookup 1" { "'akhn' Akhand in Tamil lookup 1 subtable"  } ['akhn' ('taml' <'dflt' > ) ]
Lookup: 4 0 0 "'half' Half Forms in Tamil lookup 2" { "'half' Half Forms in Tamil lookup 2 subtable"  } ['half' ('taml' <'dflt' > ) ]
Lookup: 4 0 0 "'haln' Halant Forms in Tamil2 lookup 3" { "'haln' Halant Forms in Tamil2 lookup 3 subtable"  } ['haln' ('tml2' <'dflt' > ) ]
Lookup: 4 0 0 "'haln' Halant Forms in Tamil lookup 4" { "'haln' Halant Forms in Tamil lookup 4 subtable"  } ['haln' ('taml' <'dflt' > ) ]
Lookup: 4 0 0 "'abvs' Above Base Substitutions lookup 5" { "'abvs' Above Base Substitutions lookup 5 subtable"  } ['abvs' ('taml' <'dflt' > 'tml2' <'dflt' > ) ]

StartChar: exclam
Encoding: 33 33 4
Width: 398
GlyphClass: 2
Flags: W
LayerCount: 2
Fore
SplineSet
334 480 m 2,0,1
 334 330 334 330 282 160 c 1,2,-1
 114 160 l 1,3,4
 64 386 64 386 64 472 c 2,5,-1
 64 928 l 1,6,-1
 334 928 l 1,7,-1
 334 480 l 2,0,1
326 -28 m 2,8,9
 326 -70 326 -70 297 -98 c 128,-1,10
 268 -126 268 -126 228 -126 c 2,11,-1
 162 -126 l 2,12,13
 128 -126 128 -126 102 -100 c 128,-1,14
 76 -74 76 -74 76 -40 c 2,15,-1
 76 30 l 2,16,17
 76 58 76 58 101 80 c 128,-1,18
 126 102 126 102 156 102 c 2,19,-1
 240 102 l 2,20,21
 274 102 274 102 300 78 c 128,-1,22
 326 54 326 54 326 22 c 2,23,-1
 326 -28 l 2,8,9
EndSplineSet
EndChar

StartChar: quotedbl
Encoding: 34 34 5
Width: 606
GlyphClass: 2
Flags: W
LayerCount: 2
Fore
SplineSet
109 647 m 1,0,-1
 63 912 l 1,1,-1
 63 1140 l 1,2,-1
 257 1140 l 1,3,-1
 257 912 l 1,4,-1
 214 647 l 1,5,-1
 109 647 l 1,0,-1
423 647 m 1,6,-1
 378 912 l 1,7,-1
 378 1140 l 1,8,-1
 572 1140 l 1,9,-1
 572 912 l 1,10,-1
 527 647 l 1,11,-1
 423 647 l 1,6,-1
EndSplineSet
EndChar

StartChar: numbersign
Encoding: 35 35 6
Width: 1203
GlyphClass: 2
Flags: W
LayerCount: 2
Fore
SplineSet
179 22 m 1,0,-1
 264 356 l 1,1,-1
 103 356 l 1,2,-1
 103 473 l 1,3,-1
 288 473 l 1,4,-1
 358 761 l 1,5,-1
 103 761 l 1,6,-1
 103 876 l 1,7,-1
 386 876 l 1,8,-1
 471 1218 l 1,9,-1
 609 1218 l 1,10,-1
 526 876 l 1,11,-1
 817 876 l 1,12,-1
 903 1218 l 1,13,-1
 1041 1218 l 1,14,-1
 962 876 l 1,15,-1
 1124 876 l 1,16,-1
 1124 761 l 1,17,-1
 932 761 l 1,18,-1
 861 473 l 1,19,-1
 1124 473 l 1,20,-1
 1124 356 l 1,21,-1
 832 356 l 1,22,-1
 755 22 l 1,23,-1
 611 22 l 1,24,-1
 688 356 l 1,25,-1
 401 356 l 1,26,-1
 322 22 l 1,27,-1
 179 22 l 1,0,-1
435 473 m 1,28,-1
 724 473 l 1,29,-1
 792 761 l 1,30,-1
 501 761 l 1,31,-1
 435 473 l 1,28,-1
EndSplineSet
EndChar

StartChar: dollar
Encoding: 36 36 7
Width: 908
GlyphClass: 2
Flags: W
LayerCount: 2
Fore
SplineSet
766 302 m 0,0,1
 744 187 744 187 654 120 c 0,2,3
 572 60 572 60 456 60 c 1,4,-1
 456 -52 l 1,5,-1
 383 -52 l 1,6,-1
 383 60 l 1,7,8
 372 60 372 60 357 60 c 0,9,10
 336 65 336 65 330 71 c 2,11,-1
 264 92 l 2,12,13
 242 95 242 95 229.5 102.5 c 128,-1,14
 217 110 217 110 188 131 c 2,15,-1
 146 156 l 1,16,-1
 180 232 l 1,17,-1
 217 204 l 2,18,19
 259 169 259 169 284 156 c 2,20,-1
 336 137 l 1,21,-1
 383 134 l 1,22,-1
 383 518 l 1,23,24
 230 560 230 560 169 630 c 0,25,26
 99 710 99 710 99 838 c 2,27,-1
 99 872 l 1,28,-1
 104 912 l 2,29,30
 119 1045 119 1045 217 1126 c 0,31,32
 299 1192 299 1192 383 1192 c 1,33,-1
 383 1289 l 1,34,-1
 456 1289 l 1,35,-1
 456 1197 l 1,36,-1
 510 1191 l 2,37,38
 531 1191 531 1191 541.5 1190 c 128,-1,39
 552 1189 552 1189 578 1176 c 1,40,41
 688 1140 688 1140 688 1126 c 1,42,-1
 659 1037 l 1,43,-1
 646 1048 l 2,44,45
 615 1079 615 1079 563 1101 c 0,46,47
 537 1112 537 1112 517.5 1116.5 c 128,-1,48
 498 1121 498 1121 491 1121 c 0,49,50
 466 1121 466 1121 456 1126 c 1,51,-1
 456 739 l 1,52,53
 561 717 561 717 615 686 c 0,54,55
 773 594 773 594 773 404 c 2,56,-1
 772 355 l 2,57,58
 772 330 772 330 766 302 c 0,0,1
383 770 m 1,59,-1
 383 1126 l 1,60,61
 330 1121 330 1121 281 1080 c 0,62,63
 219 1030 219 1030 219 964 c 0,64,65
 219 872 219 872 283 819 c 0,66,67
 297 807 297 807 322.5 796 c 128,-1,68
 348 785 348 785 383 770 c 1,59,-1
653 317 m 0,69,70
 653 404 653 404 573 448 c 1,71,-1
 456 493 l 1,72,-1
 456 134 l 1,73,74
 547 134 547 134 600 185 c 128,-1,75
 653 236 653 236 653 317 c 0,69,70
EndSplineSet
EndChar

StartChar: percent
Encoding: 37 37 8
Width: 814
GlyphClass: 2
Flags: W
LayerCount: 2
Fore
SplineSet
364 610 m 0,0,1
 364 544 364 544 320 498 c 128,-1,2
 276 452 276 452 210 454 c 0,3,4
 148 456 148 456 106 502 c 128,-1,5
 64 548 64 548 64 612 c 0,6,7
 64 674 64 674 106 714 c 128,-1,8
 148 754 148 754 210 754 c 0,9,10
 276 754 276 754 320 713 c 128,-1,11
 364 672 364 672 364 610 c 0,0,1
668 768 m 1,12,-1
 284 0 l 1,13,-1
 144 0 l 1,14,-1
 530 768 l 1,15,-1
 668 768 l 1,12,-1
750 150 m 0,16,17
 750 92 750 92 704 54 c 128,-1,18
 658 16 658 16 596 16 c 0,19,20
 532 16 532 16 489 60 c 128,-1,21
 446 104 446 104 446 166 c 0,22,23
 446 232 446 232 489 277 c 128,-1,24
 532 322 532 322 596 322 c 0,25,26
 750 322 750 322 750 150 c 0,16,17
EndSplineSet
EndChar

StartChar: ampersand
Encoding: 38 38 9
Width: 812
GlyphClass: 2
Flags: W
LayerCount: 2
Fore
SplineSet
752 140 m 1,0,-1
 698 140 l 1,1,2
 660 0 660 0 528 0 c 2,3,-1
 264 0 l 2,4,5
 182 0 182 0 122 60 c 128,-1,6
 62 120 62 120 62 178 c 2,7,-1
 62 252 l 2,8,9
 62 380 62 380 134 384 c 1,10,11
 64 420 64 420 64 480 c 2,12,-1
 64 584 l 2,13,14
 64 640 64 640 136 704 c 128,-1,15
 208 768 208 768 288 768 c 2,16,-1
 492 768 l 2,17,18
 576 768 576 768 638 712 c 0,19,20
 694 658 694 658 694 594 c 2,21,-1
 694 504 l 1,22,-1
 448 504 l 1,23,-1
 446 554 l 2,24,25
 446 578 446 578 406 578 c 2,26,-1
 340 578 l 2,27,28
 326 578 326 578 314 561 c 128,-1,29
 302 544 302 544 302 528 c 0,30,31
 302 494 302 494 326 468 c 128,-1,32
 350 442 350 442 384 442 c 2,33,-1
 500 442 l 1,34,-1
 500 332 l 1,35,-1
 376 332 l 2,36,37
 342 332 342 332 321 302 c 128,-1,38
 300 272 300 272 300 246 c 0,39,40
 300 188 300 188 372 188 c 0,41,42
 436 188 436 188 436 272 c 1,43,-1
 752 272 l 1,44,-1
 752 140 l 1,0,-1
EndSplineSet
EndChar

StartChar: quotesingle
Encoding: 39 39 10
Width: 368
GlyphClass: 2
Flags: W
LayerCount: 2
Fore
SplineSet
137 647 m 1,0,-1
 91 912 l 1,1,-1
 91 1140 l 1,2,-1
 285 1140 l 1,3,-1
 285 912 l 1,4,-1
 242 647 l 1,5,-1
 137 647 l 1,0,-1
EndSplineSet
EndChar

StartChar: parenleft
Encoding: 40 40 11
Width: 454
GlyphClass: 2
Flags: W
LayerCount: 2
Fore
SplineSet
414 -222 m 1,0,-1
 222 -222 l 1,1,2
 178 -212 178 -212 126 -150 c 0,3,4
 64 -78 64 -78 64 2 c 2,5,-1
 64 748 l 2,6,7
 64 802 64 802 119 867 c 128,-1,8
 174 932 174 932 228 948 c 1,9,-1
 392 948 l 1,10,11
 356 912 356 912 322 878 c 0,12,13
 268 818 268 818 268 774 c 2,14,-1
 268 -2 l 2,15,16
 268 -106 268 -106 414 -222 c 1,0,-1
EndSplineSet
EndChar

StartChar: parenright
Encoding: 41 41 12
Width: 480
GlyphClass: 2
Flags: W
LayerCount: 2
Fore
SplineSet
416 32 m 2,0,1
 416 -48 416 -48 356 -120 c 0,2,3
 302 -182 302 -182 258 -192 c 1,4,-1
 66 -192 l 1,5,6
 212 -76 212 -76 212 28 c 2,7,-1
 212 804 l 2,8,9
 212 848 212 848 160 908 c 1,10,11
 124 942 124 942 88 978 c 1,12,-1
 252 978 l 1,13,14
 306 962 306 962 361 897 c 128,-1,15
 416 832 416 832 416 778 c 2,16,-1
 416 32 l 2,0,1
EndSplineSet
EndChar

StartChar: asterisk
Encoding: 42 42 13
Width: 705
GlyphClass: 2
Flags: W
LayerCount: 2
Fore
SplineSet
646 1169 m 1,0,-1
 414 1121 l 1,1,-1
 592 981 l 1,2,-1
 451 875 l 1,3,-1
 346 1073 l 1,4,-1
 267 873 l 1,5,-1
 114 954 l 1,6,-1
 280 1125 l 1,7,-1
 48 1154 l 1,8,-1
 99 1307 l 1,9,-1
 300 1207 l 1,10,-1
 261 1434 l 1,11,-1
 432 1434 l 1,12,-1
 390 1212 l 1,13,-1
 594 1317 l 1,14,-1
 646 1169 l 1,0,-1
EndSplineSet
EndChar

StartChar: plus
Encoding: 43 43 14
Width: 902
GlyphClass: 2
Flags: W
LayerCount: 2
Fore
SplineSet
842 452 m 1,0,1
 830 398 830 398 790 346 c 0,2,3
 744 286 744 286 682 262 c 1,4,-1
 526 262 l 1,5,-1
 526 0 l 1,6,-1
 336 0 l 1,7,-1
 336 262 l 1,8,-1
 64 262 l 1,9,-1
 64 452 l 1,10,-1
 336 452 l 1,11,-1
 336 608 l 1,12,13
 360 670 360 670 420 716 c 0,14,15
 472 756 472 756 526 768 c 1,16,-1
 526 452 l 1,17,-1
 842 452 l 1,0,1
EndSplineSet
EndChar

StartChar: comma
Encoding: 44 44 15
Width: 396
GlyphClass: 2
Flags: W
LayerCount: 2
Fore
SplineSet
342 140 m 0,0,1
 342 24 342 24 210 -104 c 1,2,-1
 82 -124 l 1,3,-1
 150 -4 l 1,4,5
 102 2 102 2 66 46 c 128,-1,6
 30 90 30 90 30 144 c 0,7,8
 30 220 30 220 76 262 c 128,-1,9
 122 304 122 304 192 304 c 0,10,11
 254 304 254 304 298 254 c 128,-1,12
 342 204 342 204 342 140 c 0,0,1
EndSplineSet
EndChar

StartChar: hyphen
Encoding: 45 45 16
Width: 902
GlyphClass: 2
Flags: W
LayerCount: 2
Fore
SplineSet
842 274 m 1,0,-1
 64 274 l 1,1,-1
 64 472 l 1,2,-1
 682 472 l 1,3,4
 748 450 748 450 796 378 c 0,5,6
 830 326 830 326 842 274 c 1,0,-1
EndSplineSet
EndChar

StartChar: period
Encoding: 46 46 17
Width: 386
GlyphClass: 2
Flags: W
LayerCount: 2
Fore
SplineSet
332 156 m 256,0,1
 332 92 332 92 289 46 c 128,-1,2
 246 0 246 0 184 0 c 256,3,4
 122 0 122 0 76 46 c 128,-1,5
 30 92 30 92 30 156 c 0,6,7
 30 218 30 218 77 264 c 128,-1,8
 124 310 124 310 188 310 c 0,9,10
 248 310 248 310 290 265 c 128,-1,11
 332 220 332 220 332 156 c 256,0,1
EndSplineSet
EndChar

StartChar: slash
Encoding: 47 47 18
Width: 544
GlyphClass: 2
Flags: W
LayerCount: 2
Fore
SplineSet
582 1048 m 1,0,-1
 130 -160 l 1,1,-1
 -14 -160 l 1,2,-1
 442 1048 l 1,3,-1
 582 1048 l 1,0,-1
EndSplineSet
EndChar

StartChar: zero
Encoding: 48 48 19
Width: 743
GlyphClass: 2
Flags: W
LayerCount: 2
Fore
SplineSet
705 283 m 2,0,1
 705 0 705 0 435 0 c 2,2,-1
 274 0 l 2,3,4
 177 0 177 0 108.5 63.5 c 128,-1,5
 40 127 40 127 40 230 c 2,6,-1
 40 589 l 2,7,8
 40 688 40 688 103.5 764 c 128,-1,9
 167 840 167 840 260 840 c 2,10,-1
 469 840 l 2,11,12
 564 840 564 840 631 777 c 0,13,14
 705 709 705 709 705 598 c 2,15,-1
 705 283 l 2,0,1
441 289 m 2,16,-1
 441 545 l 2,17,18
 441 627 441 627 391 627 c 2,19,-1
 350 627 l 2,20,21
 331 627 331 627 314.5 605 c 128,-1,22
 298 583 298 583 298 551 c 2,23,-1
 298 287 l 2,24,25
 298 213 298 213 342 213 c 2,26,-1
 384 213 l 2,27,28
 441 213 441 213 441 289 c 2,16,-1
EndSplineSet
EndChar

StartChar: one
Encoding: 49 49 20
Width: 522
GlyphClass: 2
Flags: W
LayerCount: 2
Fore
SplineSet
454 310 m 2,0,1
 454 203 454 203 355 106 c 0,2,3
 272 27 272 27 182 2 c 1,4,-1
 182 612 l 1,5,-1
 40 612 l 1,6,-1
 40 840 l 1,7,-1
 454 840 l 1,8,-1
 454 310 l 2,0,1
EndSplineSet
EndChar

StartChar: two
Encoding: 50 50 21
Width: 724
GlyphClass: 2
Flags: W
LayerCount: 2
Fore
SplineSet
684 0 m 1,0,-1
 40 0 l 1,1,-1
 40 218 l 2,2,3
 40 350 40 350 133 414 c 0,4,5
 173 443 173 443 306 484 c 0,6,7
 399 513 399 513 399 559 c 0,8,9
 399 614 399 614 342 614 c 2,10,-1
 104 614 l 1,11,-1
 104 840 l 1,12,-1
 448 840 l 2,13,14
 547 840 547 840 610 773 c 0,15,16
 676 701 676 701 676 578 c 0,17,18
 676 397 676 397 585 331 c 0,19,20
 536 294 536 294 412 277 c 0,21,22
 317 266 317 266 315 220 c 1,23,-1
 530 220 l 1,24,25
 648 165 648 165 684 0 c 1,0,-1
EndSplineSet
EndChar

StartChar: three
Encoding: 51 51 22
Width: 699
GlyphClass: 2
Flags: W
LayerCount: 2
Fore
SplineSet
659 234 m 2,0,1
 659 139 659 139 585 69.5 c 128,-1,2
 511 0 511 0 422 0 c 2,3,-1
 42 0 l 1,4,5
 57 104 57 104 125 171 c 0,6,7
 179 224 179 224 224 224 c 2,8,-1
 298 224 l 2,9,10
 331 224 331 224 361 245 c 128,-1,11
 391 266 391 266 391 289 c 2,12,-1
 391 338 l 2,13,14
 391 388 391 388 332 388 c 2,15,-1
 266 388 l 1,16,-1
 266 566 l 1,17,18
 313 560 313 560 347.5 580 c 128,-1,19
 382 600 382 600 378 623 c 1,20,-1
 161 623 l 1,21,-1
 161 840 l 1,22,-1
 657 840 l 1,23,-1
 657 655 l 2,24,25
 657 595 657 595 595 538 c 1,26,27
 659 502 659 502 659 391 c 2,28,-1
 659 234 l 2,0,1
EndSplineSet
EndChar

StartChar: four
Encoding: 52 52 23
Width: 804
GlyphClass: 2
Flags: W
LayerCount: 2
Fore
SplineSet
781 205 m 1,0,-1
 606 205 l 1,1,2
 604 156 604 156 526 82 c 0,3,4
 443 4 443 4 365 -2 c 1,5,-1
 365 205 l 1,6,-1
 167 205 l 2,7,8
 110 205 110 205 69 246 c 128,-1,9
 28 287 28 287 28 351 c 0,10,11
 28 426 28 426 122 553 c 0,12,13
 293 785 293 785 327 840 c 1,14,-1
 623 840 l 1,15,-1
 623 424 l 1,16,-1
 781 424 l 1,17,-1
 781 205 l 1,0,-1
365 424 m 1,18,-1
 365 559 l 1,19,-1
 272 424 l 1,20,-1
 365 424 l 1,18,-1
EndSplineSet
EndChar

StartChar: five
Encoding: 53 53 24
Width: 726
GlyphClass: 2
Flags: W
LayerCount: 2
Fore
SplineSet
688 274 m 2,0,1
 688 156 688 156 609 78 c 128,-1,2
 530 0 530 0 412 0 c 2,3,-1
 42 0 l 1,4,5
 44 70 44 70 108.5 143.5 c 128,-1,6
 173 217 173 217 253 217 c 2,7,-1
 338 217 l 2,8,9
 380 217 380 217 380 258 c 2,10,-1
 380 325 l 2,11,12
 380 361 380 361 346 361 c 2,13,-1
 196 361 l 2,14,15
 144 361 144 361 97.5 415 c 128,-1,16
 51 469 51 469 51 538 c 2,17,-1
 51 840 l 1,18,-1
 566 840 l 1,19,-1
 566 623 l 1,20,-1
 302 623 l 1,21,-1
 302 570 l 1,22,-1
 547 570 l 2,23,24
 600 570 600 570 644 520.5 c 128,-1,25
 688 471 688 471 688 422 c 2,26,-1
 688 274 l 2,0,1
EndSplineSet
EndChar

StartChar: six
Encoding: 54 54 25
Width: 707
GlyphClass: 2
Flags: W
LayerCount: 2
Fore
SplineSet
667 243 m 2,0,1
 667 150 667 150 604 75 c 128,-1,2
 541 0 541 0 454 0 c 2,3,-1
 247 0 l 2,4,5
 150 0 150 0 89 84 c 0,6,7
 40 154 40 154 40 232 c 2,8,-1
 40 602 l 2,9,10
 40 705 40 705 116 775 c 0,11,12
 190 840 190 840 289 840 c 2,13,-1
 621 840 l 1,14,15
 591 633 591 633 445 633 c 2,16,-1
 346 633 l 2,17,18
 291 633 291 633 291 597 c 2,19,-1
 291 526 l 1,20,21
 346 566 346 566 370 566 c 2,22,-1
 462 566 l 2,23,24
 549 566 549 566 612 494 c 0,25,26
 667 429 667 429 667 369 c 2,27,-1
 667 243 l 2,0,1
405 266 m 2,28,-1
 405 300 l 2,29,30
 405 338 405 338 372 338 c 2,31,-1
 338 338 l 2,32,33
 321 338 321 338 307 321 c 128,-1,34
 293 304 293 304 293 283 c 2,35,-1
 293 262 l 2,36,37
 293 249 293 249 303 236.5 c 128,-1,38
 313 224 313 224 325 224 c 2,39,-1
 370 224 l 2,40,41
 405 224 405 224 405 266 c 2,28,-1
EndSplineSet
EndChar

StartChar: seven
Encoding: 55 55 26
Width: 619
GlyphClass: 2
Flags: W
LayerCount: 2
Fore
SplineSet
589 671 m 2,0,1
 589 576 589 576 484 359 c 0,2,3
 331 40 331 40 315 0 c 1,4,-1
 57 0 l 1,5,6
 346 547 346 547 346 606 c 0,7,8
 346 627 346 627 304 627 c 2,9,-1
 222 627 l 2,10,11
 84 627 84 627 25 840 c 1,12,-1
 589 840 l 1,13,-1
 589 671 l 2,0,1
EndSplineSet
EndChar

StartChar: eight
Encoding: 56 56 27
Width: 703
GlyphClass: 2
Flags: W
LayerCount: 2
Fore
SplineSet
663 245 m 2,0,1
 663 135 663 135 592.5 67.5 c 128,-1,2
 522 0 522 0 427 0 c 2,3,-1
 274 0 l 2,4,5
 175 0 175 0 107.5 63.5 c 128,-1,6
 40 127 40 127 40 218 c 2,7,-1
 40 312 l 2,8,9
 40 369 40 369 103 426 c 1,10,11
 47 460 47 460 47 536 c 2,12,-1
 47 621 l 2,13,14
 47 711 47 711 120 779 c 0,15,16
 182 840 182 840 241 840 c 2,17,-1
 435 840 l 2,18,19
 541 840 541 840 602 775 c 0,20,21
 657 716 657 716 657 623 c 2,22,-1
 657 562 l 2,23,24
 657 488 657 488 595 437 c 1,25,26
 663 410 663 410 663 275 c 2,27,-1
 663 245 l 2,0,1
416 557 m 2,28,-1
 416 589 l 2,29,30
 416 638 416 638 363 638 c 2,31,-1
 327 638 l 2,32,33
 277 638 277 638 277 583 c 2,34,-1
 277 557 l 2,35,36
 277 545 277 545 292.5 532 c 128,-1,37
 308 519 308 519 319 519 c 2,38,-1
 369 519 l 2,39,40
 416 519 416 519 416 557 c 2,28,-1
405 245 m 2,41,-1
 405 279 l 2,42,43
 405 327 405 327 351 327 c 2,44,-1
 315 327 l 2,45,46
 275 327 275 327 275 274 c 2,47,-1
 275 249 l 2,48,49
 275 236 275 236 288.5 222.5 c 128,-1,50
 302 209 302 209 313 209 c 2,51,-1
 363 209 l 2,52,53
 405 209 405 209 405 245 c 2,41,-1
EndSplineSet
EndChar

StartChar: nine
Encoding: 57 57 28
Width: 712
GlyphClass: 2
Flags: W
LayerCount: 2
Fore
SplineSet
674 249 m 2,0,1
 674 146 674 146 585 70 c 0,2,3
 503 0 503 0 410 0 c 2,4,-1
 91 0 l 1,5,6
 131 207 131 207 270 207 c 2,7,-1
 378 207 l 2,8,9
 418 207 418 207 418 247 c 2,10,-1
 418 315 l 1,11,12
 399 302 399 302 378 288.5 c 128,-1,13
 357 275 357 275 325 275 c 2,14,-1
 270 275 l 2,15,16
 156 275 156 275 93 351 c 0,17,18
 40 412 40 412 40 490 c 2,19,-1
 40 598 l 2,20,21
 40 699 40 699 103.5 769.5 c 128,-1,22
 167 840 167 840 247 840 c 2,23,-1
 467 840 l 2,24,25
 549 840 549 840 611.5 761 c 128,-1,26
 674 682 674 682 674 587 c 2,27,-1
 674 249 l 2,0,1
410 549 m 2,28,-1
 410 572 l 2,29,30
 410 616 410 616 367 616 c 2,31,-1
 338 616 l 2,32,33
 298 616 298 616 298 559 c 2,34,-1
 298 534 l 2,35,36
 298 524 298 524 310.5 512 c 128,-1,37
 323 500 323 500 332 500 c 2,38,-1
 369 500 l 2,39,40
 380 500 380 500 395 518 c 128,-1,41
 410 536 410 536 410 549 c 2,28,-1
EndSplineSet
EndChar

StartChar: colon
Encoding: 58 58 29
Width: 430
GlyphClass: 2
Flags: W
LayerCount: 2
Fore
SplineSet
360 614 m 256,0,1
 360 550 360 550 320 507 c 128,-1,2
 280 464 280 464 218 464 c 0,3,4
 154 464 154 464 109 508 c 128,-1,5
 64 552 64 552 64 614 c 256,6,7
 64 676 64 676 110 722 c 128,-1,8
 156 768 156 768 220 768 c 0,9,10
 282 768 282 768 321 723 c 128,-1,11
 360 678 360 678 360 614 c 256,0,1
366 156 m 256,12,13
 366 92 366 92 323 46 c 128,-1,14
 280 0 280 0 218 0 c 256,15,16
 156 0 156 0 110 46 c 128,-1,17
 64 92 64 92 64 156 c 0,18,19
 64 218 64 218 111 264 c 128,-1,20
 158 310 158 310 222 310 c 0,21,22
 282 310 282 310 324 265 c 128,-1,23
 366 220 366 220 366 156 c 256,12,13
EndSplineSet
EndChar

StartChar: semicolon
Encoding: 59 59 30
Width: 440
GlyphClass: 2
Flags: W
LayerCount: 2
Fore
SplineSet
374 642 m 0,0,1
 374 578 374 578 327 533 c 128,-1,2
 280 488 280 488 216 488 c 256,3,4
 152 488 152 488 108 533 c 128,-1,5
 64 578 64 578 64 642 c 256,6,7
 64 706 64 706 109 752 c 128,-1,8
 154 798 154 798 216 798 c 0,9,10
 280 798 280 798 327 751 c 128,-1,11
 374 704 374 704 374 642 c 0,0,1
376 140 m 0,12,13
 376 24 376 24 244 -104 c 1,14,-1
 116 -124 l 1,15,-1
 184 -4 l 1,16,17
 136 2 136 2 100 46 c 128,-1,18
 64 90 64 90 64 144 c 0,19,20
 64 220 64 220 110 262 c 128,-1,21
 156 304 156 304 226 304 c 0,22,23
 288 304 288 304 332 254 c 128,-1,24
 376 204 376 204 376 140 c 0,12,13
EndSplineSet
EndChar

StartChar: less
Encoding: 60 60 31
Width: 1240
GlyphClass: 2
Flags: W
LayerCount: 2
Fore
SplineSet
993 0 m 1,0,-1
 4 471 l 1,1,-1
 4 589 l 1,2,-1
 993 1070 l 1,3,-1
 993 859 l 1,4,-1
 261 531 l 1,5,-1
 993 202 l 1,6,-1
 993 0 l 1,0,-1
EndSplineSet
EndChar

StartChar: equal
Encoding: 61 61 32
Width: 902
GlyphClass: 2
Flags: W
LayerCount: 2
Fore
SplineSet
842 394 m 1,0,-1
 64 394 l 1,1,-1
 64 592 l 1,2,-1
 682 592 l 1,3,4
 748 570 748 570 796 498 c 0,5,6
 830 446 830 446 842 394 c 1,0,-1
838 86 m 1,7,-1
 230 86 l 1,8,9
 168 110 168 110 122 170 c 0,10,11
 82 222 82 222 70 276 c 1,12,-1
 838 276 l 1,13,-1
 838 86 l 1,7,-1
EndSplineSet
EndChar

StartChar: greater
Encoding: 62 62 33
Width: 1306
GlyphClass: 2
Flags: W
LayerCount: 2
Fore
SplineSet
242 202 m 1,0,-1
 974 531 l 1,1,-1
 242 859 l 1,2,-1
 242 1070 l 1,3,-1
 1231 589 l 1,4,-1
 1231 471 l 1,5,-1
 242 0 l 1,6,-1
 242 202 l 1,0,-1
EndSplineSet
EndChar

StartChar: question
Encoding: 63 63 34
Width: 714
GlyphClass: 2
Flags: W
LayerCount: 2
Fore
SplineSet
650 610 m 2,0,1
 650 532 650 532 576 464 c 1,2,3
 506 410 506 410 434 356 c 0,4,5
 402 332 402 332 370 310 c 1,6,7
 340 280 340 280 340 240 c 2,8,-1
 340 160 l 1,9,-1
 72 160 l 1,10,-1
 72 256 l 2,11,12
 72 334 72 334 138 394 c 1,13,14
 208 446 208 446 275 496 c 128,-1,15
 342 546 342 546 350 552 c 0,16,17
 384 592 384 592 384 656 c 0,18,19
 384 716 384 716 334 716 c 0,20,21
 302 716 302 716 302 688 c 0,22,23
 302 616 302 616 204 562 c 0,24,25
 116 516 116 516 64 526 c 1,26,-1
 64 746 l 2,27,28
 64 820 64 820 127 874 c 128,-1,29
 190 928 190 928 268 928 c 2,30,-1
 436 928 l 2,31,32
 526 928 526 928 588 862 c 128,-1,33
 650 796 650 796 650 704 c 2,34,-1
 650 610 l 2,0,1
334 -26 m 2,35,36
 334 -64 334 -64 303 -93 c 128,-1,37
 272 -122 272 -122 236 -122 c 2,38,-1
 168 -122 l 2,39,40
 136 -122 136 -122 108 -94 c 128,-1,41
 80 -66 80 -66 80 -34 c 2,42,-1
 80 18 l 2,43,44
 80 42 80 42 109 72 c 128,-1,45
 138 102 138 102 164 102 c 2,46,-1
 250 102 l 2,47,48
 282 102 282 102 308 75 c 128,-1,49
 334 48 334 48 334 14 c 2,50,-1
 334 -26 l 2,35,36
EndSplineSet
EndChar

StartChar: at
Encoding: 64 64 35
Width: 1619
GlyphClass: 2
Flags: W
LayerCount: 2
Fore
SplineSet
877 71 m 0,0,1
 870 83 870 83 867 104 c 1,2,3
 849 87 849 87 827.5 71 c 128,-1,4
 806 55 806 55 783 41 c 0,5,6
 711 -2 711 -2 640 -2 c 0,7,8
 564 -2 564 -2 495 41 c 128,-1,9
 426 84 426 84 381 178 c 0,10,11
 336 269 336 269 336 371 c 0,12,13
 336 493 336 493 401 626 c 0,14,15
 467 758 467 758 568 824 c 0,16,17
 668 890 668 890 764 890 c 0,18,19
 843 890 843 890 903 851 c 0,20,21
 929 837 929 837 950.5 818.5 c 128,-1,22
 972 800 972 800 991 774 c 1,23,24
 996 798 996 798 1002 821.5 c 128,-1,25
 1008 845 1008 845 1013 865 c 1,26,-1
 1190 865 l 1,27,-1
 1073 320 l 1,28,-1
 1050 195 l 2,29,30
 1051 190 1051 190 1054 185.5 c 128,-1,31
 1057 181 1057 181 1062 176 c 2,32,-1
 1060 178 l 2,33,34
 1072 168 1072 168 1085 168 c 0,35,36
 1122 168 1122 168 1181 210 c 0,37,38
 1263 267 1263 267 1316 371 c 0,39,40
 1370 474 1370 474 1370 583 c 0,41,42
 1370 702 1370 702 1304 813 c 0,43,44
 1272 869 1272 869 1223.5 913 c 128,-1,45
 1175 957 1175 957 1112 991 c 0,46,47
 1048 1021 1048 1021 977.5 1040.5 c 128,-1,48
 907 1060 907 1060 829 1060 c 0,49,50
 648 1060 648 1060 503 976 c 0,51,52
 429 934 429 934 372.5 874 c 128,-1,53
 316 814 316 814 274 733 c 0,54,55
 191 570 191 570 191 402 c 0,56,57
 191 311 191 311 211 230.5 c 128,-1,58
 231 150 231 150 271 83.5 c 128,-1,59
 311 17 311 17 369 -34 c 128,-1,60
 427 -85 427 -85 504 -118 c 0,61,62
 582 -152 582 -152 668 -168 c 128,-1,63
 754 -184 754 -184 849 -184 c 0,64,65
 1050 -184 1050 -184 1181 -119 c 0,66,67
 1315 -54 1315 -54 1393 54 c 1,68,-1
 1574 54 l 1,69,70
 1519 -65 1519 -65 1421 -148 c 0,71,72
 1374 -188 1374 -188 1310.5 -223.5 c 128,-1,73
 1247 -259 1247 -259 1181 -285 c 0,74,75
 1152 -295 1152 -295 1113 -305.5 c 128,-1,76
 1074 -316 1074 -316 1031 -324 c 0,77,78
 993 -331 993 -331 951 -334.5 c 128,-1,79
 909 -338 909 -338 852 -338 c 0,80,81
 716 -338 716 -338 599 -312 c 128,-1,82
 482 -286 482 -286 387 -235.5 c 128,-1,83
 292 -185 292 -185 220.5 -110.5 c 128,-1,84
 149 -36 149 -36 104 61 c 0,85,86
 37 219 37 219 37 388 c 0,87,88
 37 488 37 488 57.5 580 c 128,-1,89
 78 672 78 672 117 760 c 0,90,91
 217 973 217 973 394 1091 c 0,92,93
 575 1210 575 1210 835 1210 c 0,94,95
 935 1210 935 1210 1022 1190.5 c 128,-1,96
 1109 1171 1109 1171 1191 1129 c 0,97,98
 1272 1090 1272 1090 1335.5 1029 c 128,-1,99
 1399 968 1399 968 1448 883 c 0,100,101
 1523 740 1523 740 1523 581 c 0,102,103
 1523 464 1523 464 1480.5 359 c 128,-1,104
 1438 254 1438 254 1358 163 c 0,105,106
 1285 85 1285 85 1202.5 41.5 c 128,-1,107
 1120 -2 1120 -2 1033 -2 c 2,108,-1
 1012 -2 l 1,109,-1
 977 0 l 2,110,111
 954 4 954 4 933 18 c 1,112,-1
 934 18 l 1,113,114
 917 27 917 27 903.5 40.5 c 128,-1,115
 890 54 890 54 877 71 c 0,0,1
521 360 m 0,116,117
 521 261 521 261 566 207 c 0,118,119
 610 154 610 154 667 154 c 0,120,121
 707 154 707 154 753.5 178.5 c 128,-1,122
 800 203 800 203 839 251 c 0,123,124
 859 274 859 274 876.5 305.5 c 128,-1,125
 894 337 894 337 907 376 c 0,126,127
 936 455 936 455 936 530 c 0,128,129
 936 627 936 627 889 682 c 0,130,131
 844 735 844 735 774 735 c 0,132,133
 751 735 751 735 730 729.5 c 128,-1,134
 709 724 709 724 690 711 c 0,135,136
 646 687 646 687 611 636 c 128,-1,137
 576 585 576 585 545 500 c 1,138,-1
 545 501 l 1,139,140
 521 427 521 427 521 360 c 0,116,117
EndSplineSet
EndChar

StartChar: bracketleft
Encoding: 91 91 36
Width: 426
GlyphClass: 2
Flags: W
LayerCount: 2
Fore
SplineSet
89 1496 m 1,0,-1
 404 1496 l 1,1,-1
 404 1328 l 1,2,-1
 252 1328 l 1,3,-1
 252 -81 l 1,4,-1
 404 -81 l 1,5,-1
 404 -259 l 1,6,-1
 89 -259 l 1,7,-1
 89 1496 l 1,0,-1
EndSplineSet
EndChar

StartChar: backslash
Encoding: 92 92 37
Width: 865
GlyphClass: 2
Flags: W
LayerCount: 2
Fore
SplineSet
184 1239 m 1,0,-1
 838 -119 l 1,1,-1
 674 -119 l 1,2,-1
 16 1239 l 1,3,-1
 184 1239 l 1,0,-1
EndSplineSet
EndChar

StartChar: bracketright
Encoding: 93 93 38
Width: 428
GlyphClass: 2
Flags: W
LayerCount: 2
Fore
SplineSet
331 -259 m 1,0,-1
 16 -259 l 1,1,-1
 16 -81 l 1,2,-1
 169 -81 l 1,3,-1
 169 1328 l 1,4,-1
 16 1328 l 1,5,-1
 16 1496 l 1,6,-1
 331 1496 l 1,7,-1
 331 -259 l 1,0,-1
EndSplineSet
EndChar

StartChar: asciicircum
Encoding: 94 94 39
Width: 719
GlyphClass: 2
Flags: W
LayerCount: 2
Fore
SplineSet
180 450 m 1,0,-1
 43 450 l 1,1,-1
 306 1234 l 1,2,-1
 414 1234 l 1,3,-1
 674 450 l 1,4,-1
 540 450 l 1,5,-1
 358 1032 l 1,6,-1
 180 450 l 1,0,-1
EndSplineSet
EndChar

StartChar: underscore
Encoding: 95 95 40
Width: 1192
GlyphClass: 2
Flags: W
LayerCount: 2
Fore
SplineSet
108 -333 m 1,0,-1
 108 -226 l 1,1,-1
 1083 -226 l 1,2,-1
 1083 -333 l 1,3,-1
 108 -333 l 1,0,-1
EndSplineSet
EndChar

StartChar: braceleft
Encoding: 123 123 41
Width: 623
GlyphClass: 2
Flags: W
LayerCount: 2
Fore
SplineSet
124 705 m 1,0,1
 178 705 178 705 213.5 737.5 c 128,-1,2
 249 770 249 770 260 823 c 1,3,-1
 260 820 l 1,4,-1
 265 921 l 2,5,6
 267 948 267 948 269 977.5 c 128,-1,7
 271 1007 271 1007 273 1034 c 0,8,9
 273 1111 273 1111 274 1164.5 c 128,-1,10
 275 1218 275 1218 277 1247 c 0,11,12
 279 1277 279 1277 284.5 1305.5 c 128,-1,13
 290 1334 290 1334 299 1358 c 0,14,15
 318 1407 318 1407 345 1437.5 c 128,-1,16
 372 1468 372 1468 420 1485 c 0,17,18
 460 1500 460 1500 518 1500 c 2,19,-1
 578 1500 l 1,20,-1
 578 1319 l 1,21,-1
 533 1319 l 2,22,23
 473 1319 473 1319 451 1287 c 1,24,-1
 452 1288 l 1,25,26
 432 1259 432 1259 432 1151 c 2,27,-1
 432 960 l 1,28,-1
 429 892 l 2,29,30
 429 867 429 867 423 851 c 0,31,32
 417 804 417 804 404.5 764.5 c 128,-1,33
 392 725 392 725 376 698 c 0,34,35
 363 678 363 678 342 655.5 c 128,-1,36
 321 633 321 633 297 613 c 1,37,38
 363 567 363 567 394 494 c 0,39,40
 412 449 412 449 422 376 c 128,-1,41
 432 303 432 303 432 203 c 2,42,-1
 434 -5 l 2,43,44
 437 -58 437 -58 454 -78 c 1,45,-1
 482 -93 l 1,46,47
 501 -97 501 -97 533 -97 c 2,48,-1
 578 -97 l 1,49,-1
 578 -275 l 1,50,-1
 518 -275 l 2,51,52
 442 -275 442 -275 409 -261 c 0,53,54
 363 -237 363 -237 324 -189 c 1,55,56
 298 -148 298 -148 281 -64 c 0,57,58
 277 -29 277 -29 275 31.5 c 128,-1,59
 273 92 273 92 273 177 c 0,60,61
 273 258 273 258 270 313.5 c 128,-1,62
 267 369 267 369 260 399 c 0,63,64
 248 454 248 454 220 485 c 1,65,66
 200 499 200 499 176.5 507 c 128,-1,67
 153 515 153 515 124 515 c 1,68,-1
 124 705 l 1,0,1
EndSplineSet
EndChar

StartChar: bar
Encoding: 124 124 42
Width: 313
GlyphClass: 2
Flags: W
LayerCount: 2
Fore
SplineSet
70 -259 m 1,0,-1
 70 1586 l 1,1,-1
 242 1586 l 1,2,-1
 239 -259 l 1,3,-1
 70 -259 l 1,0,-1
EndSplineSet
EndChar

StartChar: braceright
Encoding: 125 125 43
Width: 547
GlyphClass: 2
Flags: W
LayerCount: 2
Fore
SplineSet
489 517 m 1,0,1
 458 517 458 517 435 510 c 128,-1,2
 412 503 412 503 395 489 c 0,3,4
 379 472 379 472 368 451 c 128,-1,5
 357 430 357 430 351 401 c 0,6,7
 339 341 339 341 339 179 c 0,8,9
 339 11 339 11 330 -59 c 0,10,11
 316 -146 316 -146 289 -187 c 0,12,13
 270 -210 270 -210 248.5 -228.5 c 128,-1,14
 227 -247 227 -247 203 -259 c 0,15,16
 170 -273 170 -273 94 -273 c 2,17,-1
 33 -273 l 1,18,-1
 33 -95 l 1,19,-1
 79 -95 l 2,20,21
 96 -95 96 -95 108 -93.5 c 128,-1,22
 120 -92 120 -92 131 -90 c 2,23,-1
 158 -76 l 1,24,25
 176 -55 176 -55 179 -2 c 0,26,27
 179 49 179 49 180 101 c 128,-1,28
 181 153 181 153 181 205 c 0,29,30
 181 306 181 306 190 378.5 c 128,-1,31
 199 451 199 451 218 496 c 0,32,33
 252 572 252 572 315 615 c 1,34,35
 290 635 290 635 269 657.5 c 128,-1,36
 248 680 248 680 235 700 c 0,37,38
 219 726 219 726 207.5 767 c 128,-1,39
 196 808 196 808 188 853 c 0,40,41
 185 861 185 861 184.5 870.5 c 128,-1,42
 184 880 184 880 184 894 c 2,43,-1
 181 962 l 1,44,-1
 181 1153 l 2,45,46
 181 1261 181 1261 161 1290 c 1,47,-1
 162 1289 l 1,48,49
 140 1321 140 1321 79 1321 c 2,50,-1
 33 1321 l 1,51,-1
 33 1502 l 1,52,-1
 94 1502 l 2,53,54
 153 1502 153 1502 191 1487 c 0,55,56
 237 1470 237 1470 265.5 1439 c 128,-1,57
 294 1408 294 1408 311 1360 c 0,58,59
 321 1336 321 1336 326.5 1307.5 c 128,-1,60
 332 1279 332 1279 334 1249 c 0,61,62
 336 1220 336 1220 337.5 1166 c 128,-1,63
 339 1112 339 1112 339 1037 c 1,64,-1
 348 923 l 1,65,-1
 352 825 l 1,66,67
 364 773 364 773 399 740 c 128,-1,68
 434 707 434 707 489 707 c 1,69,-1
 489 517 l 1,0,1
EndSplineSet
EndChar

StartChar: asciitilde
Encoding: 126 126 44
Width: 1161
GlyphClass: 2
Flags: W
LayerCount: 2
Fore
SplineSet
1045 747 m 1,0,-1
 1086 747 l 1,1,2
 1082 571 1082 571 1014 469.5 c 128,-1,3
 946 368 946 368 850 368 c 0,4,5
 807 368 807 368 757.5 389 c 128,-1,6
 708 410 708 410 503 535 c 0,7,8
 356 620 356 620 294 620 c 0,9,10
 229 620 229 620 183.5 562 c 128,-1,11
 138 504 138 504 118 371 c 1,12,-1
 75 371 l 1,13,14
 83 557 83 557 148.5 654.5 c 128,-1,15
 214 752 214 752 302 752 c 0,16,17
 342 752 342 752 387 732 c 0,18,19
 484 691 484 691 642.5 592.5 c 128,-1,20
 801 494 801 494 867 494 c 0,21,22
 936 494 936 494 985 559.5 c 128,-1,23
 1034 625 1034 625 1045 747 c 1,0,-1
EndSplineSet
EndChar

StartChar: cent
Encoding: 162 162 45
Width: 721
GlyphClass: 2
Flags: W
LayerCount: 2
Fore
SplineSet
598 156 m 1,0,1
 537 71 537 71 467 31 c 128,-1,2
 397 -9 397 -9 304 -17 c 1,3,-1
 228 -265 l 1,4,-1
 187 -265 l 1,5,-1
 262 -17 l 1,6,7
 177 -8 177 -8 128.5 47 c 128,-1,8
 80 102 80 102 80 188 c 0,9,10
 80 345 80 345 191.5 478.5 c 128,-1,11
 303 612 303 612 457 638 c 1,12,-1
 541 917 l 1,13,-1
 580 917 l 1,14,-1
 499 638 l 1,15,16
 580 638 580 638 616.5 607 c 128,-1,17
 653 576 653 576 653 523 c 0,18,19
 653 482 653 482 631.5 455.5 c 128,-1,20
 610 429 610 429 580 429 c 0,21,22
 557 429 557 429 544 442 c 128,-1,23
 531 455 531 455 531 476 c 0,24,25
 531 491 531 491 536 502 c 128,-1,26
 541 513 541 513 560.5 534.5 c 128,-1,27
 580 556 580 556 580 570 c 0,28,29
 580 578 580 578 575 585 c 0,30,31
 565 596 565 596 549.5 601 c 128,-1,32
 534 606 534 606 489 606 c 1,33,-1
 322 49 l 1,34,-1
 352 47 l 1,35,36
 470 47 470 47 580 173 c 1,37,-1
 598 156 l 1,0,1
284 57 m 1,38,-1
 445 598 l 1,39,40
 383 570 383 570 342 533 c 0,41,42
 274 467 274 467 237 380.5 c 128,-1,43
 200 294 200 294 200 205 c 0,44,45
 200 146 200 146 224 108 c 0,46,47
 243 81 243 81 284 57 c 1,38,-1
EndSplineSet
EndChar

StartChar: multiply
Encoding: 215 215 46
Width: 975
GlyphClass: 2
Flags: W
LayerCount: 2
Fore
SplineSet
267 230 m 1,0,-1
 515 479 l 1,1,-1
 267 728 l 1,2,-1
 308 768 l 1,3,-1
 556 520 l 1,4,-1
 805 768 l 1,5,-1
 844 728 l 1,6,-1
 595 480 l 1,7,-1
 845 230 l 1,8,-1
 805 190 l 1,9,-1
 555 439 l 1,10,-1
 307 190 l 1,11,-1
 267 230 l 1,0,-1
EndSplineSet
EndChar

StartChar: divide
Encoding: 247 247 47
Width: 962
GlyphClass: 2
Flags: W
LayerCount: 2
Fore
SplineSet
654 650 m 0,0,1
 654 600 654 600 615 565 c 128,-1,2
 576 530 576 530 526 530 c 256,3,4
 476 530 476 530 445 563 c 128,-1,5
 414 596 414 596 414 650 c 0,6,7
 414 698 414 698 448 733 c 128,-1,8
 482 768 482 768 532 768 c 256,9,10
 582 768 582 768 618 732 c 128,-1,11
 654 696 654 696 654 650 c 0,0,1
898 294 m 1,12,-1
 222 294 l 1,13,14
 164 314 164 314 116 378 c 0,15,16
 72 432 72 432 62 484 c 1,17,-1
 736 484 l 1,18,19
 842 456 842 456 898 294 c 1,12,-1
654 122 m 0,20,21
 654 74 654 74 616 37 c 128,-1,22
 578 0 578 0 528 0 c 0,23,24
 480 0 480 0 447 35 c 128,-1,25
 414 70 414 70 414 120 c 256,26,27
 414 170 414 170 450 208 c 128,-1,28
 486 246 486 246 534 246 c 0,29,30
 584 246 584 246 619 209 c 128,-1,31
 654 172 654 172 654 122 c 0,20,21
EndSplineSet
EndChar

StartChar: tm_visarga
Encoding: 2947 2947 48
Width: 984
GlyphClass: 2
Flags: W
LayerCount: 2
Fore
SplineSet
662 710 m 256,0,1
 662 634 662 634 612 578 c 0,2,3
 556 518 556 518 470 518 c 0,4,5
 392 518 392 518 337 571 c 128,-1,6
 282 624 282 624 282 706 c 256,7,8
 282 788 282 788 339 843 c 128,-1,9
 396 898 396 898 474 898 c 256,10,11
 552 898 552 898 607 842 c 128,-1,12
 662 786 662 786 662 710 c 256,0,1
408 186 m 256,13,14
 408 108 408 108 352 54 c 128,-1,15
 296 0 296 0 216 0 c 0,16,17
 140 0 140 0 85 54 c 128,-1,18
 30 108 30 108 30 184 c 256,19,20
 30 260 30 260 88 318 c 128,-1,21
 146 376 146 376 222 376 c 256,22,23
 298 376 298 376 353 320 c 128,-1,24
 408 264 408 264 408 186 c 256,13,14
954 182 m 256,25,26
 954 106 954 106 898 53 c 128,-1,27
 842 0 842 0 764 0 c 0,28,29
 690 0 690 0 635 55 c 128,-1,30
 580 110 580 110 580 186 c 0,31,32
 580 260 580 260 636 314 c 128,-1,33
 692 368 692 368 768 368 c 256,34,35
 844 368 844 368 899 313 c 128,-1,36
 954 258 954 258 954 182 c 256,25,26
EndSplineSet
EndChar

StartChar: tm_a
Encoding: 2949 2949 49
Width: 1662
GlyphClass: 2
Flags: W
LayerCount: 2
Fore
SplineSet
1622 0 m 1,0,-1
 1358 0 l 1,1,-1
 1358 464 l 1,2,-1
 1272 464 l 1,3,-1
 1272 282 l 2,4,5
 1272 170 1272 170 1188 88 c 0,6,7
 1098 0 1098 0 958 0 c 2,8,-1
 316 0 l 2,9,10
 192 0 192 0 114 76 c 0,11,12
 30 154 30 154 30 284 c 2,13,-1
 30 444 l 2,14,15
 30 538 30 538 110 615 c 128,-1,16
 190 692 190 692 294 692 c 2,17,-1
 408 692 l 1,18,19
 396 806 396 806 478 900 c 128,-1,20
 560 994 560 994 690 994 c 2,21,-1
 960 994 l 2,22,23
 1108 994 1108 994 1198 902 c 128,-1,24
 1288 810 1288 810 1284 682 c 1,25,-1
 1358 682 l 1,26,-1
 1358 976 l 1,27,-1
 1622 976 l 1,28,-1
 1622 0 l 1,0,-1
996 676 m 1,29,-1
 996 722 l 2,30,31
 996 774 996 774 942 774 c 2,32,-1
 728 774 l 2,33,34
 666 774 666 774 666 702 c 2,35,-1
 666 624 l 2,36,37
 666 598 666 598 686 598 c 0,38,39
 714 598 714 598 714 628 c 2,40,-1
 714 734 l 1,41,-1
 920 734 l 2,42,43
 946 734 946 734 946 710 c 2,44,-1
 946 676 l 1,45,-1
 996 676 l 1,29,-1
996 354 m 2,46,-1
 996 468 l 1,47,-1
 884 468 l 1,48,49
 822 408 822 408 688 408 c 0,50,51
 562 408 562 408 502 474 c 1,52,-1
 374 474 l 2,53,54
 308 474 308 474 308 406 c 2,55,-1
 308 298 l 2,56,57
 308 230 308 230 378 230 c 2,58,-1
 882 230 l 2,59,60
 932 230 932 230 964 266 c 128,-1,61
 996 302 996 302 996 354 c 2,46,-1
EndSplineSet
EndChar

StartChar: tm_aa
Encoding: 2950 2950 50
Width: 1934
GlyphClass: 2
Flags: W
LayerCount: 2
Fore
SplineSet
1904 -36 m 2,0,1
 1904 -136 1904 -136 1829 -209 c 128,-1,2
 1754 -282 1754 -282 1652 -282 c 2,3,-1
 1082 -282 l 1,4,5
 1078 -228 1078 -228 1132 -160 c 128,-1,6
 1186 -92 1186 -92 1244 -84 c 1,7,-1
 1556 -84 l 2,8,9
 1710 -84 1710 -84 1710 22 c 2,10,-1
 1710 168 l 2,11,12
 1710 218 1710 218 1652 218 c 2,13,-1
 1608 218 l 1,14,-1
 1608 0 l 1,15,-1
 1350 0 l 1,16,-1
 1350 466 l 1,17,-1
 1262 466 l 1,18,-1
 1262 290 l 2,19,20
 1262 176 1262 176 1182 92 c 0,21,22
 1094 0 1094 0 954 0 c 2,23,-1
 314 0 l 2,24,25
 184 0 184 0 107 80 c 128,-1,26
 30 160 30 160 30 288 c 2,27,-1
 30 430 l 2,28,29
 30 532 30 532 109 610 c 128,-1,30
 188 688 188 688 300 688 c 2,31,-1
 402 688 l 1,32,33
 392 804 392 804 473 899 c 128,-1,34
 554 994 554 994 682 994 c 2,35,-1
 952 994 l 2,36,37
 1100 994 1100 994 1187 906 c 128,-1,38
 1274 818 1274 818 1272 682 c 1,39,-1
 1350 682 l 1,40,-1
 1350 976 l 1,41,-1
 1608 976 l 1,42,-1
 1608 410 l 1,43,-1
 1702 410 l 2,44,45
 1774 410 1774 410 1839 354 c 128,-1,46
 1904 298 1904 298 1904 218 c 2,47,-1
 1904 -36 l 2,0,1
986 676 m 1,48,-1
 986 718 l 2,49,50
 986 774 986 774 930 774 c 2,51,-1
 722 774 l 2,52,53
 662 774 662 774 662 700 c 2,54,-1
 662 626 l 2,55,56
 662 596 662 596 682 596 c 0,57,58
 712 596 712 596 712 632 c 2,59,-1
 712 732 l 1,60,-1
 912 732 l 2,61,62
 938 732 938 732 938 698 c 2,63,-1
 938 676 l 1,64,-1
 986 676 l 1,48,-1
986 358 m 2,65,-1
 986 466 l 1,66,-1
 876 466 l 1,67,68
 820 408 820 408 682 408 c 0,69,70
 560 408 560 408 496 474 c 1,71,-1
 368 474 l 2,72,73
 308 474 308 474 308 410 c 2,74,-1
 308 290 l 2,75,76
 308 226 308 226 374 226 c 2,77,-1
 876 226 l 2,78,79
 924 226 924 226 955 267 c 128,-1,80
 986 308 986 308 986 358 c 2,65,-1
EndSplineSet
EndChar

StartChar: tm_i
Encoding: 2951 2951 51
Width: 1666
GlyphClass: 2
Flags: W
LayerCount: 2
Fore
SplineSet
1636 -34 m 2,0,1
 1636 -114 1636 -114 1566 -179 c 128,-1,2
 1496 -244 1496 -244 1420 -244 c 2,3,-1
 1288 -244 l 2,4,5
 1192 -244 1192 -244 1146 -196 c 1,6,7
 1066 -244 1066 -244 958 -244 c 2,8,-1
 318 -244 l 2,9,10
 198 -244 198 -244 114 -162 c 128,-1,11
 30 -80 30 -80 30 38 c 2,12,-1
 30 200 l 2,13,14
 30 330 30 330 138 400 c 1,15,16
 120 430 120 430 120 480 c 2,17,-1
 120 538 l 2,18,19
 120 744 120 744 293 887 c 128,-1,20
 466 1030 466 1030 696 1030 c 2,21,-1
 980 1030 l 2,22,23
 1242 1030 1242 1030 1412 864 c 0,24,25
 1558 718 1558 718 1558 544 c 0,26,27
 1558 524 1558 524 1556 504 c 1,28,-1
 1350 504 l 1,29,30
 1300 814 1300 814 942 814 c 2,31,-1
 726 814 l 2,32,33
 544 814 544 814 456 732 c 128,-1,34
 368 650 368 650 358 456 c 1,35,-1
 410 456 l 1,36,37
 406 576 406 576 488 667 c 128,-1,38
 570 758 570 758 702 758 c 2,39,-1
 970 758 l 2,40,41
 1120 758 1120 758 1212 662 c 0,42,43
 1298 572 1298 572 1296 440 c 1,44,-1
 1378 440 l 2,45,46
 1484 440 1484 440 1560 358 c 128,-1,47
 1636 276 1636 276 1636 168 c 2,48,-1
 1636 -34 l 2,0,1
1008 438 m 1,49,-1
 1008 484 l 2,50,51
 1008 538 1008 538 950 538 c 2,52,-1
 734 538 l 2,53,54
 670 538 670 538 670 464 c 2,55,-1
 670 378 l 2,56,57
 670 358 670 358 696 358 c 0,58,59
 720 358 720 358 720 386 c 2,60,-1
 720 498 l 1,61,-1
 930 498 l 2,62,63
 958 498 958 498 958 466 c 2,64,-1
 958 438 l 1,65,-1
 1008 438 l 1,49,-1
1004 114 m 2,66,-1
 1004 226 l 1,67,-1
 886 226 l 1,68,69
 828 168 828 168 688 168 c 0,70,71
 574 168 574 168 502 240 c 1,72,-1
 368 240 l 2,73,74
 308 240 308 240 308 162 c 2,75,-1
 308 58 l 2,76,77
 308 -10 308 -10 380 -10 c 2,78,-1
 886 -10 l 2,79,80
 938 -10 938 -10 971 25 c 128,-1,81
 1004 60 1004 60 1004 114 c 2,66,-1
1370 46 m 2,82,-1
 1370 170 l 2,83,84
 1370 188 1370 188 1354 206 c 128,-1,85
 1338 224 1338 224 1314 224 c 2,86,-1
 1284 224 l 1,87,-1
 1284 28 l 2,88,89
 1284 -18 1284 -18 1322 -18 c 0,90,91
 1370 -18 1370 -18 1370 46 c 2,82,-1
EndSplineSet
EndChar

StartChar: tm_ii
Encoding: 2952 2952 52
Width: 1042
GlyphClass: 2
Flags: W
LayerCount: 2
Fore
SplineSet
1018 768 m 1,0,1
 992 518 992 518 788 538 c 1,2,-1
 788 0 l 1,3,-1
 508 0 l 1,4,-1
 508 538 l 1,5,-1
 326 538 l 2,6,7
 258 538 258 538 258 436 c 2,8,-1
 258 0 l 1,9,-1
 30 0 l 1,10,-1
 30 474 l 2,11,12
 30 586 30 586 105 677 c 128,-1,13
 180 768 180 768 282 768 c 2,14,-1
 1018 768 l 1,0,1
476 324 m 0,15,16
 476 282 476 282 449 256 c 128,-1,17
 422 230 422 230 382 230 c 256,18,19
 342 230 342 230 316 258 c 128,-1,20
 290 286 290 286 290 324 c 0,21,22
 290 360 290 360 318 387 c 128,-1,23
 346 414 346 414 382 414 c 0,24,25
 476 414 476 414 476 324 c 0,15,16
1000 314 m 0,26,27
 1000 278 1000 278 974 251 c 128,-1,28
 948 224 948 224 910 224 c 0,29,30
 874 224 874 224 848 251 c 128,-1,31
 822 278 822 278 822 314 c 0,32,33
 822 408 822 408 916 408 c 0,34,35
 952 408 952 408 976 381 c 128,-1,36
 1000 354 1000 354 1000 314 c 0,26,27
EndSplineSet
EndChar

StartChar: tm_u
Encoding: 2953 2953 53
Width: 1582
GlyphClass: 2
Flags: W
LayerCount: 2
Fore
SplineSet
1558 0 m 1,0,-1
 228 0 l 2,1,2
 152 0 152 0 91 56 c 128,-1,3
 30 112 30 112 30 176 c 2,4,-1
 30 304 l 2,5,6
 30 372 30 372 85 431 c 128,-1,7
 140 490 140 490 204 490 c 2,8,-1
 468 490 l 2,9,10
 538 490 538 490 588 532 c 0,11,12
 646 580 646 580 646 660 c 2,13,-1
 646 832 l 2,14,15
 646 932 646 932 550 932 c 2,16,-1
 402 932 l 2,17,18
 308 932 308 932 308 862 c 2,19,-1
 308 758 l 2,20,21
 308 738 308 738 328 738 c 0,22,23
 356 738 356 738 356 770 c 2,24,-1
 356 886 l 1,25,-1
 566 886 l 1,26,27
 598 856 598 856 598 768 c 0,28,29
 598 690 598 690 548 620 c 0,30,31
 492 542 492 542 410 542 c 2,32,-1
 282 542 l 2,33,34
 204 542 204 542 120 617 c 128,-1,35
 36 692 36 692 36 780 c 2,36,-1
 36 876 l 2,37,38
 36 974 36 974 125 1059 c 128,-1,39
 214 1144 214 1144 338 1144 c 2,40,-1
 632 1144 l 2,41,42
 776 1144 776 1144 860 1036 c 0,43,44
 924 952 924 952 924 862 c 2,45,-1
 924 582 l 2,46,47
 924 466 924 466 846 374 c 0,48,49
 762 274 762 274 634 274 c 2,50,-1
 332 274 l 2,51,52
 294 274 294 274 294 246 c 0,53,54
 294 220 294 220 338 220 c 2,55,-1
 1558 220 l 1,56,-1
 1558 0 l 1,0,-1
EndSplineSet
EndChar

StartChar: tm_uu
Encoding: 2954 2954 54
Width: 1924
GlyphClass: 2
Flags: W
LayerCount: 2
Fore
SplineSet
1900 0 m 1,0,-1
 222 0 l 2,1,2
 148 0 148 0 89 58 c 128,-1,3
 30 116 30 116 30 174 c 2,4,-1
 30 312 l 2,5,6
 30 368 30 368 86 429 c 128,-1,7
 142 490 142 490 212 490 c 2,8,-1
 470 490 l 2,9,10
 546 490 546 490 601 534 c 128,-1,11
 656 578 656 578 656 662 c 2,12,-1
 656 832 l 2,13,14
 656 930 656 930 562 930 c 2,15,-1
 392 930 l 2,16,17
 312 930 312 930 312 864 c 2,18,-1
 312 766 l 2,19,20
 312 738 312 738 332 738 c 0,21,22
 360 738 360 738 360 772 c 2,23,-1
 360 890 l 1,24,-1
 578 890 l 1,25,26
 608 862 608 862 608 768 c 0,27,28
 608 682 608 682 556 618 c 0,29,30
 498 546 498 546 412 546 c 2,31,-1
 284 546 l 2,32,33
 198 546 198 546 117 621 c 128,-1,34
 36 696 36 696 36 786 c 2,35,-1
 36 860 l 2,36,37
 36 962 36 962 120 1048 c 0,38,39
 210 1144 210 1144 340 1144 c 2,40,-1
 638 1144 l 2,41,42
 788 1144 788 1144 872 1036 c 0,43,44
 936 952 936 952 936 860 c 2,45,-1
 936 580 l 2,46,47
 936 460 936 460 856 374 c 0,48,49
 768 276 768 276 614 276 c 2,50,-1
 334 276 l 2,51,52
 296 276 296 276 296 248 c 256,53,54
 296 220 296 220 340 220 c 2,55,-1
 1900 220 l 1,56,-1
 1900 0 l 1,0,-1
1854 666 m 1,57,58
 1852 608 1852 608 1817 575 c 128,-1,59
 1782 542 1782 542 1730 542 c 1,60,-1
 1730 278 l 1,61,-1
 1584 278 l 1,62,-1
 1584 506 l 2,63,64
 1584 542 1584 542 1558 542 c 0,65,66
 1516 542 1516 542 1516 504 c 2,67,-1
 1516 278 l 1,68,-1
 1362 278 l 1,69,-1
 1362 486 l 2,70,71
 1362 552 1362 552 1282 552 c 2,72,-1
 1198 552 l 2,73,74
 1144 552 1144 552 1144 498 c 2,75,-1
 1144 414 l 2,76,77
 1144 390 1144 390 1160 390 c 0,78,79
 1172 390 1172 390 1172 414 c 2,80,-1
 1172 468 l 1,81,-1
 1282 468 l 1,82,83
 1318 450 1318 450 1318 384 c 0,84,85
 1318 336 1318 336 1278 304 c 0,86,87
 1246 278 1246 278 1212 278 c 2,88,-1
 1144 278 l 2,89,90
 1078 278 1078 278 1037 328 c 128,-1,91
 996 378 996 378 996 442 c 2,92,-1
 996 516 l 2,93,94
 996 570 996 570 1028 616 c 0,95,96
 1068 674 1068 674 1142 674 c 2,97,-1
 1360 674 l 2,98,99
 1420 674 1420 674 1446 638 c 1,100,101
 1468 666 1468 666 1540 666 c 2,102,-1
 1854 666 l 1,57,58
EndSplineSet
EndChar

StartChar: tm_e
Encoding: 2958 2958 55
Width: 1254
GlyphClass: 2
Flags: W
LayerCount: 2
Fore
SplineSet
1228 768 m 1,0,1
 1214 640 1214 640 1146 580 c 0,2,3
 1086 526 1086 526 998 534 c 1,4,-1
 998 0 l 1,5,-1
 712 0 l 1,6,-1
 712 534 l 1,7,-1
 406 534 l 2,8,9
 306 534 306 534 306 442 c 2,10,-1
 306 248 l 2,11,12
 306 210 306 210 332 210 c 0,13,14
 352 210 352 210 352 248 c 2,15,-1
 352 364 l 1,16,-1
 582 364 l 1,17,18
 626 342 626 342 626 240 c 0,19,20
 626 118 626 118 558 54 c 0,21,22
 500 0 500 0 416 0 c 2,23,-1
 262 0 l 2,24,25
 172 0 172 0 101 79 c 128,-1,26
 30 158 30 158 30 244 c 2,27,-1
 30 460 l 2,28,29
 30 578 30 578 116 673 c 128,-1,30
 202 768 202 768 334 768 c 2,31,-1
 1228 768 l 1,0,1
EndSplineSet
EndChar

StartChar: tm_ee
Encoding: 2959 2959 56
Width: 1254
GlyphClass: 2
Flags: W
LayerCount: 2
Fore
SplineSet
1230 768 m 1,0,1
 1202 516 1202 516 1002 534 c 1,2,-1
 1002 -46 l 2,3,4
 1002 -156 1002 -156 929 -231 c 128,-1,5
 856 -306 856 -306 746 -306 c 2,6,-1
 406 -306 l 1,7,8
 412 -214 412 -214 462 -156 c 128,-1,9
 512 -98 512 -98 584 -98 c 2,10,-1
 640 -98 l 2,11,12
 674 -98 674 -98 694 -63 c 128,-1,13
 714 -28 714 -28 714 12 c 2,14,-1
 714 534 l 1,15,-1
 414 534 l 2,16,17
 310 534 310 534 310 440 c 2,18,-1
 310 256 l 2,19,20
 310 214 310 214 328 214 c 0,21,22
 358 214 358 214 358 248 c 2,23,-1
 358 366 l 1,24,-1
 584 366 l 1,25,26
 628 344 628 344 628 240 c 0,27,28
 628 134 628 134 572 67 c 128,-1,29
 516 0 516 0 418 0 c 2,30,-1
 276 0 l 2,31,32
 176 0 176 0 103 82 c 128,-1,33
 30 164 30 164 30 270 c 2,34,-1
 30 440 l 2,35,36
 30 574 30 574 114 671 c 128,-1,37
 198 768 198 768 328 768 c 2,38,-1
 1230 768 l 1,0,1
EndSplineSet
EndChar

StartChar: tm_ai
Encoding: 2960 2960 57
Width: 1530
GlyphClass: 2
Flags: W
LayerCount: 2
Fore
SplineSet
1498 258 m 2,0,1
 1498 136 1498 136 1385 33 c 128,-1,2
 1272 -70 1272 -70 1164 -70 c 2,3,-1
 948 -70 l 1,4,-1
 948 -154 l 2,5,6
 948 -204 948 -204 1020 -204 c 2,7,-1
 1120 -204 l 2,8,9
 1194 -204 1194 -204 1210 -112 c 1,10,11
 1270 -80 1270 -80 1330 -50 c 0,12,13
 1438 10 1438 10 1446 34 c 1,14,15
 1490 -10 1490 -10 1490 -50 c 2,16,-1
 1490 -130 l 2,17,18
 1490 -254 1490 -254 1394 -342 c 0,19,20
 1310 -418 1310 -418 1220 -418 c 2,21,-1
 924 -418 l 2,22,23
 832 -418 832 -418 796 -352 c 1,24,25
 770 -398 770 -398 738 -410 c 0,26,27
 716 -418 716 -418 658 -418 c 2,28,-1
 306 -418 l 2,29,30
 212 -418 212 -418 130 -348 c 0,31,32
 42 -274 42 -274 42 -174 c 2,33,-1
 42 -128 l 2,34,35
 42 -30 42 -30 108 46 c 0,36,37
 190 142 190 142 342 142 c 2,38,-1
 1058 142 l 2,39,40
 1212 142 1212 142 1212 256 c 2,41,-1
 1212 466 l 2,42,43
 1212 544 1212 544 1120 544 c 2,44,-1
 1010 544 l 2,45,46
 938 544 938 544 938 482 c 2,47,-1
 938 178 l 1,48,-1
 658 178 l 1,49,-1
 658 472 l 2,50,51
 658 544 658 544 578 544 c 2,52,-1
 374 544 l 2,53,54
 306 544 306 544 306 482 c 2,55,-1
 306 392 l 2,56,57
 306 360 306 360 328 360 c 256,58,59
 350 360 350 360 350 392 c 2,60,-1
 350 500 l 1,61,-1
 568 500 l 1,62,63
 606 482 606 482 606 430 c 2,64,-1
 606 386 l 2,65,66
 606 304 606 304 539 243 c 128,-1,67
 472 182 472 182 392 182 c 2,68,-1
 256 182 l 2,69,70
 170 182 170 182 101 253 c 128,-1,71
 32 324 32 324 32 408 c 2,72,-1
 32 506 l 2,73,74
 32 604 32 604 115 685 c 128,-1,75
 198 766 198 766 328 766 c 2,76,-1
 612 766 l 2,77,78
 730 766 730 766 792 688 c 1,79,80
 818 712 818 712 844 736 c 0,81,82
 882 766 882 766 926 766 c 2,83,-1
 1186 766 l 2,84,85
 1320 766 1320 766 1409 680 c 128,-1,86
 1498 594 1498 594 1498 474 c 2,87,-1
 1498 258 l 2,0,1
650 -128 m 2,88,-1
 650 -72 l 1,89,-1
 424 -72 l 2,90,91
 340 -72 340 -72 340 -132 c 2,92,-1
 340 -160 l 2,93,94
 340 -200 340 -200 398 -200 c 2,95,-1
 568 -200 l 2,96,97
 650 -200 650 -200 650 -128 c 2,88,-1
EndSplineSet
EndChar

StartChar: tm_o
Encoding: 2962 2962 58
Width: 1228
GlyphClass: 2
Flags: W
LayerCount: 2
Fore
SplineSet
1198 524 m 2,0,1
 1198 472 1198 472 1167 423 c 128,-1,2
 1136 374 1136 374 1098 352 c 1,3,-1
 1196 352 l 1,4,-1
 1196 234 l 1,5,6
 1158 196 1158 196 1110 196 c 2,7,-1
 1032 196 l 1,8,9
 1068 150 1068 150 1068 86 c 2,10,-1
 1068 -14 l 2,11,12
 1068 -102 1068 -102 1001 -171 c 128,-1,13
 934 -240 934 -240 838 -240 c 2,14,-1
 292 -240 l 1,15,16
 282 -176 282 -176 335 -103 c 128,-1,17
 388 -30 388 -30 470 -12 c 1,18,-1
 740 -12 l 2,19,20
 794 -12 794 -12 814 -2 c 0,21,22
 844 14 844 14 844 58 c 2,23,-1
 844 134 l 2,24,25
 844 176 844 176 816 190 c 0,26,27
 810 194 810 194 750 208 c 0,28,29
 624 238 624 238 624 336 c 2,30,-1
 624 396 l 2,31,32
 624 492 624 492 686 492 c 2,33,-1
 820 492 l 1,34,-1
 820 424 l 2,35,36
 820 398 820 398 858 398 c 0,37,38
 878 398 878 398 897 418 c 128,-1,39
 916 438 916 438 916 472 c 2,40,-1
 916 692 l 2,41,42
 916 746 916 746 886 764 c 0,43,44
 864 778 864 778 808 778 c 2,45,-1
 404 778 l 2,46,47
 308 778 308 778 308 688 c 2,48,-1
 308 572 l 2,49,50
 308 542 308 542 330 542 c 0,51,52
 356 542 356 542 356 564 c 2,53,-1
 356 684 l 1,54,-1
 564 684 l 1,55,56
 606 664 606 664 606 552 c 0,57,58
 606 450 606 450 543 386 c 128,-1,59
 480 322 480 322 384 322 c 2,60,-1
 286 322 l 2,61,62
 184 322 184 322 110 394 c 0,63,64
 30 468 30 468 30 580 c 2,65,-1
 30 696 l 2,66,67
 30 814 30 814 104 904 c 0,68,69
 186 1004 186 1004 310 1004 c 2,70,-1
 934 1004 l 2,71,72
 1044 1004 1044 1004 1124 912 c 0,73,74
 1198 826 1198 826 1198 720 c 2,75,-1
 1198 524 l 2,0,1
EndSplineSet
EndChar

StartChar: tm_oo
Encoding: 2963 2963 59
Width: 1228
GlyphClass: 2
Flags: W
LayerCount: 2
Fore
SplineSet
1198 516 m 2,0,1
 1198 408 1198 408 1094 340 c 1,2,-1
 1190 340 l 1,3,-1
 1190 230 l 1,4,5
 1170 190 1170 190 1098 190 c 2,6,-1
 1024 190 l 1,7,8
 1060 162 1060 162 1060 94 c 2,9,-1
 1060 -26 l 2,10,11
 1060 -108 1060 -108 996 -174 c 128,-1,12
 932 -240 932 -240 842 -240 c 2,13,-1
 374 -240 l 2,14,15
 296 -240 296 -240 246 -193 c 128,-1,16
 196 -146 196 -146 196 -74 c 2,17,-1
 196 126 l 2,18,19
 196 274 196 274 314 274 c 2,20,-1
 510 274 l 2,21,22
 564 274 564 274 603 247 c 128,-1,23
 642 220 642 220 642 176 c 0,24,25
 642 82 642 82 484 38 c 1,26,27
 472 44 472 44 464 92 c 1,28,-1
 410 92 l 1,29,-1
 410 18 l 2,30,31
 410 -12 410 -12 466 -12 c 2,32,-1
 778 -12 l 2,33,34
 836 -12 836 -12 836 54 c 2,35,-1
 836 138 l 2,36,37
 836 182 836 182 796 196 c 1,38,39
 756 204 756 204 716 214 c 0,40,41
 624 244 624 244 624 322 c 2,42,-1
 624 410 l 2,43,44
 624 434 624 434 639 460 c 128,-1,45
 654 486 654 486 672 486 c 2,46,-1
 816 486 l 1,47,-1
 816 428 l 2,48,49
 816 392 816 392 856 392 c 0,50,51
 918 392 918 392 918 488 c 2,52,-1
 918 682 l 2,53,54
 918 778 918 778 824 778 c 2,55,-1
 388 778 l 2,56,57
 304 778 304 778 304 682 c 2,58,-1
 304 570 l 2,59,60
 304 540 304 540 328 540 c 0,61,62
 356 540 356 540 356 570 c 2,63,-1
 356 682 l 1,64,-1
 568 682 l 1,65,66
 606 658 606 658 606 546 c 0,67,68
 606 450 606 450 536 384 c 0,69,70
 474 322 474 322 404 322 c 2,71,-1
 274 322 l 2,72,73
 190 322 190 322 110 393 c 128,-1,74
 30 464 30 464 30 552 c 2,75,-1
 30 692 l 2,76,77
 30 814 30 814 110 909 c 128,-1,78
 190 1004 190 1004 318 1004 c 2,79,-1
 902 1004 l 2,80,81
 1026 1004 1026 1004 1112 916 c 128,-1,82
 1198 828 1198 828 1198 726 c 2,83,-1
 1198 516 l 2,0,1
EndSplineSet
EndChar

StartChar: tm_au
Encoding: 2964 2964 60
Width: 3004
GlyphClass: 2
Flags: W
LayerCount: 2
Fore
SplineSet
2988 768 m 1,0,1
 2988 672 2988 672 2929 609 c 128,-1,2
 2870 546 2870 546 2798 546 c 2,3,-1
 2712 546 l 1,4,-1
 2712 0 l 1,5,-1
 2420 0 l 1,6,-1
 2420 546 l 1,7,-1
 2374 546 l 2,8,9
 2308 546 2308 546 2308 474 c 2,10,-1
 2308 0 l 1,11,-1
 2012 0 l 1,12,-1
 2012 470 l 2,13,14
 2012 540 2012 540 1906 540 c 2,15,-1
 1702 540 l 2,16,17
 1620 540 1620 540 1620 434 c 2,18,-1
 1620 236 l 2,19,20
 1620 194 1620 194 1646 194 c 0,21,22
 1674 194 1674 194 1674 234 c 2,23,-1
 1674 356 l 1,24,-1
 1892 356 l 1,25,26
 1922 314 1922 314 1922 242 c 0,27,28
 1922 138 1922 138 1855 69 c 128,-1,29
 1788 0 1788 0 1716 0 c 2,30,-1
 1618 0 l 2,31,32
 1520 0 1520 0 1434 72 c 0,33,34
 1334 154 1334 154 1334 276 c 2,35,-1
 1334 416 l 2,36,37
 1334 768 1334 768 1678 768 c 2,38,-1
 1986 768 l 2,39,40
 2038 768 2038 768 2087 742 c 128,-1,41
 2136 716 2136 716 2156 678 c 1,42,43
 2188 768 2188 768 2312 768 c 2,44,-1
 2988 768 l 1,0,1
1210 524 m 2,45,46
 1210 466 1210 466 1178 427 c 128,-1,47
 1146 388 1146 388 1112 352 c 1,48,-1
 1204 352 l 1,49,-1
 1204 232 l 1,50,51
 1170 198 1170 198 1136 198 c 2,52,-1
 1034 198 l 1,53,54
 1076 174 1076 174 1076 92 c 2,55,-1
 1076 -14 l 2,56,57
 1076 -104 1076 -104 1008 -171 c 128,-1,58
 940 -238 940 -238 836 -238 c 2,59,-1
 288 -238 l 1,60,61
 292 -166 292 -166 338 -101 c 128,-1,62
 384 -36 384 -36 460 -14 c 1,63,-1
 754 -14 l 2,64,65
 850 -14 850 -14 850 38 c 2,66,-1
 850 144 l 2,67,68
 850 186 850 186 798 202 c 1,69,70
 760 208 760 208 722 216 c 1,71,72
 630 248 630 248 630 320 c 2,73,-1
 630 402 l 2,74,75
 630 490 630 490 692 490 c 2,76,-1
 824 490 l 1,77,-1
 824 426 l 2,78,79
 824 398 824 398 858 398 c 0,80,81
 926 398 926 398 926 492 c 2,82,-1
 926 684 l 2,83,84
 926 778 926 778 822 778 c 2,85,-1
 418 778 l 2,86,87
 360 778 360 778 334 761 c 128,-1,88
 308 744 308 744 308 690 c 2,89,-1
 308 570 l 2,90,91
 308 542 308 542 336 542 c 0,92,93
 358 542 358 542 358 570 c 2,94,-1
 358 684 l 1,95,-1
 568 684 l 1,96,97
 614 646 614 646 614 562 c 0,98,99
 614 460 614 460 547 392 c 128,-1,100
 480 324 480 324 384 324 c 2,101,-1
 282 324 l 2,102,103
 198 324 198 324 120 388 c 0,104,105
 30 460 30 460 30 564 c 2,106,-1
 30 700 l 2,107,108
 30 830 30 830 120 920 c 0,109,110
 204 1004 204 1004 320 1004 c 2,111,-1
 934 1004 l 2,112,113
 1048 1004 1048 1004 1132 914 c 0,114,115
 1210 828 1210 828 1210 718 c 2,116,-1
 1210 524 l 2,45,46
EndSplineSet
EndChar

StartChar: tm_ka
Encoding: 2965 2965 61
Width: 1208
GlyphClass: 2
Flags: W
LayerCount: 2
Fore
SplineSet
1178 194 m 2,0,1
 1178 142 1178 142 1152 81 c 128,-1,2
 1126 20 1126 20 1096 0 c 1,3,-1
 796 0 l 1,4,5
 896 82 896 82 896 162 c 2,6,-1
 896 230 l 2,7,8
 896 288 896 288 850 288 c 2,9,-1
 820 288 l 1,10,-1
 820 228 l 2,11,12
 820 134 820 134 739 67 c 128,-1,13
 658 0 658 0 544 0 c 2,14,-1
 268 0 l 2,15,16
 170 0 170 0 100 64 c 128,-1,17
 30 128 30 128 30 216 c 2,18,-1
 30 308 l 2,19,20
 30 382 30 382 72 435 c 128,-1,21
 114 488 114 488 186 486 c 1,22,23
 184 620 184 620 244 694 c 128,-1,24
 304 768 304 768 414 768 c 2,25,-1
 1036 768 l 1,26,27
 1046 710 1046 710 998 634 c 0,28,29
 942 550 942 550 864 550 c 2,30,-1
 820 550 l 1,31,-1
 820 484 l 1,32,-1
 948 484 l 2,33,34
 1038 484 1038 484 1108 423 c 128,-1,35
 1178 362 1178 362 1178 286 c 2,36,-1
 1178 194 l 2,0,1
540 484 m 1,37,-1
 534 544 l 1,38,-1
 442 544 l 1,39,-1
 420 530 l 1,40,-1
 420 484 l 1,41,-1
 540 484 l 1,37,-1
528 264 m 2,42,-1
 528 288 l 1,43,-1
 366 288 l 2,44,45
 310 288 310 288 310 246 c 2,46,-1
 310 228 l 2,47,48
 310 206 310 206 352 206 c 2,49,-1
 458 206 l 2,50,51
 484 206 484 206 506 224 c 128,-1,52
 528 242 528 242 528 264 c 2,42,-1
EndSplineSet
EndChar

StartChar: tm_nga
Encoding: 2969 2969 62
Width: 1498
GlyphClass: 2
Flags: W
LayerCount: 2
Fore
SplineSet
1458 238 m 2,0,1
 1458 154 1458 154 1386 80 c 0,2,3
 1306 0 1306 0 1190 0 c 2,4,-1
 452 0 l 1,5,6
 468 94 468 94 534 156 c 0,7,8
 592 212 592 212 652 212 c 2,9,-1
 826 212 l 1,10,-1
 826 230 l 2,11,12
 826 256 826 256 762 256 c 2,13,-1
 468 256 l 1,14,-1
 468 546 l 1,15,-1
 334 546 l 2,16,17
 288 546 288 546 272 532 c 0,18,19
 252 512 252 512 252 456 c 2,20,-1
 252 0 l 1,21,-1
 40 0 l 1,22,-1
 40 442 l 2,23,24
 40 768 40 768 378 768 c 2,25,-1
 950 768 l 1,26,27
 952 690 952 690 894 620 c 128,-1,28
 836 550 836 550 780 550 c 2,29,-1
 736 550 l 1,30,-1
 736 490 l 1,31,-1
 914 490 l 2,32,33
 986 490 986 490 1044 438 c 128,-1,34
 1102 386 1102 386 1102 322 c 2,35,-1
 1102 212 l 1,36,37
 1190 212 1190 212 1190 310 c 2,38,-1
 1190 768 l 1,39,-1
 1458 768 l 1,40,-1
 1458 238 l 2,0,1
EndSplineSet
EndChar

StartChar: tm_ca
Encoding: 2970 2970 63
Width: 1090
GlyphClass: 2
Flags: W
LayerCount: 2
Fore
SplineSet
1066 504 m 1,0,1
 1064 430 1064 430 1008 368 c 128,-1,2
 952 306 952 306 892 306 c 2,3,-1
 826 306 l 1,4,-1
 826 242 l 2,5,6
 826 146 826 146 752 73 c 128,-1,7
 678 0 678 0 564 0 c 2,8,-1
 278 0 l 2,9,10
 176 0 176 0 103 73 c 128,-1,11
 30 146 30 146 30 244 c 2,12,-1
 30 306 l 2,13,14
 30 394 30 394 77 449 c 128,-1,15
 124 504 124 504 202 502 c 1,16,17
 198 524 198 524 198 544 c 0,18,19
 198 640 198 640 263 704 c 128,-1,20
 328 768 328 768 428 768 c 2,21,-1
 1058 768 l 1,22,23
 1050 688 1050 688 1003 623 c 128,-1,24
 956 558 956 558 896 558 c 2,25,-1
 826 558 l 1,26,-1
 826 504 l 1,27,-1
 1066 504 l 1,0,1
544 502 m 1,28,-1
 544 558 l 1,29,-1
 456 558 l 1,30,-1
 428 532 l 1,31,-1
 428 502 l 1,32,-1
 544 502 l 1,28,-1
542 304 m 1,33,-1
 368 304 l 2,34,35
 324 304 324 304 324 278 c 2,36,-1
 324 254 l 2,37,38
 324 236 324 236 356 236 c 2,39,-1
 500 236 l 2,40,41
 516 236 516 236 530 254 c 128,-1,42
 544 272 544 272 544 292 c 0,43,44
 544 298 544 298 542 304 c 1,33,-1
EndSplineSet
EndChar

StartChar: tm_ja
Encoding: 2972 2972 64
Width: 1452
GlyphClass: 2
Flags: W
LayerCount: 2
Fore
SplineSet
1422 340 m 2,0,1
 1422 224 1422 224 1338 132 c 1,2,3
 1360 126 1360 126 1384 97 c 128,-1,4
 1408 68 1408 68 1408 44 c 2,5,-1
 1408 -62 l 2,6,7
 1408 -168 1408 -168 1312 -248 c 0,8,9
 1230 -318 1230 -318 1154 -318 c 2,10,-1
 814 -318 l 1,11,12
 810 -252 810 -252 869 -183 c 128,-1,13
 928 -114 928 -114 1002 -114 c 2,14,-1
 1068 -114 l 2,15,16
 1100 -114 1100 -114 1122 -88 c 0,17,18
 1138 -66 1138 -66 1138 -40 c 0,19,20
 1138 12 1138 12 1086 12 c 2,21,-1
 990 12 l 2,22,23
 954 12 954 12 900 -74 c 0,24,25
 810 -212 810 -212 794 -232 c 0,26,27
 724 -318 724 -318 650 -318 c 2,28,-1
 292 -318 l 2,29,30
 202 -318 202 -318 116 -248 c 128,-1,31
 30 -178 30 -178 30 -104 c 2,32,-1
 30 -30 l 2,33,34
 30 62 30 62 94 134 c 0,35,36
 168 216 168 216 288 216 c 2,37,-1
 1042 216 l 2,38,39
 1146 216 1146 216 1146 328 c 2,40,-1
 1146 508 l 2,41,42
 1146 602 1146 602 1050 602 c 2,43,-1
 958 602 l 2,44,45
 890 602 890 602 890 516 c 2,46,-1
 890 252 l 1,47,-1
 618 252 l 1,48,-1
 618 538 l 2,49,50
 618 602 618 602 552 602 c 2,51,-1
 350 602 l 2,52,53
 290 602 290 602 290 540 c 2,54,-1
 290 458 l 2,55,56
 290 426 290 426 308 426 c 0,57,58
 332 426 332 426 332 458 c 2,59,-1
 332 558 l 1,60,-1
 518 558 l 2,61,62
 572 558 572 558 572 498 c 2,63,-1
 572 454 l 2,64,65
 572 378 572 378 511 319 c 128,-1,66
 450 260 450 260 376 260 c 2,67,-1
 240 260 l 2,68,69
 156 260 156 260 92 321 c 128,-1,70
 28 382 28 382 28 468 c 2,71,-1
 28 570 l 2,72,73
 28 658 28 658 103 732 c 128,-1,74
 178 806 178 806 282 806 c 2,75,-1
 578 806 l 2,76,77
 694 806 694 806 756 728 c 1,78,79
 828 806 828 806 878 806 c 2,80,-1
 1146 806 l 2,81,82
 1270 806 1270 806 1354 712 c 0,83,84
 1422 634 1422 634 1422 562 c 2,85,-1
 1422 340 l 2,0,1
680 20 m 1,86,-1
 404 20 l 2,87,88
 312 20 312 20 312 -38 c 2,89,-1
 312 -62 l 2,90,91
 312 -104 312 -104 372 -104 c 2,92,-1
 540 -104 l 2,93,94
 570 -104 570 -104 602 -60 c 0,95,96
 644 -2 644 -2 680 20 c 1,86,-1
EndSplineSet
EndChar

StartChar: tm_nya
Encoding: 2974 2974 65
Width: 1356
GlyphClass: 2
Flags: W
LayerCount: 2
Fore
SplineSet
1326 -16 m 2,0,1
 1326 -140 1326 -140 1235 -226 c 128,-1,2
 1144 -312 1144 -312 1016 -312 c 2,3,-1
 74 -312 l 1,4,5
 104 -86 104 -86 310 -86 c 2,6,-1
 1006 -86 l 2,7,8
 1098 -86 1098 -86 1098 0 c 2,9,-1
 1098 70 l 2,10,11
 1098 132 1098 132 1042 132 c 0,12,13
 1014 132 1014 132 1004 114 c 1,14,-1
 1004 0 l 1,15,-1
 716 0 l 1,16,-1
 716 536 l 1,17,-1
 418 536 l 2,18,19
 314 536 314 536 314 436 c 2,20,-1
 314 240 l 2,21,22
 314 214 314 214 338 214 c 0,23,24
 360 214 360 214 360 250 c 2,25,-1
 360 370 l 1,26,-1
 594 370 l 1,27,28
 632 330 632 330 632 244 c 0,29,30
 632 122 632 122 566 56 c 0,31,32
 510 0 510 0 426 0 c 2,33,-1
 282 0 l 2,34,35
 180 0 180 0 105 81 c 128,-1,36
 30 162 30 162 30 274 c 2,37,-1
 30 444 l 2,38,39
 30 576 30 576 110 668 c 0,40,41
 198 768 198 768 344 768 c 2,42,-1
 1236 768 l 1,43,44
 1214 562 1214 562 1066 536 c 1,45,-1
 1010 536 l 1,46,-1
 1010 356 l 1,47,-1
 1086 356 l 2,48,49
 1176 356 1176 356 1248 298 c 0,50,51
 1326 234 1326 234 1326 142 c 2,52,-1
 1326 -16 l 2,0,1
EndSplineSet
EndChar

StartChar: tm_tta
Encoding: 2975 2975 66
Width: 1164
GlyphClass: 2
Flags: W
LayerCount: 2
Fore
SplineSet
1142 0 m 1,0,-1
 40 0 l 1,1,-1
 40 768 l 1,2,-1
 330 768 l 1,3,-1
 330 238 l 1,4,-1
 884 238 l 2,5,6
 1062 238 1062 238 1142 0 c 1,0,-1
EndSplineSet
EndChar

StartChar: tm_nna
Encoding: 2979 2979 67
Width: 2538
GlyphClass: 2
Flags: W
LayerCount: 2
Fore
SplineSet
2516 768 m 1,0,1
 2508 692 2508 692 2468 630 c 0,2,3
 2414 546 2414 546 2332 546 c 0,4,5
 2316 546 2316 546 2300 550 c 1,6,-1
 2300 0 l 1,7,-1
 2002 0 l 1,8,-1
 2002 476 l 2,9,10
 2002 548 2002 548 1946 548 c 2,11,-1
 1890 548 l 1,12,13
 1920 526 1920 526 1920 472 c 2,14,-1
 1920 268 l 2,15,16
 1920 160 1920 160 1862 86 c 0,17,18
 1796 0 1796 0 1682 0 c 2,19,-1
 1518 0 l 2,20,21
 1440 0 1440 0 1374 54 c 0,22,23
 1294 120 1294 120 1294 238 c 2,24,-1
 1294 450 l 2,25,26
 1294 498 1294 498 1328 542 c 1,27,-1
 1230 542 l 1,28,29
 1248 504 1248 504 1248 468 c 2,30,-1
 1248 262 l 2,31,32
 1248 158 1248 158 1186 82 c 0,33,34
 1118 0 1118 0 1012 0 c 2,35,-1
 848 0 l 2,36,37
 768 0 768 0 702 60 c 0,38,39
 622 130 622 130 622 248 c 2,40,-1
 622 430 l 2,41,42
 622 506 622 506 666 544 c 1,43,-1
 402 544 l 2,44,45
 346 544 346 544 330 516 c 0,46,47
 320 498 320 498 320 450 c 2,48,-1
 320 258 l 2,49,50
 320 220 320 220 338 220 c 0,51,52
 358 220 358 220 358 256 c 2,53,-1
 358 352 l 1,54,-1
 540 352 l 1,55,56
 592 330 592 330 592 222 c 0,57,58
 592 128 592 128 537 64 c 128,-1,59
 482 0 482 0 406 0 c 2,60,-1
 268 0 l 2,61,62
 194 0 194 0 120 66 c 0,63,64
 30 146 30 146 30 274 c 2,65,-1
 30 444 l 2,66,67
 30 596 30 596 122 686 c 0,68,69
 208 768 208 768 336 768 c 2,70,-1
 770 768 l 2,71,72
 924 768 924 768 944 696 c 1,73,74
 972 718 972 718 998 740 c 0,75,76
 1040 768 1040 768 1094 768 c 2,77,-1
 1504 768 l 2,78,79
 1566 768 1566 768 1634 704 c 1,80,81
 1676 768 1676 768 1782 768 c 2,82,-1
 2516 768 l 1,0,1
1642 260 m 2,83,-1
 1642 510 l 2,84,85
 1642 552 1642 552 1614 552 c 0,86,87
 1578 552 1578 552 1578 496 c 2,88,-1
 1578 258 l 2,89,90
 1578 212 1578 212 1608 212 c 0,91,92
 1642 212 1642 212 1642 260 c 2,83,-1
966 256 m 2,93,-1
 966 502 l 2,94,95
 966 544 966 544 934 544 c 0,96,97
 898 544 898 544 898 498 c 2,98,-1
 898 248 l 2,99,100
 898 210 898 210 932 210 c 256,101,102
 966 210 966 210 966 256 c 2,93,-1
EndSplineSet
EndChar

StartChar: tm_ta
Encoding: 2980 2980 68
Width: 1212
GlyphClass: 2
Flags: W
LayerCount: 2
Fore
SplineSet
1182 64 m 2,0,1
 1182 -114 1182 -114 1066 -212 c 0,2,3
 960 -302 960 -302 782 -302 c 2,4,-1
 30 -302 l 1,5,6
 56 -98 56 -98 256 -98 c 2,7,-1
 750 -98 l 2,8,9
 818 -98 818 -98 858 -54 c 128,-1,10
 898 -10 898 -10 898 54 c 2,11,-1
 898 230 l 2,12,13
 898 296 898 296 854 296 c 2,14,-1
 820 296 l 1,15,-1
 820 242 l 2,16,17
 820 144 820 144 741 73 c 128,-1,18
 662 2 662 2 548 2 c 2,19,-1
 268 2 l 2,20,21
 170 2 170 2 101 65 c 128,-1,22
 32 128 32 128 32 222 c 2,23,-1
 32 314 l 2,24,25
 32 374 32 374 75 431 c 128,-1,26
 118 488 118 488 190 486 c 1,27,28
 186 506 186 506 186 528 c 0,29,30
 186 620 186 620 240 688 c 0,31,32
 302 768 302 768 406 768 c 2,33,-1
 1038 768 l 1,34,35
 1040 710 1040 710 992 638 c 0,36,37
 934 554 934 554 862 554 c 2,38,-1
 818 554 l 1,39,-1
 818 492 l 1,40,-1
 952 492 l 2,41,42
 1042 492 1042 492 1112 427 c 128,-1,43
 1182 362 1182 362 1182 284 c 2,44,-1
 1182 64 l 2,0,1
532 486 m 1,45,-1
 532 544 l 1,46,-1
 452 544 l 2,47,48
 412 544 412 544 412 512 c 2,49,-1
 412 486 l 1,50,-1
 532 486 l 1,45,-1
524 288 m 1,51,-1
 366 288 l 2,52,53
 310 288 310 288 310 252 c 2,54,-1
 310 232 l 2,55,56
 310 208 310 208 366 208 c 2,57,-1
 468 208 l 2,58,59
 490 208 490 208 510 229 c 128,-1,60
 530 250 530 250 530 270 c 0,61,62
 530 280 530 280 524 288 c 1,51,-1
EndSplineSet
EndChar

StartChar: tm_na
Encoding: 2984 2984 69
Width: 1152
GlyphClass: 2
Flags: W
LayerCount: 2
Fore
SplineSet
1122 48 m 2,0,1
 1122 -332 1122 -332 738 -332 c 2,2,-1
 -94 -332 l 1,3,4
 -66 -102 -66 -102 126 -102 c 2,5,-1
 680 -102 l 2,6,7
 768 -102 768 -102 801 -74 c 128,-1,8
 834 -46 834 -46 834 26 c 2,9,-1
 834 194 l 2,10,11
 834 256 834 256 770 256 c 2,12,-1
 738 256 l 1,13,-1
 738 0 l 1,14,-1
 458 0 l 1,15,-1
 458 548 l 1,16,-1
 352 548 l 2,17,18
 264 548 264 548 264 456 c 2,19,-1
 264 0 l 1,20,-1
 30 0 l 1,21,-1
 30 472 l 2,22,23
 30 768 30 768 312 768 c 2,24,-1
 964 768 l 1,25,26
 974 716 974 716 913 632 c 128,-1,27
 852 548 852 548 798 548 c 2,28,-1
 738 548 l 1,29,-1
 738 486 l 1,30,-1
 864 486 l 2,31,32
 988 486 988 486 1060 410 c 0,33,34
 1122 342 1122 342 1122 254 c 2,35,-1
 1122 48 l 2,0,1
EndSplineSet
EndChar

StartChar: tm_nnna
Encoding: 2985 2985 70
Width: 1912
GlyphClass: 2
Flags: W
LayerCount: 2
Fore
SplineSet
1888 768 m 1,0,1
 1882 686 1882 686 1846 626 c 0,2,3
 1790 534 1790 534 1676 534 c 0,4,5
 1646 534 1646 534 1610 542 c 1,6,-1
 1610 0 l 1,7,-1
 1324 0 l 1,8,-1
 1324 538 l 1,9,-1
 1180 538 l 1,10,11
 1230 508 1230 508 1230 440 c 2,12,-1
 1230 260 l 2,13,14
 1230 156 1230 156 1172 82 c 0,15,16
 1108 0 1108 0 996 0 c 2,17,-1
 836 0 l 2,18,19
 754 0 754 0 688 52 c 0,20,21
 606 116 606 116 606 232 c 2,22,-1
 606 440 l 2,23,24
 606 490 606 490 648 538 c 1,25,-1
 394 538 l 2,26,27
 338 538 338 538 320 508 c 0,28,29
 308 488 308 488 308 440 c 2,30,-1
 308 250 l 2,31,32
 308 212 308 212 332 212 c 0,33,34
 352 212 352 212 352 248 c 2,35,-1
 352 348 l 1,36,-1
 534 348 l 1,37,38
 582 338 582 338 582 216 c 0,39,40
 582 126 582 126 527 63 c 128,-1,41
 472 0 472 0 398 0 c 2,42,-1
 264 0 l 2,43,44
 188 0 188 0 118 60 c 0,45,46
 30 136 30 136 30 266 c 2,47,-1
 30 436 l 2,48,49
 30 596 30 596 118 686 c 0,50,51
 198 768 198 768 324 768 c 2,52,-1
 754 768 l 2,53,54
 856 768 856 768 934 690 c 1,55,56
 950 714 950 714 964 736 c 1,57,58
 996 768 996 768 1080 768 c 2,59,-1
 1888 768 l 1,0,1
954 230 m 2,60,-1
 954 500 l 2,61,62
 954 542 954 542 926 542 c 0,63,64
 892 542 892 542 892 492 c 2,65,-1
 892 230 l 2,66,67
 892 188 892 188 918 188 c 0,68,69
 954 188 954 188 954 230 c 2,60,-1
EndSplineSet
EndChar

StartChar: tm_pa
Encoding: 2986 2986 71
Width: 1096
GlyphClass: 2
Flags: W
LayerCount: 2
Fore
SplineSet
1056 0 m 1,0,-1
 40 0 l 1,1,-1
 40 768 l 1,2,-1
 326 768 l 1,3,-1
 326 236 l 1,4,-1
 784 236 l 1,5,-1
 784 768 l 1,6,-1
 1056 768 l 1,7,-1
 1056 0 l 1,0,-1
EndSplineSet
EndChar

StartChar: tm_ma
Encoding: 2990 2990 72
Width: 1278
GlyphClass: 2
Flags: W
LayerCount: 2
Fore
SplineSet
1248 374 m 0,0,1
 1248 226 1248 226 1162 116 c 0,2,3
 1068 0 1068 0 928 0 c 2,4,-1
 40 0 l 1,5,-1
 40 768 l 1,6,-1
 342 768 l 1,7,-1
 342 242 l 1,8,-1
 506 242 l 1,9,-1
 506 768 l 1,10,-1
 920 768 l 2,11,12
 1078 768 1078 768 1168 646 c 0,13,14
 1248 536 1248 536 1248 374 c 0,0,1
974 328 m 2,15,-1
 974 424 l 2,16,17
 974 530 974 530 900 530 c 2,18,-1
 800 530 l 1,19,-1
 800 242 l 1,20,-1
 894 242 l 2,21,22
 974 242 974 242 974 328 c 2,15,-1
EndSplineSet
EndChar

StartChar: tm_ya
Encoding: 2991 2991 73
Width: 1498
GlyphClass: 2
Flags: W
LayerCount: 2
Fore
SplineSet
1458 -10 m 1,0,-1
 428 -10 l 1,1,-1
 428 74 l 1,2,3
 400 52 400 52 374 30 c 0,4,5
 330 0 330 0 288 0 c 2,6,-1
 170 0 l 2,7,8
 40 0 40 0 40 158 c 2,9,-1
 40 768 l 1,10,-1
 274 768 l 1,11,-1
 274 256 l 2,12,13
 274 218 274 218 274 220 c 1,14,15
 278 200 278 200 302 200 c 0,16,17
 340 200 340 200 438 292 c 1,18,-1
 438 768 l 1,19,-1
 728 768 l 1,20,-1
 728 222 l 1,21,-1
 1186 222 l 1,22,-1
 1186 768 l 1,23,-1
 1458 768 l 1,24,-1
 1458 -10 l 1,0,-1
EndSplineSet
EndChar

StartChar: tm_ra
Encoding: 2992 2992 74
Width: 1038
GlyphClass: 2
Flags: W
LayerCount: 2
Fore
SplineSet
1014 768 m 1,0,1
 1014 684 1014 684 972 616 c 0,2,3
 924 542 924 542 848 542 c 2,4,-1
 786 542 l 1,5,-1
 786 -36 l 2,6,7
 786 -148 786 -148 724 -222 c 128,-1,8
 662 -296 662 -296 570 -296 c 2,9,-1
 178 -296 l 1,10,11
 184 -242 184 -242 236 -176 c 0,12,13
 296 -100 296 -100 362 -100 c 2,14,-1
 440 -100 l 2,15,16
 508 -100 508 -100 508 -8 c 2,17,-1
 508 542 l 1,18,-1
 338 542 l 2,19,20
 260 542 260 542 260 454 c 2,21,-1
 260 0 l 1,22,-1
 30 0 l 1,23,-1
 30 462 l 2,24,25
 30 586 30 586 98 672 c 0,26,27
 174 768 174 768 306 768 c 2,28,-1
 1014 768 l 1,0,1
EndSplineSet
EndChar

StartChar: tm_rra
Encoding: 2993 2993 75
Width: 1268
GlyphClass: 2
Flags: W
LayerCount: 2
Fore
SplineSet
1228 16 m 2,0,1
 1228 -130 1228 -130 1160 -230 c 0,2,3
 1082 -342 1082 -342 942 -342 c 2,4,-1
 -70 -342 l 1,5,6
 -68 -226 -68 -226 30 -160 c 0,7,8
 102 -110 102 -110 164 -110 c 2,9,-1
 828 -110 l 2,10,11
 958 -110 958 -110 958 36 c 2,12,-1
 958 448 l 2,13,14
 958 542 958 542 878 542 c 2,15,-1
 780 542 l 2,16,17
 726 542 726 542 726 492 c 2,18,-1
 726 0 l 1,19,-1
 444 0 l 1,20,-1
 444 488 l 2,21,22
 444 542 444 542 386 542 c 2,23,-1
 312 542 l 2,24,25
 264 542 264 542 264 474 c 2,26,-1
 264 0 l 1,27,-1
 40 0 l 1,28,-1
 40 508 l 2,29,30
 40 622 40 622 102 695 c 128,-1,31
 164 768 164 768 272 768 c 2,32,-1
 474 768 l 2,33,34
 566 768 566 768 592 688 c 1,35,36
 602 716 602 716 635 742 c 128,-1,37
 668 768 668 768 716 768 c 2,38,-1
 968 768 l 2,39,40
 1084 768 1084 768 1156 689 c 128,-1,41
 1228 610 1228 610 1228 474 c 2,42,-1
 1228 16 l 2,0,1
EndSplineSet
EndChar

StartChar: tm_la
Encoding: 2994 2994 76
Width: 1356
GlyphClass: 2
Flags: W
LayerCount: 2
Fore
SplineSet
1326 308 m 2,0,1
 1326 176 1326 176 1249 88 c 128,-1,2
 1172 0 1172 0 1072 0 c 2,3,-1
 852 0 l 2,4,5
 752 0 752 0 674 94 c 0,6,7
 606 174 606 174 606 242 c 2,8,-1
 606 454 l 2,9,10
 606 554 606 554 512 554 c 2,11,-1
 388 554 l 2,12,13
 306 554 306 554 306 454 c 2,14,-1
 306 242 l 2,15,16
 306 214 306 214 328 214 c 256,17,18
 350 214 350 214 350 254 c 2,19,-1
 350 356 l 1,20,-1
 520 356 l 1,21,22
 574 316 574 316 574 232 c 0,23,24
 574 160 574 160 532 88 c 0,25,26
 480 0 480 0 398 0 c 2,27,-1
 272 0 l 2,28,29
 192 0 192 0 116 70 c 0,30,31
 30 148 30 148 30 248 c 2,32,-1
 30 484 l 2,33,34
 30 590 30 590 112 679 c 128,-1,35
 194 768 194 768 306 768 c 2,36,-1
 622 768 l 2,37,38
 724 768 724 768 804 682 c 0,39,40
 878 602 878 602 878 516 c 2,41,-1
 878 274 l 2,42,43
 878 226 878 226 928 226 c 2,44,-1
 986 226 l 2,45,46
 1034 226 1034 226 1034 302 c 2,47,-1
 1034 470 l 2,48,49
 1034 532 1034 532 980 532 c 2,50,-1
 914 532 l 1,51,-1
 914 768 l 1,52,-1
 1066 768 l 2,53,54
 1168 768 1168 768 1247 678 c 128,-1,55
 1326 588 1326 588 1326 478 c 2,56,-1
 1326 308 l 2,0,1
EndSplineSet
EndChar

StartChar: tm_lla
Encoding: 2995 2995 77
Width: 1704
GlyphClass: 2
Flags: W
LayerCount: 2
Fore
SplineSet
1680 768 m 1,0,1
 1678 678 1678 678 1620 611 c 128,-1,2
 1562 544 1562 544 1492 544 c 2,3,-1
 1412 544 l 1,4,-1
 1412 0 l 1,5,-1
 1112 0 l 1,6,-1
 1112 544 l 1,7,-1
 1066 544 l 2,8,9
 1002 544 1002 544 1002 464 c 2,10,-1
 1002 0 l 1,11,-1
 702 0 l 1,12,-1
 702 452 l 2,13,14
 702 534 702 534 614 534 c 2,15,-1
 400 534 l 2,16,17
 316 534 316 534 316 446 c 2,18,-1
 316 232 l 2,19,20
 316 188 316 188 344 188 c 0,21,22
 370 188 370 188 370 224 c 2,23,-1
 370 350 l 1,24,-1
 584 350 l 1,25,26
 620 314 620 314 620 228 c 0,27,28
 620 136 620 136 552 68 c 128,-1,29
 484 0 484 0 402 0 c 2,30,-1
 326 0 l 2,31,32
 206 0 206 0 118 76 c 128,-1,33
 30 152 30 152 30 256 c 2,34,-1
 30 454 l 2,35,36
 30 592 30 592 120 680 c 128,-1,37
 210 768 210 768 346 768 c 2,38,-1
 678 768 l 2,39,40
 730 768 730 768 780 739 c 128,-1,41
 830 710 830 710 850 672 c 1,42,43
 882 768 882 768 1000 768 c 2,44,-1
 1680 768 l 1,0,1
EndSplineSet
EndChar

StartChar: tm_llla
Encoding: 2996 2996 78
Width: 1276
GlyphClass: 2
Flags: W
LayerCount: 2
Fore
SplineSet
1246 376 m 0,0,1
 1246 216 1246 216 1155 108 c 128,-1,2
 1064 0 1064 0 918 0 c 2,3,-1
 784 0 l 1,4,5
 800 -66 800 -66 862 -66 c 2,6,-1
 962 -66 l 1,7,-1
 962 -246 l 1,8,-1
 818 -246 l 2,9,10
 768 -246 768 -246 738 -220 c 1,11,12
 728 -276 728 -276 645 -316 c 128,-1,13
 562 -356 562 -356 450 -356 c 2,14,-1
 22 -356 l 1,15,16
 16 -266 16 -266 87 -187 c 128,-1,17
 158 -108 158 -108 250 -108 c 2,18,-1
 444 -108 l 2,19,20
 524 -108 524 -108 562 -72 c 1,21,22
 536 -52 536 -52 524 0 c 1,23,-1
 40 0 l 1,24,-1
 40 768 l 1,25,-1
 340 768 l 1,26,-1
 340 244 l 1,27,-1
 508 244 l 1,28,-1
 508 768 l 1,29,-1
 892 768 l 2,30,31
 1068 768 1068 768 1162 652 c 0,32,33
 1246 548 1246 548 1246 376 c 0,0,1
972 328 m 2,34,-1
 972 436 l 2,35,36
 972 526 972 526 882 526 c 2,37,-1
 800 526 l 1,38,-1
 800 238 l 1,39,-1
 892 238 l 2,40,41
 972 238 972 238 972 328 c 2,34,-1
EndSplineSet
EndChar

StartChar: tm_va
Encoding: 2997 2997 79
Width: 1388
GlyphClass: 2
Flags: W
LayerCount: 2
Fore
SplineSet
1348 0 m 1,0,-1
 616 0 l 1,1,-1
 616 220 l 1,2,3
 678 248 678 248 678 312 c 2,4,-1
 678 454 l 2,5,6
 678 546 678 546 604 546 c 2,7,-1
 404 546 l 2,8,9
 310 546 310 546 310 458 c 2,10,-1
 310 266 l 2,11,12
 310 238 310 238 334 238 c 0,13,14
 354 238 354 238 354 276 c 2,15,-1
 354 364 l 1,16,-1
 544 364 l 1,17,18
 560 358 560 358 576 316 c 128,-1,19
 592 274 592 274 592 236 c 0,20,21
 592 142 592 142 536 71 c 128,-1,22
 480 0 480 0 394 0 c 2,23,-1
 272 0 l 2,24,25
 194 0 194 0 116 72 c 0,26,27
 30 150 30 150 30 250 c 2,28,-1
 30 482 l 2,29,30
 30 588 30 588 113 678 c 128,-1,31
 196 768 196 768 306 768 c 2,32,-1
 674 768 l 2,33,34
 796 768 796 768 880 694 c 128,-1,35
 964 620 964 620 964 528 c 2,36,-1
 964 358 l 2,37,38
 964 314 964 314 940 276 c 128,-1,39
 916 238 916 238 878 230 c 1,40,-1
 1070 230 l 1,41,-1
 1070 768 l 1,42,-1
 1348 768 l 1,43,-1
 1348 0 l 1,0,-1
EndSplineSet
EndChar

StartChar: tm_ssa
Encoding: 2999 2999 80
Width: 2244
GlyphClass: 2
Flags: W
LayerCount: 2
Fore
SplineSet
2220 0 m 1,0,-1
 1850 0 l 1,1,2
 1742 -176 1742 -176 1582 -176 c 0,3,4
 1564 -176 1564 -176 1546 -174 c 1,5,-1
 1646 0 l 1,6,-1
 1088 0 l 1,7,-1
 1140 108 l 1,8,-1
 1140 210 l 2,9,10
 1140 284 1140 284 1062 284 c 0,11,12
 988 284 988 284 930 234 c 1,13,-1
 930 144 l 2,14,15
 930 98 930 98 898 49 c 128,-1,16
 866 0 866 0 830 0 c 2,17,-1
 632 0 l 1,18,-1
 632 218 l 1,19,20
 688 208 688 208 688 284 c 2,21,-1
 688 444 l 2,22,23
 688 508 688 508 677 526 c 128,-1,24
 666 544 666 544 618 544 c 2,25,-1
 404 544 l 2,26,27
 362 544 362 544 346 522 c 128,-1,28
 330 500 330 500 330 438 c 2,29,-1
 330 266 l 2,30,31
 330 224 330 224 350 224 c 0,32,33
 376 224 376 224 376 264 c 2,34,-1
 376 374 l 1,35,-1
 576 374 l 1,36,37
 618 368 618 368 618 298 c 2,38,-1
 618 230 l 2,39,40
 618 134 618 134 554 64 c 0,41,42
 498 0 498 0 436 0 c 2,43,-1
 290 0 l 2,44,45
 190 0 190 0 110 77 c 128,-1,46
 30 154 30 154 30 274 c 2,47,-1
 30 462 l 2,48,49
 30 612 30 612 130 694 c 0,50,51
 220 768 220 768 366 768 c 2,52,-1
 720 768 l 2,53,54
 828 768 828 768 904 701 c 128,-1,55
 980 634 980 634 980 534 c 0,56,57
 980 500 980 500 970 466 c 1,58,59
 1020 484 1020 484 1118 484 c 0,60,61
 1252 484 1252 484 1312 440 c 0,62,63
 1394 376 1394 376 1382 210 c 1,64,-1
 1534 210 l 1,65,66
 1490 254 1490 254 1490 288 c 2,67,-1
 1490 434 l 2,68,69
 1490 504 1490 504 1548 562 c 0,70,71
 1612 628 1612 628 1708 628 c 2,72,-1
 1804 628 l 2,73,74
 1874 628 1874 628 1933 573 c 128,-1,75
 1992 518 1992 518 1992 444 c 2,76,-1
 1992 328 l 2,77,78
 1992 268 1992 268 1958 208 c 1,79,80
 1982 212 1982 212 2004 212 c 0,81,82
 2170 212 2170 212 2220 0 c 1,0,-1
1800 300 m 2,83,-1
 1800 416 l 2,84,85
 1800 462 1800 462 1738 462 c 0,86,87
 1716 462 1716 462 1696 450 c 128,-1,88
 1676 438 1676 438 1676 420 c 2,89,-1
 1676 272 l 2,90,91
 1676 248 1676 248 1758 202 c 1,92,93
 1800 264 1800 264 1800 300 c 2,83,-1
EndSplineSet
EndChar

StartChar: tm_sa
Encoding: 3000 3000 81
Width: 1968
GlyphClass: 2
Flags: W
LayerCount: 2
Fore
SplineSet
1938 246 m 2,0,1
 1938 176 1938 176 1872 98 c 0,2,3
 1792 0 1792 0 1668 0 c 2,4,-1
 1442 0 l 2,5,6
 1362 0 1362 0 1290 68 c 0,7,8
 1206 146 1206 146 1206 262 c 2,9,-1
 1206 456 l 2,10,11
 1206 490 1206 490 1182 519 c 128,-1,12
 1158 548 1158 548 1128 548 c 2,13,-1
 1060 548 l 2,14,15
 1026 548 1026 548 1009 521 c 128,-1,16
 992 494 992 494 992 470 c 2,17,-1
 992 0 l 1,18,-1
 698 0 l 1,19,-1
 698 470 l 2,20,21
 698 542 698 542 600 542 c 2,22,-1
 396 542 l 2,23,24
 312 542 312 542 312 436 c 2,25,-1
 312 220 l 2,26,27
 312 196 312 196 342 196 c 0,28,29
 366 196 366 196 366 238 c 2,30,-1
 366 356 l 1,31,-1
 578 356 l 1,32,33
 616 332 616 332 616 244 c 0,34,35
 616 150 616 150 550 75 c 128,-1,36
 484 0 484 0 406 0 c 2,37,-1
 324 0 l 2,38,39
 202 0 202 0 116 82 c 128,-1,40
 30 164 30 164 30 270 c 2,41,-1
 30 466 l 2,42,43
 30 600 30 600 119 684 c 128,-1,44
 208 768 208 768 344 768 c 2,45,-1
 676 768 l 2,46,47
 728 768 728 768 776 743 c 128,-1,48
 824 718 824 718 844 682 c 1,49,50
 880 732 880 732 912 750 c 128,-1,51
 944 768 944 768 1004 768 c 2,52,-1
 1200 768 l 2,53,54
 1316 768 1316 768 1398 683 c 128,-1,55
 1480 598 1480 598 1480 480 c 2,56,-1
 1480 278 l 2,57,58
 1480 216 1480 216 1542 218 c 2,59,-1
 1592 220 l 2,60,61
 1642 222 1642 222 1642 298 c 2,62,-1
 1642 472 l 2,63,64
 1642 536 1642 536 1592 536 c 2,65,-1
 1514 536 l 1,66,-1
 1514 768 l 1,67,-1
 1652 768 l 2,68,69
 1776 768 1776 768 1857 687 c 128,-1,70
 1938 606 1938 606 1938 464 c 2,71,-1
 1938 246 l 2,0,1
EndSplineSet
EndChar

StartChar: tm_ha
Encoding: 3001 3001 82
Width: 2264
GlyphClass: 2
Flags: W
LayerCount: 2
Fore
SplineSet
2224 -26 m 2,0,1
 2224 -130 2224 -130 2144 -218 c 0,2,3
 2054 -320 2054 -320 1914 -320 c 2,4,-1
 1044 -320 l 1,5,6
 1070 -98 1070 -98 1248 -98 c 2,7,-1
 1828 -98 l 2,8,9
 1954 -98 1954 -98 1954 46 c 2,10,-1
 1954 462 l 2,11,12
 1954 548 1954 548 1878 548 c 2,13,-1
 1782 548 l 2,14,15
 1728 548 1728 548 1728 492 c 2,16,-1
 1728 0 l 1,17,-1
 1448 0 l 1,18,-1
 1448 486 l 2,19,20
 1448 542 1448 542 1394 542 c 2,21,-1
 1322 542 l 2,22,23
 1272 542 1272 542 1272 474 c 2,24,-1
 1272 0 l 1,25,-1
 610 0 l 1,26,-1
 610 206 l 1,27,28
 668 238 668 238 668 296 c 2,29,-1
 668 432 l 2,30,31
 668 528 668 528 592 528 c 2,32,-1
 402 528 l 2,33,34
 304 528 304 528 304 438 c 2,35,-1
 304 248 l 2,36,37
 304 220 304 220 330 220 c 0,38,39
 354 220 354 220 354 260 c 2,40,-1
 354 342 l 1,41,-1
 540 342 l 2,42,43
 554 340 554 340 569 296 c 128,-1,44
 584 252 584 252 584 214 c 0,45,46
 584 120 584 120 528 60 c 128,-1,47
 472 0 472 0 384 0 c 2,48,-1
 270 0 l 2,49,50
 190 0 190 0 114 66 c 0,51,52
 30 138 30 138 30 238 c 2,53,-1
 30 462 l 2,54,55
 30 568 30 568 111 653 c 128,-1,56
 192 738 192 738 300 738 c 2,57,-1
 682 738 l 2,58,59
 944 738 944 738 944 510 c 2,60,-1
 944 342 l 2,61,62
 944 244 944 244 866 230 c 1,63,-1
 1054 230 l 1,64,-1
 1054 532 l 2,65,66
 1054 618 1054 618 1117 693 c 128,-1,67
 1180 768 1180 768 1280 768 c 2,68,-1
 1478 768 l 2,69,70
 1560 768 1560 768 1592 686 c 1,71,72
 1624 768 1624 768 1742 768 c 2,73,-1
 1964 768 l 2,74,75
 2084 768 2084 768 2154 689 c 128,-1,76
 2224 610 2224 610 2224 474 c 2,77,-1
 2224 -26 l 2,0,1
EndSplineSet
EndChar

StartChar: tm_aakaar
Encoding: 3006 3006 83
Width: 1032
GlyphClass: 2
Flags: W
LayerCount: 2
Fore
SplineSet
1008 768 m 1,0,1
 1014 676 1014 676 963 609 c 128,-1,2
 912 542 912 542 832 542 c 2,3,-1
 780 542 l 1,4,-1
 780 0 l 1,5,-1
 502 0 l 1,6,-1
 502 542 l 1,7,-1
 332 542 l 2,8,9
 258 542 258 542 258 450 c 2,10,-1
 258 0 l 1,11,-1
 30 0 l 1,12,-1
 30 460 l 2,13,14
 30 590 30 590 107 679 c 128,-1,15
 184 768 184 768 296 768 c 2,16,-1
 1008 768 l 1,0,1
EndSplineSet
EndChar

StartChar: tm_ikaar
Encoding: 3007 3007 84
Width: 836
GlyphClass: 2
Flags: W
LayerCount: 2
Fore
SplineSet
568 768 m 1,0,1
 544 782 544 782 544 840 c 2,2,-1
 544 932 l 2,3,4
 544 998 544 998 582 1035 c 128,-1,5
 620 1072 620 1072 678 1072 c 2,6,-1
 1088 1072 l 1,7,8
 1086 990 1086 990 1038 926 c 0,9,10
 984 856 984 856 910 856 c 2,11,-1
 800 856 l 1,12,13
 760 840 760 840 760 802 c 0,14,15
 760 768 760 768 790 768 c 2,16,-1
 568 768 l 1,0,1
EndSplineSet
EndChar

StartChar: tm_iikaar
Encoding: 3008 3008 85
Width: 890
GlyphClass: 4
Flags: W
LayerCount: 2
Fore
SplineSet
570 768 m 1,0,1
 542 794 542 794 542 850 c 2,2,-1
 542 964 l 2,3,4
 542 1108 542 1108 736 1108 c 2,5,-1
 950 1108 l 2,6,7
 1078 1108 1078 1108 1078 982 c 2,8,-1
 1078 910 l 2,9,10
 1078 806 1078 806 874 806 c 2,11,-1
 754 806 l 1,12,13
 746 838 746 838 769 871 c 128,-1,14
 792 904 792 904 826 904 c 2,15,-1
 872 904 l 2,16,17
 898 904 898 904 898 928 c 0,18,19
 898 946 898 946 878 946 c 2,20,-1
 800 946 l 2,21,22
 726 946 726 946 726 896 c 2,23,-1
 726 820 l 2,24,25
 726 768 726 768 798 768 c 2,26,-1
 570 768 l 1,0,1
EndSplineSet
EndChar

StartChar: tm_ekaar
Encoding: 3014 3014 88
Width: 1034
GlyphClass: 2
Flags: W
LayerCount: 2
Fore
SplineSet
994 0 m 1,0,-1
 708 0 l 1,1,-1
 708 652 l 2,2,3
 708 716 708 716 684 742 c 128,-1,4
 660 768 660 768 602 768 c 2,5,-1
 432 768 l 2,6,7
 330 768 330 768 330 660 c 2,8,-1
 330 254 l 2,9,10
 330 216 330 216 358 216 c 0,11,12
 384 216 384 216 384 252 c 2,13,-1
 384 486 l 1,14,-1
 598 486 l 1,15,16
 622 478 622 478 640 439 c 128,-1,17
 658 400 658 400 658 364 c 2,18,-1
 658 224 l 2,19,20
 658 120 658 120 570 56 c 0,21,22
 496 0 496 0 408 0 c 2,23,-1
 308 0 l 2,24,25
 202 0 202 0 120 68 c 0,26,27
 30 142 30 142 30 260 c 2,28,-1
 30 608 l 2,29,30
 30 796 30 796 148 914 c 128,-1,31
 266 1032 266 1032 436 1032 c 2,32,-1
 620 1032 l 2,33,34
 762 1032 762 1032 870 930 c 0,35,36
 994 814 994 814 994 622 c 2,37,-1
 994 0 l 1,0,-1
EndSplineSet
EndChar

StartChar: tm_eekaar
Encoding: 3015 3015 89
Width: 960
GlyphClass: 2
Flags: W
LayerCount: 2
Fore
SplineSet
930 302 m 0,0,1
 930 164 930 164 857 82 c 128,-1,2
 784 0 784 0 662 0 c 2,3,-1
 378 0 l 2,4,5
 228 0 228 0 124 124 c 0,6,7
 30 232 30 232 30 352 c 2,8,-1
 30 636 l 2,9,10
 30 794 30 794 142 906 c 0,11,12
 250 1012 250 1012 390 1012 c 2,13,-1
 628 1012 l 2,14,15
 766 1012 766 1012 852 922 c 0,16,17
 928 840 928 840 928 730 c 0,18,19
 928 514 928 514 672 514 c 0,20,21
 572 514 572 514 516 559 c 128,-1,22
 460 604 460 604 460 672 c 0,23,24
 460 716 460 716 486 768 c 1,25,-1
 386 768 l 2,26,27
 312 768 312 768 312 658 c 2,28,-1
 312 334 l 2,29,30
 312 242 312 242 444 242 c 0,31,32
 464 242 464 242 482 244 c 1,33,34
 462 264 462 264 462 308 c 0,35,36
 462 502 462 502 696 502 c 256,37,38
 930 502 930 502 930 302 c 0,0,1
736 722 m 2,39,-1
 736 742 l 2,40,41
 736 778 736 778 690 778 c 0,42,43
 652 778 652 778 652 750 c 2,44,-1
 652 728 l 2,45,46
 652 694 652 694 692 694 c 0,47,48
 736 694 736 694 736 722 c 2,39,-1
734 254 m 2,49,-1
 734 282 l 2,50,51
 734 316 734 316 684 316 c 0,52,53
 646 316 646 316 646 284 c 2,54,-1
 646 258 l 2,55,56
 646 224 646 224 688 224 c 0,57,58
 734 224 734 224 734 254 c 2,49,-1
EndSplineSet
EndChar

StartChar: tm_aikaar
Encoding: 3016 3016 90
Width: 1602
GlyphClass: 2
Flags: W
LayerCount: 2
Fore
SplineSet
1572 232 m 2,0,1
 1572 160 1572 160 1534 88 c 0,2,3
 1502 24 1502 24 1466 0 c 1,4,-1
 1200 0 l 1,5,6
 1236 26 1236 26 1266 82 c 0,7,8
 1304 156 1304 156 1304 242 c 2,9,-1
 1304 472 l 2,10,11
 1304 548 1304 548 1236 548 c 2,12,-1
 1178 548 l 1,13,14
 1218 512 1218 512 1218 466 c 2,15,-1
 1218 228 l 2,16,17
 1218 140 1218 140 1155 70 c 128,-1,18
 1092 0 1092 0 1008 0 c 2,19,-1
 794 0 l 2,20,21
 728 0 728 0 666 70 c 128,-1,22
 604 140 604 140 604 232 c 2,23,-1
 604 438 l 2,24,25
 604 508 604 508 648 538 c 1,26,-1
 390 538 l 2,27,28
 344 538 344 538 328 519 c 128,-1,29
 312 500 312 500 312 452 c 2,30,-1
 312 228 l 2,31,32
 312 210 312 210 332 210 c 0,33,34
 354 210 354 210 354 242 c 2,35,-1
 354 352 l 1,36,-1
 546 352 l 1,37,38
 580 318 580 318 580 228 c 0,39,40
 580 134 580 134 527 67 c 128,-1,41
 474 0 474 0 394 0 c 2,42,-1
 278 0 l 2,43,44
 180 0 180 0 110 66 c 0,45,46
 30 142 30 142 30 276 c 2,47,-1
 30 460 l 2,48,49
 30 602 30 602 124 690 c 0,50,51
 208 768 208 768 322 768 c 2,52,-1
 756 768 l 2,53,54
 810 768 810 768 860 746 c 128,-1,55
 910 724 910 724 920 690 c 1,56,57
 954 732 954 732 964 740 c 0,58,59
 1000 768 1000 768 1058 768 c 2,60,-1
 1308 768 l 2,61,62
 1412 768 1412 768 1492 685 c 128,-1,63
 1572 602 1572 602 1572 502 c 2,64,-1
 1572 232 l 2,0,1
946 236 m 2,65,-1
 946 506 l 2,66,67
 946 548 946 548 918 548 c 0,68,69
 882 548 882 548 882 502 c 2,70,-1
 882 240 l 2,71,72
 882 194 882 194 916 194 c 0,73,74
 946 194 946 194 946 236 c 2,65,-1
EndSplineSet
EndChar

StartChar: tm_halant
Encoding: 3021 3021 94
Width: 339
GlyphClass: 4
Flags: W
LayerCount: 2
Fore
SplineSet
223 1149 m 0,0,1
 157 1149 157 1149 109.5 1196.5 c 128,-1,2
 62 1244 62 1244 62 1310 c 0,3,4
 62 1378 62 1378 109.5 1424.5 c 128,-1,5
 157 1471 157 1471 223 1471 c 0,6,7
 290 1471 290 1471 337 1424.5 c 128,-1,8
 384 1378 384 1378 384 1310 c 0,9,10
 384 1244 384 1244 337 1196.5 c 128,-1,11
 290 1149 290 1149 223 1149 c 0,0,1
EndSplineSet
EndChar

StartChar: tm_two
Encoding: 3048 3048 97
Width: 1425
GlyphClass: 2
Flags: W
LayerCount: 2
Fore
SplineSet
1244 70 m 1,0,-1
 1226 0 l 1,1,-1
 586 0 l 2,2,3
 429 0 429 0 429 106 c 0,4,5
 429 153 429 153 478 181.5 c 128,-1,6
 527 210 527 210 586 210 c 2,7,-1
 779 210 l 2,8,9
 867 210 867 210 928 271.5 c 128,-1,10
 989 333 989 333 989 420 c 0,11,12
 989 500 989 500 945 560.5 c 128,-1,13
 901 621 901 621 831 621 c 0,14,15
 793 621 793 621 744 595 c 1,16,17
 814 555 814 555 814 437 c 0,18,19
 814 382 814 382 772.5 344.5 c 128,-1,20
 731 307 731 307 675 307 c 0,21,22
 618 307 618 307 580 351 c 128,-1,23
 542 395 542 395 542 455 c 0,24,25
 542 565 542 565 646.5 632.5 c 128,-1,26
 751 700 751 700 884 700 c 0,27,28
 987 700 987 700 1058 629 c 128,-1,29
 1129 558 1129 558 1129 455 c 0,30,31
 1129 321 1129 321 1025.5 230.5 c 128,-1,32
 922 140 922 140 779 140 c 2,33,-1
 595 140 l 2,34,35
 551 140 551 140 551 106 c 0,36,37
 551 70 551 70 604 70 c 2,38,-1
 1244 70 l 1,0,-1
675 560 m 1,39,40
 621 516 621 516 621 473 c 0,41,42
 621 386 621 386 666 386 c 0,43,44
 709 386 709 386 709 473 c 0,45,46
 709 518 709 518 675 560 c 1,39,40
EndSplineSet
EndChar

StartChar: tm_three
Encoding: 3049 3049 98
Width: 1424
GlyphClass: 2
Flags: W
LayerCount: 2
Fore
SplineSet
1270 70 m 1,0,-1
 1252 0 l 1,1,-1
 640 0 l 1,2,-1
 657 70 l 1,3,-1
 780 70 l 2,4,5
 874 70 874 70 941 130.5 c 128,-1,6
 1008 191 1008 191 1008 280 c 0,7,8
 1008 317 1008 317 982.5 342.5 c 128,-1,9
 957 368 957 368 920 368 c 0,10,11
 890 368 890 368 865 341 c 128,-1,12
 840 314 840 314 833 280 c 2,13,-1
 815 193 l 1,14,-1
 675 193 l 1,15,-1
 764 630 l 1,16,-1
 571 630 l 1,17,-1
 444 0 l 1,18,-1
 378 0 l 1,19,-1
 517 700 l 1,20,-1
 1095 700 l 1,21,-1
 1077 630 l 1,22,-1
 902 630 l 1,23,-1
 859 403 l 1,24,25
 918 455 918 455 990 455 c 0,26,27
 1057 455 1057 455 1102.5 403.5 c 128,-1,28
 1148 352 1148 352 1148 280 c 0,29,30
 1148 209 1148 209 1090 151 c 128,-1,31
 1032 93 1032 93 947 70 c 1,32,-1
 1270 70 l 1,0,-1
EndSplineSet
EndChar

StartChar: tm_four
Encoding: 3050 3050 99
Width: 1427
GlyphClass: 2
Flags: W
LayerCount: 2
Fore
SplineSet
915 316 m 1,0,-1
 644 316 l 2,1,2
 601 316 601 316 570.5 291 c 128,-1,3
 540 266 540 266 540 228 c 0,4,5
 540 158 540 158 609.5 114 c 128,-1,6
 679 70 679 70 766 70 c 0,7,8
 811 70 811 70 844 99.5 c 128,-1,9
 877 129 877 129 887 175 c 2,10,-1
 915 316 l 1,0,-1
979 630 m 1,11,-1
 784 630 l 1,12,-1
 735 386 l 1,13,-1
 930 386 l 1,14,-1
 979 630 l 1,11,-1
1042 245 m 2,15,16
 1017 125 1017 125 940 62.5 c 128,-1,17
 863 0 863 0 766 0 c 0,18,19
 651 0 651 0 559.5 64 c 128,-1,20
 468 128 468 128 468 228 c 0,21,22
 468 294 468 294 520.5 340 c 128,-1,23
 573 386 573 386 644 386 c 2,24,-1
 669 386 l 1,25,-1
 731 700 l 1,26,-1
 1344 700 l 1,27,-1
 1329 630 l 1,28,-1
 1118 630 l 1,29,-1
 1068 386 l 1,30,-1
 1232 386 l 1,31,-1
 1248 464 l 1,32,-1
 1309 464 l 1,33,-1
 1279 316 l 1,34,-1
 1055 316 l 1,35,-1
 1042 245 l 2,15,16
EndSplineSet
EndChar

StartChar: tm_five
Encoding: 3051 3051 100
Width: 1424
GlyphClass: 2
Flags: W
LayerCount: 2
Fore
SplineSet
1412 517 m 1,0,-1
 1359 526 l 1,1,2
 1369 563 1369 563 1369 598 c 0,3,4
 1369 723 1369 723 1253.5 825.5 c 128,-1,5
 1138 928 1138 928 965 928 c 0,6,7
 728 928 728 928 575.5 716 c 128,-1,8
 423 504 423 504 423 228 c 0,9,10
 423 -43 423 -43 515 -179.5 c 128,-1,11
 607 -316 607 -316 790 -316 c 0,12,13
 979 -316 979 -316 1103.5 -163.5 c 128,-1,14
 1228 -11 1228 -11 1228 193 c 0,15,16
 1228 257 1228 257 1200 304.5 c 128,-1,17
 1172 352 1172 352 1126 352 c 0,18,19
 1099 352 1099 352 1072.5 336.5 c 128,-1,20
 1046 321 1046 321 1039 298 c 2,21,-1
 980 0 l 1,22,-1
 840 0 l 1,23,-1
 965 630 l 1,24,-1
 759 630 l 1,25,-1
 634 0 l 1,26,-1
 566 0 l 1,27,-1
 706 700 l 1,28,-1
 1237 700 l 1,29,-1
 1219 630 l 1,30,-1
 1105 630 l 1,31,-1
 1057 386 l 1,32,33
 1101 437 1101 437 1171 437 c 0,34,35
 1261 437 1261 437 1314.5 368.5 c 128,-1,36
 1368 300 1368 300 1368 193 c 0,37,38
 1368 -47 1368 -47 1202.5 -216 c 128,-1,39
 1037 -385 1037 -385 799 -385 c 0,40,41
 589 -385 589 -385 471.5 -223 c 128,-1,42
 354 -61 354 -61 354 193 c 0,43,44
 354 513 354 513 519 764 c 128,-1,45
 684 1015 684 1015 948 1015 c 0,46,47
 1152 1015 1152 1015 1288.5 889.5 c 128,-1,48
 1425 764 1425 764 1425 613 c 0,49,50
 1425 566 1425 566 1412 517 c 1,0,-1
EndSplineSet
EndChar

StartChar: tm_six
Encoding: 3052 3052 101
Width: 1424
GlyphClass: 2
Flags: W
LayerCount: 2
Fore
SplineSet
784 316 m 1,0,-1
 513 316 l 2,1,2
 469 316 469 316 438 291 c 128,-1,3
 407 266 407 266 407 228 c 0,4,5
 407 158 407 158 477 114 c 128,-1,6
 547 70 547 70 635 70 c 0,7,8
 680 70 680 70 713 99.5 c 128,-1,9
 746 129 746 129 756 175 c 2,10,-1
 784 316 l 1,0,-1
846 630 m 1,11,-1
 653 630 l 1,12,-1
 603 386 l 1,13,-1
 798 386 l 1,14,-1
 846 630 l 1,11,-1
910 245 m 2,15,16
 884 125 884 125 808 62.5 c 128,-1,17
 732 0 732 0 635 0 c 0,18,19
 518 0 518 0 428 64 c 128,-1,20
 338 128 338 128 338 228 c 0,21,22
 338 294 338 294 389.5 340 c 128,-1,23
 441 386 441 386 513 386 c 2,24,-1
 537 386 l 1,25,-1
 600 700 l 1,26,-1
 1229 700 l 1,27,-1
 1213 630 l 1,28,-1
 988 630 l 1,29,-1
 938 386 l 1,30,-1
 1422 386 l 1,31,-1
 1410 316 l 1,32,-1
 1353 316 l 1,33,-1
 1291 0 l 1,34,-1
 1151 0 l 1,35,-1
 1213 316 l 1,36,-1
 1116 316 l 1,37,-1
 1055 0 l 1,38,-1
 967 0 l 1,39,-1
 1028 316 l 1,40,-1
 924 316 l 1,41,-1
 910 245 l 2,15,16
EndSplineSet
EndChar

StartChar: tm_seven
Encoding: 3053 3053 102
Width: 1425
GlyphClass: 2
Flags: W
LayerCount: 2
Fore
SplineSet
643 88 m 1,0,1
 706 88 706 88 753 128 c 128,-1,2
 800 168 800 168 800 228 c 0,3,4
 800 269 800 269 781 301 c 128,-1,5
 762 333 762 333 729 333 c 0,6,7
 684 333 684 333 654.5 296.5 c 128,-1,8
 625 260 625 260 625 210 c 0,9,10
 625 135 625 135 643 88 c 1,0,1
1042 0 m 1,11,-1
 1167 630 l 1,12,-1
 852 630 l 2,13,14
 704 630 704 630 594.5 540.5 c 128,-1,15
 485 451 485 451 485 316 c 0,16,17
 485 247 485 247 507 194.5 c 128,-1,18
 529 142 529 142 572 106 c 1,19,20
 555 135 555 135 555 228 c 256,21,22
 555 321 555 321 614.5 388 c 128,-1,23
 674 455 674 455 765 455 c 0,24,25
 837 455 837 455 884 398 c 128,-1,26
 931 341 931 341 931 263 c 0,27,28
 931 155 931 155 863 77.5 c 128,-1,29
 795 0 795 0 695 0 c 0,30,31
 576 0 576 0 495.5 94 c 128,-1,32
 415 188 415 188 415 316 c 0,33,34
 415 481 415 481 545.5 590.5 c 128,-1,35
 676 700 676 700 852 700 c 2,36,-1
 1430 700 l 1,37,-1
 1412 630 l 1,38,-1
 1307 630 l 1,39,-1
 1181 0 l 1,40,-1
 1042 0 l 1,11,-1
EndSplineSet
EndChar

StartChar: tm_eight
Encoding: 3054 3054 103
Width: 1427
GlyphClass: 2
Flags: W
LayerCount: 2
Fore
SplineSet
849 629 m 1,0,1
 745 611 745 611 670 548.5 c 128,-1,2
 595 486 595 486 595 402 c 0,3,4
 595 338 595 338 638.5 291 c 128,-1,5
 682 244 682 244 744 244 c 0,6,7
 817 244 817 244 864 307.5 c 128,-1,8
 911 371 911 371 911 454 c 0,9,10
 911 580 911 580 849 629 c 1,0,1
1024 140 m 1,11,-1
 411 140 l 2,12,13
 381 140 381 140 357 125 c 128,-1,14
 333 110 333 110 333 87 c 0,15,16
 333 43 333 43 412 -13.5 c 128,-1,17
 491 -70 491 -70 639 -70 c 0,18,19
 743 -70 743 -70 839.5 -18 c 128,-1,20
 936 34 936 34 1024 140 c 1,11,-1
1414 -245 m 1,21,-1
 1269 -245 l 1,22,-1
 1348 140 l 1,23,-1
 1164 140 l 1,24,25
 1051 4 1051 4 915 -63.5 c 128,-1,26
 779 -131 779 -131 621 -131 c 0,27,28
 421 -131 421 -131 311.5 -52.5 c 128,-1,29
 202 26 202 26 202 123 c 0,30,31
 202 160 202 160 233 184.5 c 128,-1,32
 264 209 264 209 307 209 c 2,33,-1
 666 209 l 1,34,35
 604 231 604 231 565 284.5 c 128,-1,36
 526 338 526 338 526 402 c 0,37,38
 526 534 526 534 652 617 c 128,-1,39
 778 700 778 700 937 700 c 0,40,41
 1069 700 1069 700 1169 620.5 c 128,-1,42
 1269 541 1269 541 1269 420 c 0,43,44
 1269 306 1269 306 1213 209 c 1,45,-1
 1364 209 l 1,46,-1
 1463 700 l 1,47,-1
 1603 700 l 1,48,-1
 1414 -245 l 1,21,-1
989 620 m 1,49,50
 1042 530 1042 530 1042 411 c 0,51,52
 1042 267 1042 267 919 209 c 1,53,-1
 1077 209 l 1,54,55
 1146 308 1146 308 1146 402 c 0,56,57
 1146 486 1146 486 1103 553 c 128,-1,58
 1060 620 1060 620 989 620 c 1,49,50
EndSplineSet
EndChar

StartChar: tm_nine
Encoding: 3055 3055 104
Width: 1427
GlyphClass: 2
Flags: W
LayerCount: 2
Fore
SplineSet
692 316 m 1,0,-1
 422 316 l 2,1,2
 379 316 379 316 348 291 c 128,-1,3
 317 266 317 266 317 228 c 0,4,5
 317 158 317 158 387 114 c 128,-1,6
 457 70 457 70 544 70 c 0,7,8
 589 70 589 70 622 99.5 c 128,-1,9
 655 129 655 129 665 175 c 2,10,-1
 692 316 l 1,0,-1
756 630 m 1,11,-1
 562 630 l 1,12,-1
 513 386 l 1,13,-1
 707 386 l 1,14,-1
 756 630 l 1,11,-1
1157 175 m 0,15,16
 1157 259 1157 259 1052 298 c 1,17,18
 982 240 982 240 982 158 c 0,19,20
 982 121 982 121 1007.5 95.5 c 128,-1,21
 1033 70 1033 70 1068 70 c 0,22,23
 1107 70 1107 70 1132 101.5 c 128,-1,24
 1157 133 1157 133 1157 175 c 0,15,16
1297 0 m 1,25,26
 1375 93 1375 93 1375 193 c 0,27,28
 1375 263 1375 263 1332.5 315.5 c 128,-1,29
 1290 368 1290 368 1226 368 c 0,30,31
 1163 368 1163 368 1113 342 c 1,32,33
 1167 322 1167 322 1201 276.5 c 128,-1,34
 1235 231 1235 231 1235 175 c 0,35,36
 1235 104 1235 104 1187 52 c 128,-1,37
 1139 0 1139 0 1068 0 c 0,38,39
 1005 0 1005 0 958.5 46.5 c 128,-1,40
 912 93 912 93 912 158 c 0,41,42
 912 257 912 257 982 316 c 1,43,-1
 833 316 l 1,44,-1
 819 245 l 2,45,46
 795 125 795 125 718.5 62.5 c 128,-1,47
 642 0 642 0 544 0 c 0,48,49
 428 0 428 0 337 64 c 128,-1,50
 246 128 246 128 246 228 c 0,51,52
 246 294 246 294 299 340 c 128,-1,53
 352 386 352 386 422 386 c 2,54,-1
 446 386 l 1,55,-1
 508 700 l 1,56,-1
 1122 700 l 1,57,-1
 1104 630 l 1,58,-1
 896 630 l 1,59,-1
 847 386 l 1,60,-1
 947 386 l 2,61,62
 1014 386 1014 386 1052 368 c 1,63,64
 1111 420 1111 420 1226 420 c 0,65,66
 1327 420 1327 420 1399.5 354.5 c 128,-1,67
 1472 289 1472 289 1472 193 c 0,68,69
 1472 109 1472 109 1410 0 c 1,70,-1
 1297 0 l 1,25,26
EndSplineSet
EndChar

StartChar: tm_ten
Encoding: 3056 3056 105
Width: 1260
GlyphClass: 2
Flags: W
LayerCount: 2
Fore
SplineSet
597 149 m 1,0,1
 558 74 558 74 508 37 c 128,-1,2
 458 0 458 0 395 0 c 0,3,4
 302 0 302 0 242 64 c 128,-1,5
 182 128 182 128 182 200 c 0,6,7
 182 224 182 224 186 244 c 2,8,-1
 279 700 l 1,9,-1
 419 700 l 1,10,-1
 325 244 l 2,11,12
 320 223 320 223 320 205 c 0,13,14
 320 155 320 155 346.5 112.5 c 128,-1,15
 373 70 373 70 413 70 c 0,16,17
 472 70 472 70 525 146 c 128,-1,18
 578 222 578 222 606 359 c 2,19,-1
 675 700 l 1,20,-1
 815 700 l 1,21,-1
 746 351 l 2,22,23
 728 262 728 262 728 204 c 0,24,25
 728 150 728 150 760.5 110 c 128,-1,26
 793 70 793 70 841 70 c 0,27,28
 957 70 957 70 1026 204 c 128,-1,29
 1095 338 1095 338 1095 500 c 0,30,31
 1095 691 1095 691 995.5 840 c 128,-1,32
 896 989 896 989 737 989 c 1,33,-1
 755 1042 l 1,34,35
 960 1042 960 1042 1097.5 880.5 c 128,-1,36
 1235 719 1235 719 1235 500 c 0,37,38
 1235 300 1235 300 1118.5 150 c 128,-1,39
 1002 0 1002 0 824 0 c 0,40,41
 739 0 739 0 673.5 40.5 c 128,-1,42
 608 81 608 81 597 149 c 1,0,1
EndSplineSet
EndChar

StartChar: tm_hundred
Encoding: 3057 3057 106
Width: 1166
GlyphClass: 2
Flags: W
LayerCount: 2
Fore
SplineSet
1284 700 m 1,0,-1
 1267 629 l 1,1,-1
 1117 629 l 1,2,-1
 991 0 l 1,3,-1
 851 0 l 1,4,-1
 977 629 l 1,5,-1
 770 629 l 1,6,-1
 644 0 l 1,7,-1
 504 0 l 1,8,-1
 599 472 l 2,9,10
 606 507 606 507 606 534 c 0,11,12
 606 579 606 579 589 613 c 128,-1,13
 572 647 572 647 540 647 c 0,14,15
 483 647 483 647 440 595.5 c 128,-1,16
 397 544 397 544 382 472 c 2,17,-1
 285 0 l 1,18,-1
 146 0 l 1,19,-1
 242 472 l 2,20,21
 263 577 263 577 336.5 647 c 128,-1,22
 410 717 410 717 503 717 c 0,23,24
 567 717 567 717 614 679.5 c 128,-1,25
 661 642 661 642 661 585 c 1,26,-1
 685 700 l 1,27,-1
 1284 700 l 1,0,-1
EndSplineSet
EndChar

StartChar: tm_thousand
Encoding: 3058 3058 107
Width: 1256
GlyphClass: 2
Flags: W
LayerCount: 2
Fore
SplineSet
551 316 m 1,0,-1
 280 316 l 2,1,2
 237 316 237 316 206 291 c 128,-1,3
 175 266 175 266 175 228 c 0,4,5
 175 158 175 158 245.5 114 c 128,-1,6
 316 70 316 70 402 70 c 0,7,8
 447 70 447 70 480 99.5 c 128,-1,9
 513 129 513 129 523 175 c 2,10,-1
 551 316 l 1,0,-1
615 630 m 1,11,-1
 420 630 l 1,12,-1
 371 386 l 1,13,-1
 565 386 l 1,14,-1
 615 630 l 1,11,-1
677 245 m 2,15,16
 653 125 653 125 576 62.5 c 128,-1,17
 499 0 499 0 402 0 c 0,18,19
 285 0 285 0 195 64 c 128,-1,20
 105 128 105 128 105 228 c 0,21,22
 105 294 105 294 156.5 340 c 128,-1,23
 208 386 208 386 280 386 c 2,24,-1
 304 386 l 1,25,-1
 367 700 l 1,26,-1
 997 700 l 1,27,-1
 983 630 l 1,28,-1
 755 630 l 1,29,-1
 705 386 l 1,30,-1
 1120 386 l 1,31,-1
 1105 316 l 1,32,-1
 971 316 l 1,33,-1
 945 175 l 1,34,35
 990 228 990 228 1067 228 c 0,36,37
 1134 228 1134 228 1179.5 176 c 128,-1,38
 1225 124 1225 124 1225 53 c 0,39,40
 1225 -78 1225 -78 1108 -161 c 128,-1,41
 991 -244 991 -244 840 -244 c 0,42,43
 740 -244 740 -244 542 -205 c 0,44,45
 346 -167 346 -167 244 -167 c 0,46,47
 181 -167 181 -167 134 -206.5 c 128,-1,48
 87 -246 87 -246 87 -307 c 0,49,50
 87 -384 87 -384 158 -411 c 1,51,-1
 149 -445 l 1,52,53
 82 -433 82 -433 36.5 -387 c 128,-1,54
 -9 -341 -9 -341 -9 -280 c 0,55,56
 -9 -205 -9 -205 70.5 -159.5 c 128,-1,57
 150 -114 150 -114 244 -114 c 0,58,59
 346 -114 346 -114 542 -153 c 0,60,61
 740 -192 740 -192 840 -192 c 0,62,63
 938 -192 938 -192 1011.5 -135 c 128,-1,64
 1085 -78 1085 -78 1085 9 c 0,65,66
 1085 61 1085 61 1061 100.5 c 128,-1,67
 1037 140 1037 140 997 140 c 256,68,69
 957 140 957 140 927 88 c 1,70,-1
 910 0 l 1,71,-1
 769 0 l 1,72,-1
 831 316 l 1,73,-1
 691 316 l 1,74,-1
 677 245 l 2,15,16
EndSplineSet
EndChar

StartChar: zerowidthnonjoiner
Encoding: 8204 8204 108
Width: 0
GlyphClass: 2
Flags: W
LayerCount: 2
Fore
SplineSet
315 1225 m 1,0,-1
 -34 -516 l 1,1,-1
 -103 -516 l 1,2,-1
 244 1225 l 1,3,-1
 315 1225 l 1,0,-1
EndSplineSet
EndChar

StartChar: zerowidthjoiner
Encoding: 8205 8205 109
Width: 0
GlyphClass: 2
Flags: W
LayerCount: 2
Fore
SplineSet
415 997 m 1,0,-1
 363 953 l 1,1,-1
 270 1073 l 1,2,-1
 -24 -441 l 1,3,-1
 -87 -441 l 1,4,-1
 206 1073 l 1,5,-1
 65 953 l 1,6,-1
 32 997 l 1,7,-1
 210 1145 l 1,8,-1
 89 1292 l 1,9,-1
 140 1334 l 1,10,-1
 260 1185 l 1,11,-1
 437 1334 l 1,12,-1
 472 1292 l 1,13,-1
 294 1145 l 1,14,-1
 415 997 l 1,0,-1
EndSplineSet
EndChar

StartChar: u2013
Encoding: 8211 8211 110
Width: 722
GlyphClass: 2
Flags: W
LayerCount: 2
Fore
SplineSet
733 319 m 1,0,-1
 -12 319 l 1,1,-1
 -12 370 l 1,2,-1
 733 370 l 1,3,-1
 733 319 l 1,0,-1
EndSplineSet
EndChar

StartChar: u2014
Encoding: 8212 8212 111
Width: 1284
GlyphClass: 2
Flags: W
LayerCount: 2
Fore
SplineSet
1296 318 m 1,0,-1
 -13 319 l 1,1,-1
 -13 371 l 1,2,-1
 1296 370 l 1,3,-1
 1296 318 l 1,0,-1
EndSplineSet
EndChar

StartChar: u2018
Encoding: 8216 8216 112
Width: 310
GlyphClass: 2
Flags: W
LayerCount: 2
Fore
SplineSet
280 790 m 0,0,1
 280 730 280 730 243 696 c 128,-1,2
 206 662 206 662 150 662 c 0,3,4
 100 662 100 662 65 702 c 128,-1,5
 30 742 30 742 30 794 c 0,6,7
 30 884 30 884 136 990 c 1,8,-1
 238 1006 l 1,9,-1
 184 910 l 1,10,11
 222 904 222 904 251 868 c 128,-1,12
 280 832 280 832 280 790 c 0,0,1
EndSplineSet
EndChar

StartChar: u2019
Encoding: 8217 8217 113
Width: 310
GlyphClass: 2
Flags: W
LayerCount: 2
Fore
SplineSet
280 886 m 0,0,1
 280 796 280 796 174 690 c 1,2,-1
 72 674 l 1,3,-1
 126 770 l 1,4,5
 88 776 88 776 59 812 c 128,-1,6
 30 848 30 848 30 890 c 0,7,8
 30 950 30 950 67 984 c 128,-1,9
 104 1018 104 1018 160 1018 c 0,10,11
 210 1018 210 1018 245 978 c 128,-1,12
 280 938 280 938 280 886 c 0,0,1
EndSplineSet
EndChar

StartChar: u201C
Encoding: 8220 8220 114
Width: 607
GlyphClass: 2
Flags: W
LayerCount: 2
Fore
SplineSet
280 790 m 0,0,1
 280 730 280 730 243 696 c 128,-1,2
 206 662 206 662 150 662 c 0,3,4
 100 662 100 662 65 702 c 128,-1,5
 30 742 30 742 30 794 c 0,6,7
 30 884 30 884 136 990 c 1,8,-1
 238 1006 l 1,9,-1
 184 910 l 1,10,11
 222 904 222 904 251 868 c 128,-1,12
 280 832 280 832 280 790 c 0,0,1
549 790 m 0,13,14
 549 730 549 730 512 696 c 128,-1,15
 475 662 475 662 419 662 c 0,16,17
 369 662 369 662 334 702 c 128,-1,18
 299 742 299 742 299 794 c 0,19,20
 299 884 299 884 405 990 c 1,21,-1
 507 1006 l 1,22,-1
 453 910 l 1,23,24
 491 904 491 904 520 868 c 128,-1,25
 549 832 549 832 549 790 c 0,13,14
EndSplineSet
EndChar

StartChar: u201D
Encoding: 8221 8221 115
Width: 607
GlyphClass: 2
Flags: W
LayerCount: 2
Fore
SplineSet
280 886 m 0,0,1
 280 796 280 796 174 690 c 1,2,-1
 72 674 l 1,3,-1
 126 770 l 1,4,5
 88 776 88 776 59 812 c 128,-1,6
 30 848 30 848 30 890 c 0,7,8
 30 950 30 950 67 984 c 128,-1,9
 104 1018 104 1018 160 1018 c 0,10,11
 210 1018 210 1018 245 978 c 128,-1,12
 280 938 280 938 280 886 c 0,0,1
560 886 m 0,13,14
 560 796 560 796 454 690 c 1,15,-1
 352 674 l 1,16,-1
 406 770 l 1,17,18
 368 776 368 776 339 812 c 128,-1,19
 310 848 310 848 310 890 c 0,20,21
 310 950 310 950 347 984 c 128,-1,22
 384 1018 384 1018 440 1018 c 0,23,24
 490 1018 490 1018 525 978 c 128,-1,25
 560 938 560 938 560 886 c 0,13,14
EndSplineSet
EndChar

StartChar: u2026
Encoding: 8230 8230 116
Width: 1283
GlyphClass: 2
Flags: W
LayerCount: 2
Fore
SplineSet
265 136 m 0,0,1
 298 136 298 136 320.5 114 c 128,-1,2
 343 92 343 92 343 58 c 0,3,4
 343 26 343 26 320.5 3 c 128,-1,5
 298 -20 298 -20 265 -20 c 0,6,7
 233 -20 233 -20 210 3 c 128,-1,8
 187 26 187 26 187 58 c 0,9,10
 187 92 187 92 210 114 c 128,-1,11
 233 136 233 136 265 136 c 0,0,1
638 136 m 256,12,13
 670 136 670 136 693 114 c 128,-1,14
 716 92 716 92 716 58 c 0,15,16
 716 26 716 26 692.5 3 c 128,-1,17
 669 -20 669 -20 638 -20 c 0,18,19
 606 -20 606 -20 583 3 c 128,-1,20
 560 26 560 26 560 58 c 0,21,22
 560 92 560 92 583 114 c 128,-1,23
 606 136 606 136 638 136 c 256,12,13
1010 136 m 0,24,25
 1043 136 1043 136 1066 114 c 128,-1,26
 1089 92 1089 92 1089 58 c 0,27,28
 1089 26 1089 26 1065.5 3 c 128,-1,29
 1042 -20 1042 -20 1010 -20 c 256,30,31
 978 -20 978 -20 955.5 3 c 128,-1,32
 933 26 933 26 933 58 c 0,33,34
 933 92 933 92 955.5 114 c 128,-1,35
 978 136 978 136 1010 136 c 0,24,25
EndSplineSet
EndChar

StartChar: u2212
Encoding: 8722 8722 117
Width: 974
GlyphClass: 2
Flags: W
LayerCount: 2
Fore
SplineSet
133 450 m 1,0,-1
 133 508 l 1,1,-1
 894 508 l 1,2,-1
 894 450 l 1,3,-1
 133 450 l 1,0,-1
EndSplineSet
EndChar

StartChar: u25CC
Encoding: 9676 9676 118
Width: 1167
GlyphClass: 2
Flags: W
LayerCount: 2
Fore
SplineSet
654 665 m 0,0,1
 626 665 626 665 612 679 c 128,-1,2
 598 693 598 693 598 724 c 0,3,4
 598 746 598 746 615 762.5 c 128,-1,5
 632 779 632 779 654 779 c 0,6,7
 683 779 683 779 697.5 765 c 128,-1,8
 712 751 712 751 712 724 c 0,9,10
 712 693 712 693 697.5 679 c 128,-1,11
 683 665 683 665 654 665 c 0,0,1
840 616 m 0,12,13
 811 616 811 616 796.5 630.5 c 128,-1,14
 782 645 782 645 782 674 c 0,15,16
 782 701 782 701 796.5 715 c 128,-1,17
 811 729 811 729 840 729 c 0,18,19
 862 729 862 729 879 713 c 128,-1,20
 896 697 896 697 896 674 c 0,21,22
 896 645 896 645 882 630.5 c 128,-1,23
 868 616 868 616 840 616 c 0,12,13
470 616 m 0,24,25
 442 616 442 616 428 630.5 c 128,-1,26
 414 645 414 645 414 674 c 0,27,28
 414 697 414 697 431 713 c 128,-1,29
 448 729 448 729 470 729 c 0,30,31
 494 729 494 729 510 713 c 128,-1,32
 526 697 526 697 526 674 c 0,33,34
 526 645 526 645 512.5 630.5 c 128,-1,35
 499 616 499 616 470 616 c 0,24,25
973 482 m 0,36,37
 951 482 951 482 933.5 498 c 128,-1,38
 916 514 916 514 916 538 c 0,39,40
 916 567 916 567 930.5 581 c 128,-1,41
 945 595 945 595 973 595 c 256,42,43
 1001 595 1001 595 1014.5 581 c 128,-1,44
 1028 567 1028 567 1028 538 c 0,45,46
 1028 514 1028 514 1012 498 c 128,-1,47
 996 482 996 482 973 482 c 0,36,37
336 482 m 0,48,49
 307 482 307 482 293 495.5 c 128,-1,50
 279 509 279 509 279 538 c 256,51,52
 279 567 279 567 293 581 c 128,-1,53
 307 595 307 595 336 595 c 0,54,55
 364 595 364 595 378 581 c 128,-1,56
 392 567 392 567 392 538 c 0,57,58
 392 514 392 514 375 498 c 128,-1,59
 358 482 358 482 336 482 c 0,48,49
1024 298 m 0,60,61
 994 298 994 298 979.5 311.5 c 128,-1,62
 965 325 965 325 965 354 c 0,63,64
 965 382 965 382 979.5 396 c 128,-1,65
 994 410 994 410 1024 410 c 0,66,67
 1046 410 1046 410 1063 393 c 128,-1,68
 1080 376 1080 376 1080 354 c 0,69,70
 1080 331 1080 331 1063 314.5 c 128,-1,71
 1046 298 1046 298 1024 298 c 0,60,61
287 298 m 0,72,73
 257 298 257 298 243 311.5 c 128,-1,74
 229 325 229 325 229 354 c 0,75,76
 229 382 229 382 243 396 c 128,-1,77
 257 410 257 410 287 410 c 0,78,79
 310 410 310 410 326.5 393 c 128,-1,80
 343 376 343 376 343 354 c 0,81,82
 343 331 343 331 326.5 314.5 c 128,-1,83
 310 298 310 298 287 298 c 0,72,73
973 112 m 256,84,85
 945 112 945 112 930.5 126.5 c 128,-1,86
 916 141 916 141 916 169 c 0,87,88
 916 193 916 193 933.5 209.5 c 128,-1,89
 951 226 951 226 973 226 c 0,90,91
 996 226 996 226 1012 209.5 c 128,-1,92
 1028 193 1028 193 1028 169 c 0,93,94
 1028 141 1028 141 1014.5 126.5 c 128,-1,95
 1001 112 1001 112 973 112 c 256,84,85
336 112 m 0,96,97
 307 112 307 112 293 126.5 c 128,-1,98
 279 141 279 141 279 169 c 0,99,100
 279 198 279 198 293 212 c 128,-1,101
 307 226 307 226 336 226 c 0,102,103
 358 226 358 226 375 209.5 c 128,-1,104
 392 193 392 193 392 169 c 0,105,106
 392 141 392 141 378 126.5 c 128,-1,107
 364 112 364 112 336 112 c 0,96,97
840 -22 m 0,108,109
 811 -22 811 -22 796.5 -8 c 128,-1,110
 782 6 782 6 782 34 c 0,111,112
 782 63 782 63 796.5 78 c 128,-1,113
 811 93 811 93 840 93 c 0,114,115
 863 93 863 93 879.5 75 c 128,-1,116
 896 57 896 57 896 34 c 256,117,118
 896 11 896 11 879 -5.5 c 128,-1,119
 862 -22 862 -22 840 -22 c 0,108,109
470 -22 m 0,120,121
 448 -22 448 -22 431 -5.5 c 128,-1,122
 414 11 414 11 414 34 c 256,123,124
 414 57 414 57 430.5 75 c 128,-1,125
 447 93 447 93 470 93 c 0,126,127
 495 93 495 93 510.5 75 c 128,-1,128
 526 57 526 57 526 34 c 256,129,130
 526 11 526 11 510 -5.5 c 128,-1,131
 494 -22 494 -22 470 -22 c 0,120,121
654 -72 m 0,132,133
 632 -72 632 -72 615 -55 c 128,-1,134
 598 -38 598 -38 598 -16 c 0,135,136
 598 14 598 14 612 28.5 c 128,-1,137
 626 43 626 43 654 43 c 0,138,139
 683 43 683 43 697.5 28.5 c 128,-1,140
 712 14 712 14 712 -16 c 0,141,142
 712 -44 712 -44 697.5 -58 c 128,-1,143
 683 -72 683 -72 654 -72 c 0,132,133
EndSplineSet
EndChar

StartChar: tm_k_ikaar
Encoding: 65539 -1 119
Width: 1208
GlyphClass: 2
Flags: W
LayerCount: 2
Fore
SplineSet
1178 198 m 2,0,1
 1178 142 1178 142 1152 82 c 128,-1,2
 1126 22 1126 22 1098 0 c 1,3,-1
 802 0 l 1,4,5
 898 96 898 96 898 158 c 2,6,-1
 898 228 l 2,7,8
 898 292 898 292 848 292 c 2,9,-1
 820 292 l 1,10,-1
 820 232 l 2,11,12
 820 132 820 132 736 66 c 128,-1,13
 652 0 652 0 542 0 c 2,14,-1
 266 0 l 2,15,16
 168 0 168 0 99 62 c 128,-1,17
 30 124 30 124 30 210 c 2,18,-1
 30 306 l 2,19,20
 30 380 30 380 71 433 c 128,-1,21
 112 486 112 486 184 486 c 1,22,23
 182 504 182 504 182 524 c 0,24,25
 182 618 182 618 234 688 c 0,26,27
 294 768 294 768 404 768 c 2,28,-1
 568 768 l 1,29,30
 544 782 544 782 544 840 c 2,31,-1
 544 932 l 2,32,33
 544 998 544 998 582 1035 c 128,-1,34
 620 1072 620 1072 678 1072 c 2,35,-1
 1088 1072 l 1,36,37
 1086 990 1086 990 1038 926 c 0,38,39
 984 856 984 856 910 856 c 2,40,-1
 800 856 l 1,41,42
 760 840 760 840 760 802 c 0,43,44
 760 768 760 768 790 768 c 2,45,-1
 1034 768 l 1,46,47
 1032 680 1032 680 981 617 c 128,-1,48
 930 554 930 554 852 554 c 2,49,-1
 818 554 l 1,50,-1
 818 486 l 1,51,-1
 950 486 l 2,52,53
 1042 486 1042 486 1110 424 c 128,-1,54
 1178 362 1178 362 1178 276 c 2,55,-1
 1178 198 l 2,0,1
528 486 m 1,56,-1
 528 544 l 1,57,-1
 440 544 l 1,58,-1
 414 528 l 1,59,-1
 414 486 l 1,60,-1
 528 486 l 1,56,-1
528 272 m 2,61,-1
 528 290 l 1,62,-1
 354 290 l 2,63,64
 308 290 308 290 308 254 c 2,65,-1
 308 232 l 2,66,67
 308 210 308 210 336 210 c 2,68,-1
 462 210 l 2,69,70
 488 210 488 210 508 229 c 128,-1,71
 528 248 528 248 528 272 c 2,61,-1
EndSplineSet
Ligature2: "'psts' Post Base Substitutions lookup 8 subtable" tm_ka tm_ikaar
EndChar

StartChar: tm_ng_ikaar
Encoding: 65540 -1 120
Width: 1586
GlyphClass: 2
Flags: W
LayerCount: 2
Fore
SplineSet
1528 1198 m 1,0,1
 1520 1124 1520 1124 1474 1064 c 0,2,3
 1412 982 1412 982 1308 982 c 2,4,-1
 1198 982 l 2,5,6
 1140 982 1140 982 1120 974 c 0,7,8
 1090 964 1090 964 1090 924 c 2,9,-1
 1090 812 l 2,10,11
 1090 760 1090 760 1176 770 c 1,12,-1
 1176 888 l 1,13,-1
 1452 888 l 1,14,-1
 1458 238 l 2,15,16
 1458 214 1458 214 1452 190 c 2,17,-1
 1431 138 l 1,18,19
 1414 108 1414 108 1386 80 c 0,20,21
 1306 0 1306 0 1190 0 c 2,22,-1
 452 0 l 1,23,24
 468 94 468 94 534 156 c 0,25,26
 592 212 592 212 652 212 c 2,27,-1
 826 212 l 1,28,-1
 826 230 l 2,29,30
 826 256 826 256 762 256 c 2,31,-1
 468 256 l 1,32,-1
 468 546 l 1,33,-1
 334 546 l 2,34,35
 288 546 288 546 272 532 c 0,36,37
 252 512 252 512 252 456 c 2,38,-1
 252 0 l 1,39,-1
 40 0 l 1,40,-1
 40 442 l 2,41,42
 40 768 40 768 378 768 c 2,43,-1
 900 768 l 1,44,-1
 900 756 l 1,45,-1
 900 986 l 2,46,47
 900 1070 900 1070 950 1130 c 0,48,49
 1008 1198 1008 1198 1106 1198 c 2,50,-1
 1528 1198 l 1,0,1
844 620 m 0,51,52
 789 553 789 553 735 550 c 2,53,-1
 736 550 l 1,54,-1
 736 490 l 1,55,-1
 914 490 l 2,56,57
 986 490 986 490 1044 438 c 128,-1,58
 1102 386 1102 386 1102 322 c 2,59,-1
 1102 212 l 1,60,61
 1190 212 1190 212 1190 310 c 2,62,-1
 1190 346 l 1,63,-1
 1188 594 l 1,64,-1
 1024 594 l 2,65,66
 972 594 972 594 936 633 c 128,-1,67
 900 672 900 672 900 722 c 2,68,-1
 900 756 l 2,69,70
 897 684 897 684 844 620 c 0,51,52
EndSplineSet
Ligature2: "'psts' Post Base Substitutions lookup 8 subtable" tm_nga tm_ikaar
EndChar

StartChar: tm_c_ikaar
Encoding: 65541 -1 121
Width: 1082
GlyphClass: 2
Flags: W
LayerCount: 2
Fore
SplineSet
1134 1066 m 1,0,1
 1122 988 1122 988 1072 930 c 0,2,3
 1012 860 1012 860 928 860 c 2,4,-1
 830 860 l 2,5,6
 772 860 772 860 772 814 c 0,7,8
 772 782 772 782 790 768 c 1,9,-1
 1060 768 l 1,10,11
 1048 686 1048 686 1004 626 c 0,12,13
 952 558 952 558 882 558 c 2,14,-1
 830 558 l 1,15,-1
 830 508 l 1,16,-1
 1052 508 l 1,17,18
 1046 430 1046 430 995 368 c 128,-1,19
 944 306 944 306 888 306 c 2,20,-1
 828 306 l 1,21,-1
 828 244 l 2,22,23
 828 144 828 144 754 72 c 128,-1,24
 680 0 680 0 566 0 c 2,25,-1
 294 0 l 2,26,27
 184 0 184 0 107 71 c 128,-1,28
 30 142 30 142 30 246 c 2,29,-1
 30 306 l 2,30,31
 30 384 30 384 74 442 c 0,32,33
 124 508 124 508 206 504 c 1,34,35
 202 526 202 526 202 546 c 0,36,37
 202 638 202 638 265 703 c 128,-1,38
 328 768 328 768 432 768 c 2,39,-1
 600 768 l 1,40,41
 576 798 576 798 576 834 c 2,42,-1
 576 926 l 2,43,44
 576 990 576 990 617 1028 c 128,-1,45
 658 1066 658 1066 718 1066 c 2,46,-1
 1134 1066 l 1,0,1
550 504 m 1,47,-1
 550 558 l 1,48,-1
 458 558 l 1,49,-1
 430 536 l 1,50,-1
 430 504 l 1,51,-1
 550 504 l 1,47,-1
544 296 m 1,52,-1
 370 296 l 2,53,54
 338 296 338 296 331 291 c 128,-1,55
 324 286 324 286 324 274 c 2,56,-1
 324 254 l 2,57,58
 324 234 324 234 358 234 c 2,59,-1
 496 234 l 2,60,61
 514 234 514 234 530 250 c 128,-1,62
 546 266 546 266 546 284 c 0,63,64
 546 290 546 290 544 296 c 1,52,-1
EndSplineSet
Ligature2: "'psts' Post Base Substitutions lookup 8 subtable" tm_ca tm_ikaar
EndChar

StartChar: tm_j_ikaar
Encoding: 65542 -1 122
Width: 1446
GlyphClass: 2
Flags: W
LayerCount: 2
Fore
SplineSet
1588 1066 m 1,0,1
 1566 870 1566 870 1404 870 c 2,2,-1
 1282 870 l 2,3,4
 1232 870 1232 870 1232 828 c 2,5,-1
 1232 774 l 1,6,7
 1320 738 1320 738 1370 668 c 0,8,9
 1414 606 1414 606 1414 538 c 2,10,-1
 1414 368 l 2,11,12
 1414 208 1414 208 1318 128 c 1,13,14
 1352 118 1352 118 1372 87 c 128,-1,15
 1392 56 1392 56 1392 30 c 2,16,-1
 1392 -54 l 2,17,18
 1392 -166 1392 -166 1302 -248 c 0,19,20
 1222 -318 1222 -318 1150 -318 c 2,21,-1
 800 -318 l 1,22,23
 804 -252 804 -252 861 -183 c 128,-1,24
 918 -114 918 -114 994 -114 c 2,25,-1
 1060 -114 l 2,26,27
 1088 -114 1088 -114 1107 -89 c 128,-1,28
 1126 -64 1126 -64 1126 -40 c 0,29,30
 1126 12 1126 12 1052 12 c 2,31,-1
 978 12 l 2,32,33
 946 12 946 12 892 -74 c 0,34,35
 810 -208 810 -208 790 -232 c 0,36,37
 720 -318 720 -318 650 -318 c 2,38,-1
 292 -318 l 2,39,40
 202 -318 202 -318 117 -248 c 128,-1,41
 32 -178 32 -178 32 -100 c 2,42,-1
 32 -18 l 2,43,44
 32 66 32 66 96 136 c 0,45,46
 170 216 170 216 286 216 c 2,47,-1
 1036 216 l 2,48,49
 1140 216 1140 216 1140 328 c 2,50,-1
 1140 510 l 2,51,52
 1140 600 1140 600 1044 600 c 2,53,-1
 954 600 l 2,54,55
 886 600 886 600 886 518 c 2,56,-1
 886 248 l 1,57,-1
 618 248 l 1,58,-1
 618 532 l 2,59,60
 618 600 618 600 550 600 c 2,61,-1
 346 600 l 2,62,63
 288 600 288 600 288 542 c 2,64,-1
 288 456 l 2,65,66
 288 430 288 430 310 430 c 0,67,68
 328 430 328 430 328 456 c 2,69,-1
 328 558 l 1,70,-1
 522 558 l 2,71,72
 572 558 572 558 572 498 c 2,73,-1
 572 454 l 2,74,75
 572 380 572 380 510 320 c 128,-1,76
 448 260 448 260 372 260 c 2,77,-1
 242 260 l 2,78,79
 166 260 166 260 102 322 c 0,80,81
 32 388 32 388 32 470 c 2,82,-1
 32 566 l 2,83,84
 32 660 32 660 100 728 c 0,85,86
 178 804 178 804 300 804 c 2,87,-1
 580 804 l 2,88,89
 690 804 690 804 756 720 c 1,90,91
 792 772 792 772 796 774 c 0,92,93
 826 804 826 804 874 804 c 2,94,-1
 1072 804 l 1,95,96
 1052 830 1052 830 1052 842 c 2,97,-1
 1052 926 l 2,98,99
 1052 1066 1052 1066 1188 1066 c 2,100,-1
 1588 1066 l 1,0,1
678 18 m 1,101,-1
 400 18 l 2,102,103
 310 18 310 18 310 -34 c 2,104,-1
 310 -58 l 2,105,106
 310 -104 310 -104 370 -104 c 2,107,-1
 540 -104 l 2,108,109
 570 -104 570 -104 600 -56 c 0,110,111
 638 2 638 2 678 18 c 1,101,-1
EndSplineSet
Ligature2: "'psts' Post Base Substitutions lookup 8 subtable" tm_ja tm_ikaar
EndChar

StartChar: tm_ny_ikaar
Encoding: 65543 -1 123
Width: 1386
GlyphClass: 2
Flags: W
LayerCount: 2
Fore
SplineSet
1326 -16 m 2,0,1
 1326 -140 1326 -140 1235 -226 c 128,-1,2
 1144 -312 1144 -312 1016 -312 c 2,3,-1
 74 -312 l 1,4,5
 104 -86 104 -86 310 -86 c 2,6,-1
 1006 -86 l 2,7,8
 1098 -86 1098 -86 1098 0 c 2,9,-1
 1098 70 l 2,10,11
 1098 132 1098 132 1042 132 c 0,12,13
 1014 132 1014 132 1004 114 c 1,14,-1
 1004 0 l 1,15,-1
 716 0 l 1,16,-1
 716 536 l 1,17,-1
 418 536 l 2,18,19
 314 536 314 536 314 436 c 2,20,-1
 314 240 l 2,21,22
 314 214 314 214 338 214 c 0,23,24
 360 214 360 214 360 250 c 2,25,-1
 360 370 l 1,26,-1
 594 370 l 1,27,28
 632 330 632 330 632 244 c 0,29,30
 632 122 632 122 566 56 c 0,31,32
 510 0 510 0 426 0 c 2,33,-1
 282 0 l 2,34,35
 180 0 180 0 105 81 c 128,-1,36
 30 162 30 162 30 274 c 2,37,-1
 30 444 l 2,38,39
 30 576 30 576 110 668 c 0,40,41
 198 768 198 768 344 768 c 2,42,-1
 820 768 l 1,43,44
 796 798 796 798 796 834 c 2,45,-1
 796 926 l 2,46,47
 796 990 796 990 837 1028 c 128,-1,48
 878 1066 878 1066 938 1066 c 2,49,-1
 1354 1066 l 1,50,51
 1342 988 1342 988 1292 930 c 0,52,53
 1232 860 1232 860 1148 860 c 2,54,-1
 1050 860 l 2,55,56
 992 860 992 860 992 814 c 0,57,58
 992 782 992 782 1010 768 c 1,59,-1
 1236 768 l 1,60,61
 1214 562 1214 562 1066 536 c 1,62,-1
 1010 536 l 1,63,-1
 1010 356 l 1,64,-1
 1086 356 l 2,65,66
 1176 356 1176 356 1248 298 c 0,67,68
 1326 234 1326 234 1326 142 c 2,69,-1
 1326 -16 l 2,0,1
EndSplineSet
Ligature2: "'psts' Post Base Substitutions lookup 8 subtable" tm_nya tm_ikaar
EndChar

StartChar: tm_tt_ikaar
Encoding: 65544 -1 124
Width: 1162
GlyphClass: 2
Flags: W
LayerCount: 2
Fore
SplineSet
1140 0 m 1,0,-1
 778 0 l 1,1,-1
 730 -112 l 1,2,3
 664 -230 664 -230 494 -232 c 1,4,-1
 576 0 l 1,5,-1
 40 0 l 1,6,-1
 40 768 l 1,7,-1
 332 768 l 1,8,-1
 332 234 l 1,9,-1
 456 234 l 1,10,11
 434 264 434 264 434 324 c 2,12,-1
 434 432 l 2,13,14
 434 632 434 632 614 632 c 2,15,-1
 766 632 l 2,16,17
 824 632 824 632 870 580 c 128,-1,18
 916 528 916 528 916 438 c 0,19,20
 916 384 916 384 898 326 c 0,21,22
 882 282 882 282 866 238 c 1,23,24
 954 246 954 246 1034 177 c 128,-1,25
 1114 108 1114 108 1140 0 c 1,0,-1
730 406 m 0,26,27
 730 450 730 450 696 450 c 2,28,-1
 662 450 l 2,29,30
 620 450 620 450 620 396 c 2,31,-1
 620 294 l 2,32,33
 620 256 620 256 640 240 c 1,34,-1
 666 240 l 1,35,36
 680 262 680 262 706 332 c 0,37,38
 730 396 730 396 730 406 c 0,26,27
EndSplineSet
Ligature2: "'psts' Post Base Substitutions lookup 8 subtable" tm_tta tm_ikaar
EndChar

StartChar: tm_nn_ikaar
Encoding: 65545 -1 125
Width: 2546
GlyphClass: 2
Flags: W
LayerCount: 2
Fore
SplineSet
2566 1078 m 1,0,1
 2552 994 2552 994 2504 938 c 0,2,3
 2442 864 2442 864 2346 864 c 2,4,-1
 2292 864 l 2,5,6
 2232 864 2232 864 2232 818 c 0,7,8
 2232 786 2232 786 2248 768 c 1,9,-1
 2522 768 l 1,10,11
 2518 706 2518 706 2478 640 c 0,12,13
 2424 544 2424 544 2340 544 c 0,14,15
 2320 544 2320 544 2300 550 c 1,16,-1
 2300 0 l 1,17,-1
 2002 0 l 1,18,-1
 2002 476 l 2,19,20
 2002 548 2002 548 1946 548 c 2,21,-1
 1890 548 l 1,22,23
 1924 520 1924 520 1924 474 c 2,24,-1
 1924 268 l 2,25,26
 1924 158 1924 158 1868 86 c 0,27,28
 1804 0 1804 0 1682 0 c 2,29,-1
 1526 0 l 2,30,31
 1450 0 1450 0 1384 50 c 0,32,33
 1296 116 1296 116 1296 232 c 2,34,-1
 1296 450 l 2,35,36
 1296 504 1296 504 1332 544 c 1,37,-1
 1232 544 l 1,38,39
 1250 506 1250 506 1250 468 c 2,40,-1
 1250 264 l 2,41,42
 1250 152 1250 152 1185 76 c 128,-1,43
 1120 0 1120 0 1012 0 c 2,44,-1
 848 0 l 2,45,46
 768 0 768 0 702 60 c 0,47,48
 622 130 622 130 622 248 c 2,49,-1
 622 430 l 2,50,51
 622 510 622 510 666 548 c 1,52,-1
 402 548 l 2,53,54
 348 548 348 548 334 527 c 128,-1,55
 320 506 320 506 320 450 c 2,56,-1
 320 258 l 2,57,58
 320 220 320 220 338 220 c 0,59,60
 358 220 358 220 358 256 c 2,61,-1
 358 354 l 1,62,-1
 540 354 l 1,63,64
 592 326 592 326 592 222 c 0,65,66
 592 130 592 130 537 65 c 128,-1,67
 482 0 482 0 406 0 c 2,68,-1
 268 0 l 2,69,70
 196 0 196 0 122 66 c 0,71,72
 30 148 30 148 30 274 c 2,73,-1
 30 446 l 2,74,75
 30 588 30 588 117 678 c 128,-1,76
 204 768 204 768 328 768 c 2,77,-1
 770 768 l 2,78,79
 924 768 924 768 944 696 c 1,80,81
 970 718 970 718 998 740 c 0,82,83
 1040 768 1040 768 1094 768 c 2,84,-1
 1502 768 l 2,85,86
 1570 768 1570 768 1634 704 c 1,87,88
 1688 768 1688 768 1782 768 c 2,89,-1
 2056 768 l 1,90,91
 2028 786 2028 786 2028 838 c 2,92,-1
 2028 932 l 2,93,94
 2028 1078 2028 1078 2168 1078 c 2,95,-1
 2566 1078 l 1,0,1
1644 262 m 2,96,-1
 1644 504 l 2,97,98
 1644 548 1644 548 1618 548 c 0,99,100
 1582 548 1582 548 1582 498 c 2,101,-1
 1582 258 l 2,102,103
 1582 210 1582 210 1610 210 c 0,104,105
 1644 210 1644 210 1644 262 c 2,96,-1
968 256 m 2,106,-1
 968 502 l 2,107,108
 968 546 968 546 936 546 c 0,109,110
 902 546 902 546 902 500 c 2,111,-1
 902 248 l 2,112,113
 902 210 902 210 934 210 c 0,114,115
 968 210 968 210 968 256 c 2,106,-1
EndSplineSet
Ligature2: "'psts' Post Base Substitutions lookup 8 subtable" tm_nna tm_ikaar
EndChar

StartChar: tm_t_ikaar
Encoding: 65546 -1 126
Width: 1214
GlyphClass: 2
Flags: W
LayerCount: 2
Fore
SplineSet
1184 64 m 2,0,1
 1184 -118 1184 -118 1074 -220 c 0,2,3
 978 -312 978 -312 838 -312 c 2,4,-1
 22 -312 l 1,5,6
 64 -104 64 -104 244 -104 c 2,7,-1
 762 -104 l 2,8,9
 830 -104 830 -104 865 -59 c 128,-1,10
 900 -14 900 -14 900 54 c 2,11,-1
 900 230 l 2,12,13
 900 298 900 298 854 298 c 2,14,-1
 824 298 l 1,15,-1
 824 244 l 2,16,17
 824 144 824 144 742 72 c 128,-1,18
 660 0 660 0 546 0 c 2,19,-1
 266 0 l 2,20,21
 166 0 166 0 98 61 c 128,-1,22
 30 122 30 122 30 224 c 2,23,-1
 30 316 l 2,24,25
 30 376 30 376 68 426 c 0,26,27
 110 486 110 486 182 484 c 1,28,29
 170 580 170 580 222 666 c 0,30,31
 286 768 286 768 406 768 c 2,32,-1
 568 768 l 1,33,34
 542 808 542 808 542 868 c 2,35,-1
 542 926 l 2,36,37
 542 1074 542 1074 680 1074 c 2,38,-1
 1088 1074 l 1,39,40
 1056 858 1056 858 880 858 c 2,41,-1
 828 858 l 2,42,43
 762 858 762 858 762 810 c 0,44,45
 762 782 762 782 770 768 c 1,46,-1
 1036 768 l 1,47,48
 1036 702 1036 702 992 634 c 0,49,50
 938 554 938 554 856 554 c 2,51,-1
 818 554 l 1,52,-1
 818 494 l 1,53,-1
 952 494 l 2,54,55
 1042 494 1042 494 1113 429 c 128,-1,56
 1184 364 1184 364 1184 286 c 2,57,-1
 1184 64 l 2,0,1
530 486 m 1,58,-1
 530 540 l 1,59,-1
 452 540 l 2,60,61
 410 540 410 540 410 510 c 2,62,-1
 410 486 l 1,63,-1
 530 486 l 1,58,-1
526 288 m 1,64,-1
 366 288 l 2,65,66
 310 288 310 288 310 252 c 2,67,-1
 310 230 l 2,68,69
 310 208 310 208 366 208 c 2,70,-1
 470 208 l 2,71,72
 492 208 492 208 511 229 c 128,-1,73
 530 250 530 250 530 272 c 0,74,75
 530 282 530 282 526 288 c 1,64,-1
EndSplineSet
Ligature2: "'psts' Post Base Substitutions lookup 8 subtable" tm_ta tm_ikaar
EndChar

StartChar: tm_n_ikaar
Encoding: 65547 -1 127
Width: 1146
GlyphClass: 2
Flags: W
LayerCount: 2
Fore
SplineSet
1116 28 m 2,0,1
 1116 -138 1116 -138 1021 -232 c 128,-1,2
 926 -326 926 -326 756 -326 c 2,3,-1
 -96 -326 l 1,4,5
 -74 -100 -74 -100 120 -100 c 2,6,-1
 672 -100 l 2,7,8
 764 -100 764 -100 797 -71 c 128,-1,9
 830 -42 830 -42 830 32 c 2,10,-1
 830 196 l 2,11,12
 830 260 830 260 760 260 c 2,13,-1
 734 260 l 1,14,-1
 734 0 l 1,15,-1
 454 0 l 1,16,-1
 454 550 l 1,17,-1
 344 550 l 2,18,19
 260 550 260 550 260 458 c 2,20,-1
 260 0 l 1,21,-1
 30 0 l 1,22,-1
 30 474 l 2,23,24
 30 768 30 768 306 768 c 2,25,-1
 502 768 l 1,26,27
 494 792 494 792 494 828 c 2,28,-1
 494 910 l 2,29,30
 494 984 494 984 529 1029 c 128,-1,31
 564 1074 564 1074 622 1074 c 2,32,-1
 1012 1074 l 1,33,34
 1004 1000 1004 1000 968 948 c 0,35,36
 916 872 916 872 824 872 c 2,37,-1
 740 872 l 2,38,39
 676 872 676 872 676 814 c 0,40,41
 676 796 676 796 688 768 c 1,42,-1
 966 768 l 1,43,44
 958 696 958 696 906 626 c 0,45,46
 850 550 850 550 788 550 c 2,47,-1
 734 550 l 1,48,-1
 734 488 l 1,49,-1
 860 488 l 2,50,51
 982 488 982 488 1054 412 c 0,52,53
 1116 346 1116 346 1116 258 c 2,54,-1
 1116 28 l 2,0,1
EndSplineSet
Ligature2: "'psts' Post Base Substitutions lookup 8 subtable" tm_na tm_ikaar
EndChar

StartChar: tm_nnn_ikaar
Encoding: 65548 -1 128
Width: 1850
GlyphClass: 2
Flags: W
LayerCount: 2
Fore
SplineSet
1840 1060 m 1,0,1
 1794 856 1794 856 1618 856 c 2,2,-1
 1540 856 l 2,3,4
 1484 856 1484 856 1484 810 c 2,5,-1
 1484 768 l 1,6,-1
 1828 768 l 1,7,8
 1820 692 1820 692 1780 636 c 0,9,10
 1724 554 1724 554 1618 554 c 0,11,12
 1594 554 1594 554 1566 558 c 1,13,-1
 1566 0 l 1,14,-1
 1288 0 l 1,15,-1
 1288 550 l 1,16,-1
 1150 550 l 1,17,18
 1200 518 1200 518 1200 448 c 2,19,-1
 1200 258 l 2,20,21
 1200 150 1200 150 1140 75 c 128,-1,22
 1080 0 1080 0 984 0 c 2,23,-1
 794 0 l 2,24,25
 728 0 728 0 668 60 c 0,26,27
 594 130 594 130 594 242 c 2,28,-1
 594 436 l 2,29,30
 594 506 594 506 636 532 c 1,31,-1
 376 532 l 2,32,33
 304 532 304 532 304 460 c 2,34,-1
 304 242 l 2,35,36
 304 206 304 206 326 206 c 0,37,38
 350 206 350 206 350 242 c 2,39,-1
 350 346 l 1,40,-1
 528 346 l 2,41,42
 548 346 548 346 561 308 c 128,-1,43
 574 270 574 270 574 232 c 0,44,45
 574 140 574 140 525 70 c 128,-1,46
 476 0 476 0 406 0 c 2,47,-1
 250 0 l 2,48,49
 178 0 178 0 112 64 c 0,50,51
 30 144 30 144 30 278 c 2,52,-1
 30 468 l 2,53,54
 30 582 30 582 116 675 c 128,-1,55
 202 768 202 768 308 768 c 2,56,-1
 750 768 l 2,57,58
 816 768 816 768 854 738 c 0,59,60
 856 738 856 738 904 686 c 1,61,62
 942 736 942 736 946 738 c 0,63,64
 986 768 986 768 1070 768 c 2,65,-1
 1328 768 l 1,66,67
 1298 786 1298 786 1298 828 c 2,68,-1
 1298 918 l 2,69,70
 1298 1060 1298 1060 1446 1060 c 2,71,-1
 1840 1060 l 1,0,1
932 240 m 2,72,-1
 932 506 l 2,73,74
 932 546 932 546 900 546 c 0,75,76
 870 546 870 546 870 498 c 2,77,-1
 870 240 l 2,78,79
 870 200 870 200 900 200 c 0,80,81
 932 200 932 200 932 240 c 2,72,-1
EndSplineSet
Ligature2: "'psts' Post Base Substitutions lookup 8 subtable" tm_nnna tm_ikaar
EndChar

StartChar: tm_p_ikaar
Encoding: 65549 -1 129
Width: 1092
GlyphClass: 2
Flags: W
LayerCount: 2
Fore
SplineSet
1128 1078 m 1,0,1
 1120 1004 1120 1004 1074 944 c 0,2,3
 1012 862 1012 862 908 862 c 2,4,-1
 798 862 l 2,5,6
 740 862 740 862 720 854 c 0,7,8
 690 844 690 844 690 804 c 2,9,-1
 690 692 l 2,10,11
 690 640 690 640 776 650 c 1,12,-1
 776 768 l 1,13,-1
 1052 768 l 1,14,-1
 1052 0 l 1,15,-1
 40 0 l 1,16,-1
 40 768 l 1,17,-1
 324 768 l 1,18,-1
 324 238 l 1,19,-1
 776 238 l 1,20,-1
 776 474 l 1,21,-1
 624 474 l 2,22,23
 572 474 572 474 536 513 c 128,-1,24
 500 552 500 552 500 602 c 2,25,-1
 500 866 l 2,26,27
 500 950 500 950 550 1010 c 0,28,29
 608 1078 608 1078 706 1078 c 2,30,-1
 1128 1078 l 1,0,1
EndSplineSet
Ligature2: "'psts' Post Base Substitutions lookup 8 subtable" tm_pa tm_ikaar
EndChar

StartChar: tm_m_ikaar
Encoding: 65550 -1 130
Width: 1270
GlyphClass: 2
Flags: W
LayerCount: 2
Fore
SplineSet
1268 1082 m 1,0,1
 1262 1006 1262 1006 1224 950 c 0,2,3
 1170 870 1170 870 1072 870 c 2,4,-1
 988 870 l 2,5,6
 924 870 924 870 924 814 c 0,7,8
 924 774 924 774 934 768 c 1,9,10
 1086 750 1086 750 1166 640 c 0,11,12
 1240 538 1240 538 1240 378 c 0,13,14
 1240 220 1240 220 1148 110 c 128,-1,15
 1056 0 1056 0 924 0 c 2,16,-1
 40 0 l 1,17,-1
 40 768 l 1,18,-1
 340 768 l 1,19,-1
 340 242 l 1,20,-1
 504 242 l 1,21,-1
 504 768 l 1,22,-1
 754 768 l 1,23,24
 738 794 738 794 738 854 c 2,25,-1
 738 930 l 2,26,27
 738 1000 738 1000 780 1041 c 128,-1,28
 822 1082 822 1082 890 1082 c 2,29,-1
 1268 1082 l 1,0,1
966 330 m 2,30,-1
 966 436 l 2,31,32
 966 528 966 528 892 528 c 2,33,-1
 792 528 l 1,34,-1
 792 240 l 1,35,-1
 888 240 l 2,36,37
 966 240 966 240 966 330 c 2,30,-1
EndSplineSet
Ligature2: "'psts' Post Base Substitutions lookup 8 subtable" tm_ma tm_ikaar
EndChar

StartChar: tm_y_ikaar
Encoding: 65551 -1 131
Width: 1520
GlyphClass: 2
Flags: W
LayerCount: 2
Fore
SplineSet
1552 1082 m 1,0,1
 1566 1024 1566 1024 1512 950 c 0,2,3
 1450 866 1450 866 1352 866 c 2,4,-1
 1218 866 l 2,5,6
 1144 866 1144 866 1126 838 c 0,7,8
 1114 820 1114 820 1114 774 c 2,9,-1
 1114 684 l 2,10,11
 1114 638 1114 638 1198 648 c 1,12,-1
 1198 768 l 1,13,-1
 1480 768 l 1,14,-1
 1480 -10 l 1,15,-1
 438 -10 l 1,16,-1
 438 92 l 1,17,18
 422 56 422 56 375 28 c 128,-1,19
 328 0 328 0 280 0 c 2,20,-1
 172 0 l 2,21,22
 40 0 40 0 40 160 c 2,23,-1
 40 768 l 1,24,-1
 280 768 l 1,25,-1
 280 240 l 2,26,27
 280 204 280 204 308 204 c 0,28,29
 330 204 330 204 438 296 c 1,30,-1
 438 768 l 1,31,-1
 736 768 l 1,32,-1
 736 228 l 1,33,-1
 1198 228 l 1,34,-1
 1198 460 l 1,35,-1
 1072 460 l 2,36,37
 992 460 992 460 950 502 c 0,38,39
 914 538 914 538 914 592 c 2,40,-1
 914 806 l 2,41,42
 914 1082 914 1082 1124 1082 c 2,43,-1
 1552 1082 l 1,0,1
EndSplineSet
Ligature2: "'psts' Post Base Substitutions lookup 8 subtable" tm_ya tm_ikaar
EndChar

StartChar: tm_r_ikaar
Encoding: 65552 -1 132
Width: 1036
GlyphClass: 2
Flags: W
LayerCount: 2
Fore
SplineSet
1088 1082 m 1,0,1
 1080 1010 1080 1010 1032 950 c 0,2,3
 968 870 968 870 862 870 c 2,4,-1
 772 870 l 2,5,6
 708 870 708 870 708 810 c 0,7,8
 708 790 708 790 720 768 c 1,9,-1
 1014 768 l 1,10,11
 1019 703 1019 703 986 642 c 0,12,13
 980 629 980 629 972 616 c 0,14,15
 925 544 925 544 852 542 c 2,16,-1
 848 542 l 1,17,-1
 786 542 l 1,18,-1
 786 -36 l 2,19,20
 786 -148 786 -148 724 -222 c 128,-1,21
 662 -296 662 -296 570 -296 c 2,22,-1
 178 -296 l 1,23,24
 184 -242 184 -242 236 -176 c 0,25,26
 296 -100 296 -100 362 -100 c 2,27,-1
 440 -100 l 2,28,29
 508 -100 508 -100 508 -8 c 2,30,-1
 508 0 l 1,31,-1
 502 0 l 1,32,-1
 502 542 l 1,33,-1
 343 542 l 2,34,35
 298 540 298 540 275 515 c 0,36,37
 260 493 260 493 260 454 c 2,38,-1
 260 0 l 1,39,-1
 30 0 l 1,40,-1
 30 462 l 2,41,42
 30 586 30 586 98 672 c 0,43,44
 104 679 104 679 110 686 c 0,45,46
 181 768 181 768 278 768 c 2,47,-1
 526 768 l 1,48,49
 514 800 514 800 514 850 c 2,50,-1
 514 930 l 2,51,52
 514 1000 514 1000 553 1041 c 128,-1,53
 592 1082 592 1082 658 1082 c 2,54,-1
 1088 1082 l 1,0,1
EndSplineSet
Ligature2: "'psts' Post Base Substitutions lookup 8 subtable" tm_ra tm_ikaar
EndChar

StartChar: tm_rr_ikaar
Encoding: 65553 -1 133
Width: 1278
GlyphClass: 2
Flags: W
LayerCount: 2
Fore
SplineSet
1254 1076 m 1,0,1
 1254 1000 1254 1000 1206 936 c 0,2,3
 1146 858 1146 858 1048 858 c 2,4,-1
 950 858 l 2,5,6
 908 858 908 858 908 816 c 0,7,8
 908 794 908 794 920 768 c 1,9,-1
 970 768 l 2,10,11
 1088 768 1088 768 1163 687 c 128,-1,12
 1238 606 1238 606 1238 470 c 2,13,-1
 1238 10 l 2,14,15
 1238 -136 1238 -136 1166 -234 c 0,16,17
 1086 -342 1086 -342 944 -342 c 2,18,-1
 -72 -342 l 1,19,20
 -70 -230 -70 -230 28 -164 c 0,21,22
 100 -116 100 -116 162 -116 c 2,23,-1
 832 -116 l 2,24,25
 960 -116 960 -116 960 30 c 2,26,-1
 960 454 l 2,27,28
 960 544 960 544 882 544 c 2,29,-1
 782 544 l 2,30,31
 762 544 762 544 745 519 c 128,-1,32
 728 494 728 494 728 470 c 2,33,-1
 728 0 l 1,34,-1
 444 0 l 1,35,-1
 444 490 l 2,36,37
 444 542 444 542 384 542 c 2,38,-1
 310 542 l 2,39,40
 266 542 266 542 266 470 c 2,41,-1
 266 0 l 1,42,-1
 40 0 l 1,43,-1
 40 506 l 2,44,45
 40 610 40 610 98 686 c 0,46,47
 164 768 164 768 270 768 c 2,48,-1
 472 768 l 2,49,50
 568 768 568 768 594 688 c 1,51,52
 604 712 604 712 643 737 c 128,-1,53
 682 762 682 762 728 770 c 1,54,-1
 728 950 l 2,55,56
 728 1076 728 1076 864 1076 c 2,57,-1
 1254 1076 l 1,0,1
EndSplineSet
Ligature2: "'psts' Post Base Substitutions lookup 8 subtable" tm_rra tm_ikaar
EndChar

StartChar: tm_l_ikaar
Encoding: 65554 -1 134
Width: 1374
GlyphClass: 2
Flags: W
LayerCount: 2
Fore
SplineSet
1516 1074 m 1,0,1
 1516 998 1516 998 1472 938 c 0,2,3
 1416 858 1416 858 1310 858 c 2,4,-1
 1222 858 l 2,5,6
 1194 858 1194 858 1185 851 c 128,-1,7
 1176 844 1176 844 1176 818 c 2,8,-1
 1176 744 l 1,9,10
 1246 716 1246 716 1295 639 c 128,-1,11
 1344 562 1344 562 1344 474 c 2,12,-1
 1344 302 l 2,13,14
 1344 172 1344 172 1258 82 c 0,15,16
 1180 0 1180 0 1086 0 c 2,17,-1
 862 0 l 2,18,19
 758 0 758 0 682 92 c 0,20,21
 614 174 614 174 614 262 c 2,22,-1
 614 450 l 2,23,24
 614 550 614 550 516 550 c 2,25,-1
 390 550 l 2,26,27
 308 550 308 550 308 450 c 2,28,-1
 308 236 l 2,29,30
 308 208 308 208 330 208 c 256,31,32
 352 208 352 208 352 246 c 2,33,-1
 352 352 l 1,34,-1
 524 352 l 1,35,36
 582 320 582 320 582 224 c 0,37,38
 582 144 582 144 538 78 c 0,39,40
 486 0 486 0 400 0 c 2,41,-1
 272 0 l 2,42,43
 188 0 188 0 112 68 c 0,44,45
 30 140 30 140 30 242 c 2,46,-1
 30 482 l 2,47,48
 30 596 30 596 117 682 c 128,-1,49
 204 768 204 768 332 768 c 2,50,-1
 626 768 l 2,51,52
 734 768 734 768 814 679 c 128,-1,53
 894 590 894 590 894 490 c 2,54,-1
 894 282 l 2,55,56
 894 224 894 224 942 224 c 2,57,-1
 998 224 l 2,58,59
 1048 224 1048 224 1048 298 c 2,60,-1
 1048 468 l 2,61,62
 1048 536 1048 536 992 536 c 2,63,-1
 924 536 l 1,64,-1
 924 768 l 1,65,-1
 1004 768 l 1,66,67
 990 786 990 786 990 830 c 2,68,-1
 990 930 l 2,69,70
 990 986 990 986 1016 1026 c 0,71,72
 1048 1074 1048 1074 1108 1074 c 2,73,-1
 1516 1074 l 1,0,1
EndSplineSet
Ligature2: "'psts' Post Base Substitutions lookup 8 subtable" tm_la tm_ikaar
EndChar

StartChar: tm_ll_ikaar
Encoding: 65555 -1 135
Width: 1686
GlyphClass: 2
Flags: W
LayerCount: 2
Fore
SplineSet
1680 1072 m 1,0,1
 1672 1004 1672 1004 1622 942 c 0,2,3
 1556 862 1556 862 1458 862 c 2,4,-1
 1358 862 l 2,5,6
 1306 862 1306 862 1306 808 c 0,7,8
 1306 784 1306 784 1318 768 c 1,9,-1
 1662 768 l 1,10,11
 1662 672 1662 672 1607 608 c 128,-1,12
 1552 544 1552 544 1482 544 c 2,13,-1
 1394 544 l 1,14,-1
 1394 0 l 1,15,-1
 1102 0 l 1,16,-1
 1102 542 l 1,17,-1
 1060 542 l 2,18,19
 992 542 992 542 992 472 c 2,20,-1
 992 0 l 1,21,-1
 698 0 l 1,22,-1
 698 466 l 2,23,24
 698 540 698 540 598 540 c 2,25,-1
 394 540 l 2,26,27
 312 540 312 540 312 430 c 2,28,-1
 312 240 l 2,29,30
 312 194 312 194 342 194 c 0,31,32
 366 194 366 194 366 234 c 2,33,-1
 366 356 l 1,34,-1
 576 356 l 1,35,36
 614 336 614 336 614 238 c 0,37,38
 614 146 614 146 548 73 c 128,-1,39
 482 0 482 0 404 0 c 2,40,-1
 322 0 l 2,41,42
 204 0 204 0 117 80 c 128,-1,43
 30 160 30 160 30 264 c 2,44,-1
 30 460 l 2,45,46
 30 598 30 598 118 683 c 128,-1,47
 206 768 206 768 342 768 c 2,48,-1
 676 768 l 2,49,50
 726 768 726 768 775 741 c 128,-1,51
 824 714 824 714 844 678 c 1,52,53
 890 768 890 768 1000 768 c 2,54,-1
 1124 768 l 1,55,56
 1112 810 1112 810 1112 844 c 2,57,-1
 1112 922 l 2,58,59
 1112 990 1112 990 1153 1031 c 128,-1,60
 1194 1072 1194 1072 1262 1072 c 2,61,-1
 1680 1072 l 1,0,1
EndSplineSet
Ligature2: "'psts' Post Base Substitutions lookup 8 subtable" tm_lla tm_ikaar
EndChar

StartChar: tm_lll_ikaar
Encoding: 65556 -1 136
Width: 1280
GlyphClass: 2
Flags: W
LayerCount: 2
Fore
SplineSet
1282 1086 m 1,0,1
 1274 1010 1274 1010 1238 954 c 0,2,3
 1188 874 1188 874 1100 874 c 2,4,-1
 998 874 l 2,5,6
 934 874 934 874 934 814 c 0,7,8
 934 804 934 804 952 768 c 1,9,10
 1104 750 1104 750 1182 638 c 0,11,12
 1252 536 1252 536 1252 372 c 0,13,14
 1252 206 1252 206 1158 103 c 128,-1,15
 1064 0 1064 0 922 0 c 2,16,-1
 794 0 l 1,17,18
 802 -70 802 -70 866 -70 c 2,19,-1
 968 -70 l 1,20,-1
 968 -250 l 1,21,-1
 824 -250 l 2,22,23
 786 -250 786 -250 750 -228 c 1,24,25
 732 -284 732 -284 647 -324 c 128,-1,26
 562 -364 562 -364 452 -364 c 2,27,-1
 32 -364 l 1,28,29
 26 -272 26 -272 92 -194 c 128,-1,30
 158 -116 158 -116 252 -116 c 2,31,-1
 446 -116 l 2,32,33
 526 -116 526 -116 568 -82 c 1,34,35
 544 -62 544 -62 530 0 c 1,36,-1
 40 0 l 1,37,-1
 40 768 l 1,38,-1
 344 768 l 1,39,-1
 344 242 l 1,40,-1
 510 242 l 1,41,-1
 510 768 l 1,42,-1
 760 768 l 1,43,44
 752 794 752 794 752 856 c 2,45,-1
 752 932 l 2,46,47
 752 1086 752 1086 900 1086 c 2,48,-1
 1282 1086 l 1,0,1
976 330 m 2,49,-1
 976 436 l 2,50,51
 976 528 976 528 888 528 c 2,52,-1
 806 528 l 1,53,-1
 806 238 l 1,54,-1
 898 238 l 2,55,56
 976 238 976 238 976 330 c 2,49,-1
EndSplineSet
Ligature2: "'psts' Post Base Substitutions lookup 8 subtable" tm_llla tm_ikaar
EndChar

StartChar: tm_v_ikaar
Encoding: 65557 -1 137
Width: 1392
GlyphClass: 2
Flags: W
LayerCount: 2
Fore
SplineSet
1416 1080 m 1,0,1
 1414 1010 1414 1010 1360 938 c 0,2,3
 1296 854 1296 854 1212 854 c 2,4,-1
 1062 854 l 2,5,6
 1024 854 1024 854 1024 822 c 2,7,-1
 1024 760 l 2,8,9
 1024 724 1024 724 1068 738 c 1,10,-1
 1068 768 l 1,11,-1
 1352 768 l 1,12,-1
 1352 0 l 1,13,-1
 616 0 l 1,14,-1
 616 216 l 1,15,16
 678 240 678 240 678 308 c 2,17,-1
 678 450 l 2,18,19
 678 544 678 544 592 544 c 2,20,-1
 408 544 l 2,21,22
 310 544 310 544 310 454 c 2,23,-1
 310 262 l 2,24,25
 310 236 310 236 334 236 c 0,26,27
 356 236 356 236 356 272 c 2,28,-1
 356 358 l 1,29,-1
 548 358 l 1,30,31
 564 352 564 352 578 312 c 128,-1,32
 592 272 592 272 592 232 c 0,33,34
 592 138 592 138 534 69 c 128,-1,35
 476 0 476 0 390 0 c 2,36,-1
 274 0 l 2,37,38
 192 0 192 0 116 70 c 0,39,40
 30 146 30 146 30 246 c 2,41,-1
 30 478 l 2,42,43
 30 588 30 588 114 678 c 128,-1,44
 198 768 198 768 310 768 c 2,45,-1
 678 768 l 2,46,47
 768 768 768 768 858 708 c 1,48,-1
 858 896 l 2,49,50
 858 1080 858 1080 1034 1080 c 2,51,-1
 1416 1080 l 1,0,1
1068 228 m 1,52,-1
 1068 612 l 1,53,54
 1054 604 1054 604 1016 596 c 0,55,56
 972 584 972 584 952 590 c 1,57,58
 964 576 964 576 964 526 c 2,59,-1
 964 354 l 2,60,61
 964 250 964 250 882 228 c 1,62,-1
 1068 228 l 1,52,-1
EndSplineSet
Ligature2: "'psts' Post Base Substitutions lookup 8 subtable" tm_va tm_ikaar
EndChar

StartChar: tm_ss_ikaar
Encoding: 65558 -1 138
Width: 1856
GlyphClass: 2
Flags: W
LayerCount: 2
Fore
SplineSet
1850 994 m 1,0,1
 1848 918 1848 918 1802 854 c 0,2,3
 1746 776 1746 776 1648 776 c 2,4,-1
 1544 776 l 2,5,6
 1488 776 1488 776 1488 724 c 2,7,-1
 1488 680 l 1,8,9
 1542 666 1542 666 1581 616 c 128,-1,10
 1620 566 1620 566 1620 502 c 2,11,-1
 1620 346 l 2,12,13
 1620 306 1620 306 1606 268 c 0,14,15
 1590 222 1590 222 1566 216 c 1,16,17
 1594 222 1594 222 1620 222 c 0,18,19
 1704 222 1704 222 1762 161 c 128,-1,20
 1820 100 1820 100 1832 0 c 1,21,-1
 1470 0 l 1,22,23
 1430 -82 1430 -82 1350 -130 c 128,-1,24
 1270 -178 1270 -178 1180 -174 c 1,25,-1
 1268 0 l 1,26,-1
 644 0 l 1,27,-1
 644 208 l 1,28,29
 674 218 674 218 684 233 c 128,-1,30
 694 248 694 248 694 294 c 2,31,-1
 694 464 l 2,32,33
 694 536 694 536 622 536 c 2,34,-1
 418 536 l 2,35,36
 332 536 332 536 332 468 c 2,37,-1
 332 248 l 2,38,39
 332 216 332 216 360 216 c 0,40,41
 378 216 378 216 378 258 c 2,42,-1
 378 366 l 1,43,-1
 592 366 l 1,44,45
 624 306 624 306 624 246 c 0,46,47
 624 144 624 144 576 76 c 0,48,49
 522 0 522 0 422 0 c 2,50,-1
 286 0 l 2,51,52
 198 0 198 0 120 58 c 0,53,54
 30 126 30 126 30 234 c 2,55,-1
 30 480 l 2,56,57
 30 598 30 598 130 684 c 0,58,59
 224 768 224 768 344 768 c 2,60,-1
 694 768 l 2,61,62
 986 768 986 768 986 484 c 2,63,-1
 986 364 l 2,64,65
 986 238 986 238 918 212 c 1,66,-1
 1150 212 l 1,67,68
 1088 248 1088 248 1088 356 c 2,69,-1
 1088 482 l 2,70,71
 1088 558 1088 558 1140 614 c 0,72,73
 1198 678 1198 678 1290 678 c 1,74,-1
 1290 854 l 2,75,76
 1290 994 1290 994 1452 994 c 2,77,-1
 1850 994 l 1,0,1
1406 308 m 2,78,-1
 1406 436 l 2,79,80
 1406 486 1406 486 1372 486 c 2,81,-1
 1334 486 l 2,82,83
 1298 486 1298 486 1298 412 c 2,84,-1
 1298 318 l 2,85,86
 1298 260 1298 260 1360 206 c 1,87,88
 1406 248 1406 248 1406 308 c 2,78,-1
EndSplineSet
Ligature2: "'psts' Post Base Substitutions lookup 8 subtable" tm_ssa tm_ikaar
EndChar

StartChar: tm_s_ikaar
Encoding: 65559 -1 139
Width: 1962
GlyphClass: 2
Flags: W
LayerCount: 2
Fore
SplineSet
2100 1086 m 1,0,1
 2092 1010 2092 1010 2052 950 c 0,2,3
 1996 868 1996 868 1900 868 c 2,4,-1
 1796 868 l 2,5,6
 1740 868 1740 868 1740 812 c 2,7,-1
 1740 760 l 1,8,9
 1932 670 1932 670 1932 460 c 2,10,-1
 1932 266 l 2,11,12
 1932 192 1932 192 1866 106 c 0,13,14
 1784 0 1784 0 1660 0 c 2,15,-1
 1440 0 l 2,16,17
 1362 0 1362 0 1282 80 c 128,-1,18
 1202 160 1202 160 1202 258 c 2,19,-1
 1202 452 l 2,20,21
 1202 488 1202 488 1181 518 c 128,-1,22
 1160 548 1160 548 1124 548 c 2,23,-1
 1064 548 l 2,24,25
 1028 548 1028 548 1008 511 c 128,-1,26
 988 474 988 474 988 440 c 2,27,-1
 988 0 l 1,28,-1
 694 0 l 1,29,-1
 694 466 l 2,30,31
 694 536 694 536 598 536 c 2,32,-1
 396 536 l 2,33,34
 312 536 312 536 312 458 c 2,35,-1
 312 222 l 2,36,37
 312 196 312 196 340 196 c 0,38,39
 364 196 364 196 364 234 c 2,40,-1
 364 358 l 1,41,-1
 574 358 l 1,42,43
 610 334 610 334 610 240 c 0,44,45
 610 148 610 148 544 74 c 128,-1,46
 478 0 478 0 402 0 c 2,47,-1
 326 0 l 2,48,49
 210 0 210 0 120 81 c 128,-1,50
 30 162 30 162 30 266 c 2,51,-1
 30 462 l 2,52,53
 30 594 30 594 120 681 c 128,-1,54
 210 768 210 768 346 768 c 2,55,-1
 658 768 l 2,56,57
 788 768 788 768 840 674 c 1,58,59
 878 726 878 726 906 746 c 0,60,61
 942 768 942 768 1002 768 c 2,62,-1
 1196 768 l 2,63,64
 1318 768 1318 768 1398 684 c 128,-1,65
 1478 600 1478 600 1478 476 c 2,66,-1
 1478 286 l 2,67,68
 1478 228 1478 228 1534 228 c 2,69,-1
 1584 228 l 2,70,71
 1634 228 1634 228 1634 298 c 2,72,-1
 1634 468 l 2,73,74
 1634 540 1634 540 1586 540 c 2,75,-1
 1506 540 l 1,76,-1
 1506 768 l 1,77,-1
 1570 768 l 1,78,-1
 1570 948 l 2,79,80
 1570 1010 1570 1010 1606 1048 c 128,-1,81
 1642 1086 1642 1086 1704 1086 c 2,82,-1
 2100 1086 l 1,0,1
EndSplineSet
Ligature2: "'psts' Post Base Substitutions lookup 8 subtable" tm_sa tm_ikaar
EndChar

StartChar: tm_h_ikaar
Encoding: 65560 -1 140
Width: 2324
GlyphClass: 2
Flags: W
LayerCount: 2
Fore
SplineSet
2300 1082 m 1,0,1
 2292 1008 2292 1008 2250 948 c 0,2,3
 2192 868 2192 868 2098 868 c 2,4,-1
 2002 868 l 2,5,6
 1952 868 1952 868 1952 810 c 2,7,-1
 1952 768 l 1,8,-1
 2016 768 l 2,9,10
 2136 768 2136 768 2210 687 c 128,-1,11
 2284 606 2284 606 2284 470 c 2,12,-1
 2284 -46 l 2,13,14
 2284 -152 2284 -152 2200 -244 c 0,15,16
 2104 -350 2104 -350 1966 -350 c 2,17,-1
 964 -350 l 1,18,19
 994 -114 994 -114 1256 -114 c 2,20,-1
 1878 -114 l 2,21,22
 2006 -114 2006 -114 2006 50 c 2,23,-1
 2006 444 l 2,24,25
 2006 542 2006 542 1928 542 c 2,26,-1
 1830 542 l 2,27,28
 1774 542 1774 542 1774 488 c 2,29,-1
 1774 0 l 1,30,-1
 1488 0 l 1,31,-1
 1488 482 l 2,32,33
 1488 504 1488 504 1471 521 c 128,-1,34
 1454 538 1454 538 1432 538 c 2,35,-1
 1354 538 l 2,36,37
 1308 538 1308 538 1308 472 c 2,38,-1
 1308 0 l 1,39,-1
 622 0 l 1,40,-1
 622 208 l 1,41,42
 684 216 684 216 684 294 c 2,43,-1
 684 426 l 2,44,45
 684 532 684 532 606 532 c 2,46,-1
 412 532 l 2,47,48
 312 532 312 532 312 430 c 2,49,-1
 312 254 l 2,50,51
 312 220 312 220 336 220 c 0,52,53
 358 220 358 220 358 264 c 2,54,-1
 358 344 l 1,55,-1
 552 344 l 2,56,57
 568 342 568 342 581 293 c 128,-1,58
 594 244 594 244 594 200 c 0,59,60
 594 110 594 110 535 55 c 128,-1,61
 476 0 476 0 400 0 c 2,62,-1
 278 0 l 2,63,64
 192 0 192 0 118 60 c 0,65,66
 30 130 30 130 30 248 c 2,67,-1
 30 456 l 2,68,69
 30 572 30 572 112 655 c 128,-1,70
 194 738 194 738 308 738 c 2,71,-1
 714 738 l 2,72,73
 968 738 968 738 968 500 c 2,74,-1
 968 330 l 2,75,76
 968 244 968 244 890 220 c 1,77,-1
 1082 220 l 1,78,-1
 1082 526 l 2,79,80
 1082 616 1082 616 1142 688 c 0,81,82
 1210 768 1210 768 1316 768 c 2,83,-1
 1516 768 l 2,84,85
 1570 768 1570 768 1604 738 c 0,86,87
 1630 714 1630 714 1634 684 c 1,88,89
 1664 760 1664 760 1770 770 c 1,90,-1
 1770 944 l 2,91,92
 1770 1004 1770 1004 1810 1043 c 128,-1,93
 1850 1082 1850 1082 1910 1082 c 2,94,-1
 2300 1082 l 1,0,1
EndSplineSet
Ligature2: "'psts' Post Base Substitutions lookup 8 subtable" tm_ha tm_ikaar
EndChar

StartChar: tm_k_iikaar
Encoding: 65561 -1 141
Width: 1210
GlyphClass: 2
Flags: W
LayerCount: 2
Fore
SplineSet
1180 196 m 2,0,1
 1180 142 1180 142 1156 85 c 128,-1,2
 1132 28 1132 28 1102 0 c 1,3,-1
 808 0 l 1,4,5
 900 86 900 86 900 164 c 2,6,-1
 900 222 l 2,7,8
 900 296 900 296 854 296 c 2,9,-1
 824 296 l 1,10,-1
 824 244 l 2,11,12
 824 142 824 142 744 74 c 0,13,14
 654 0 654 0 498 0 c 2,15,-1
 280 0 l 2,16,17
 174 0 174 0 102 60 c 128,-1,18
 30 120 30 120 30 214 c 2,19,-1
 30 306 l 2,20,21
 30 382 30 382 69 432 c 128,-1,22
 108 482 108 482 182 480 c 1,23,24
 170 604 170 604 231 686 c 128,-1,25
 292 768 292 768 406 768 c 2,26,-1
 570 768 l 1,27,28
 542 794 542 794 542 850 c 2,29,-1
 542 964 l 2,30,31
 542 1108 542 1108 736 1108 c 2,32,-1
 950 1108 l 2,33,34
 1078 1108 1078 1108 1078 982 c 2,35,-1
 1078 910 l 2,36,37
 1078 806 1078 806 874 806 c 2,38,-1
 754 806 l 1,39,40
 746 838 746 838 769 871 c 128,-1,41
 792 904 792 904 826 904 c 2,42,-1
 872 904 l 2,43,44
 898 904 898 904 898 928 c 0,45,46
 898 946 898 946 878 946 c 2,47,-1
 800 946 l 2,48,49
 726 946 726 946 726 896 c 2,50,-1
 726 820 l 2,51,52
 726 768 726 768 798 768 c 2,53,-1
 1032 768 l 1,54,55
 1028 698 1028 698 988 638 c 0,56,57
 936 558 936 558 848 558 c 2,58,-1
 816 558 l 1,59,-1
 816 498 l 1,60,-1
 948 498 l 2,61,62
 1044 498 1044 498 1112 436 c 128,-1,63
 1180 374 1180 374 1180 286 c 2,64,-1
 1180 196 l 2,0,1
528 488 m 1,65,-1
 528 546 l 1,66,-1
 436 546 l 1,67,-1
 412 528 l 1,68,-1
 412 488 l 1,69,-1
 528 488 l 1,65,-1
530 268 m 2,70,-1
 530 286 l 1,71,-1
 360 286 l 2,72,73
 310 286 310 286 310 250 c 2,74,-1
 310 226 l 2,75,76
 310 204 310 204 346 204 c 2,77,-1
 452 204 l 2,78,79
 482 204 482 204 506 223 c 128,-1,80
 530 242 530 242 530 268 c 2,70,-1
EndSplineSet
Ligature2: "'abvs' Above Base Substitutions lookup 6 subtable" tm_ka tm_iikaar
EndChar

StartChar: tm_ng_iikaar
Encoding: 65562 -1 142
Width: 1496
GlyphClass: 2
Flags: W
LayerCount: 2
Fore
SplineSet
1470 1081 m 2,0,1
 1470 975 1470 975 1322 975 c 2,2,-1
 1124 975 l 1,3,4
 1124 1011 1124 1011 1148 1039 c 128,-1,5
 1172 1067 1172 1067 1208 1067 c 2,6,-1
 1244 1067 l 2,7,8
 1278 1067 1278 1067 1278 1089 c 0,9,10
 1278 1115 1278 1115 1240 1115 c 2,11,-1
 1154 1115 l 2,12,13
 1104 1115 1104 1115 1104 1055 c 2,14,-1
 1104 849 l 2,15,16
 1104 811 1104 811 1126 801 c 0,17,18
 1140 795 1140 795 1186 797 c 1,19,-1
 1186 915 l 1,20,-1
 1445 915 l 1,21,-1
 1443 164 l 1,22,23
 1425 120 1425 120 1386 80 c 0,24,25
 1306 0 1306 0 1190 0 c 2,26,-1
 452 0 l 1,27,28
 468 94 468 94 534 156 c 0,29,30
 592 212 592 212 652 212 c 2,31,-1
 826 212 l 1,32,-1
 826 230 l 2,33,34
 826 256 826 256 762 256 c 2,35,-1
 468 256 l 1,36,-1
 468 546 l 1,37,-1
 334 546 l 2,38,39
 288 546 288 546 272 532 c 0,40,41
 252 512 252 512 252 456 c 2,42,-1
 252 0 l 1,43,-1
 40 0 l 1,44,-1
 40 442 l 2,45,46
 40 768 40 768 378 768 c 2,47,-1
 908 768 l 1,48,-1
 908 1153 l 2,49,50
 908 1221 908 1221 949 1260 c 128,-1,51
 990 1299 990 1299 1056 1299 c 2,52,-1
 1298 1299 l 2,53,54
 1470 1299 1470 1299 1470 1177 c 2,55,-1
 1470 1081 l 2,0,1
854 620 m 0,56,57
 796 550 796 550 740 550 c 2,58,-1
 736 550 l 1,59,-1
 736 490 l 1,60,-1
 914 490 l 2,61,62
 986 490 986 490 1044 438 c 128,-1,63
 1102 386 1102 386 1102 322 c 2,64,-1
 1102 212 l 1,65,66
 1190 212 1190 212 1190 310 c 2,67,-1
 1190 383 l 1,68,-1
 1186 387 l 1,69,-1
 1186 621 l 1,70,-1
 1030 621 l 2,71,72
 984 621 984 621 946 660 c 0,73,74
 908 698 908 698 908 734 c 1,75,76
 899 674 899 674 854 620 c 0,56,57
EndSplineSet
Ligature2: "'abvs' Above Base Substitutions lookup 6 subtable" tm_nga tm_iikaar
EndChar

StartChar: tm_c_iikaar
Encoding: 65563 -1 143
Width: 1074
GlyphClass: 2
Flags: W
LayerCount: 2
Fore
SplineSet
1094 902 m 2,0,1
 1094 850 1094 850 1053 821 c 128,-1,2
 1012 792 1012 792 950 792 c 2,3,-1
 772 792 l 1,4,5
 768 820 768 820 790 852 c 128,-1,6
 812 884 812 884 848 884 c 2,7,-1
 892 884 l 2,8,9
 916 884 916 884 916 910 c 0,10,11
 916 928 916 928 894 928 c 2,12,-1
 794 928 l 2,13,14
 746 928 746 928 746 878 c 2,15,-1
 746 816 l 2,16,17
 746 768 746 768 784 768 c 2,18,-1
 1048 768 l 1,19,20
 1042 704 1042 704 1008 646 c 0,21,22
 966 574 966 574 904 554 c 1,23,-1
 822 554 l 1,24,-1
 822 502 l 1,25,-1
 1050 502 l 1,26,27
 1050 432 1050 432 990 370 c 0,28,29
 948 326 948 326 904 306 c 1,30,-1
 822 306 l 1,31,-1
 822 250 l 2,32,33
 822 150 822 150 747 75 c 128,-1,34
 672 0 672 0 558 0 c 2,35,-1
 304 0 l 2,36,37
 170 0 170 0 96 80 c 0,38,39
 30 150 30 150 30 256 c 2,40,-1
 30 320 l 2,41,42
 30 394 30 394 76 447 c 128,-1,43
 122 500 122 500 200 500 c 1,44,45
 196 520 196 520 196 538 c 0,46,47
 196 632 196 632 262 700 c 128,-1,48
 328 768 328 768 432 768 c 2,49,-1
 588 768 l 1,50,51
 562 800 562 800 562 832 c 2,52,-1
 562 938 l 2,53,54
 562 1092 562 1092 752 1092 c 2,55,-1
 958 1092 l 2,56,57
 1094 1092 1094 1092 1094 968 c 2,58,-1
 1094 902 l 2,0,1
540 500 m 1,59,-1
 540 552 l 1,60,-1
 448 552 l 1,61,-1
 424 528 l 1,62,-1
 424 500 l 1,63,-1
 540 500 l 1,59,-1
540 302 m 1,64,-1
 370 302 l 2,65,66
 324 302 324 302 324 274 c 2,67,-1
 324 250 l 2,68,69
 324 234 324 234 360 234 c 2,70,-1
 496 234 l 2,71,72
 516 234 516 234 530 258 c 128,-1,73
 544 282 544 282 540 302 c 1,64,-1
EndSplineSet
Ligature2: "'abvs' Above Base Substitutions lookup 6 subtable" tm_ca tm_iikaar
EndChar

StartChar: tm_j_iikaar
Encoding: 65564 -1 144
Width: 1452
GlyphClass: 2
Flags: W
LayerCount: 2
Fore
SplineSet
1598 928 m 2,0,1
 1598 816 1598 816 1490 816 c 2,2,-1
 1272 816 l 1,3,4
 1272 908 1272 908 1350 908 c 2,5,-1
 1390 908 l 2,6,7
 1422 908 1422 908 1422 926 c 256,8,9
 1422 944 1422 944 1396 944 c 2,10,-1
 1298 944 l 2,11,12
 1248 944 1248 944 1248 896 c 2,13,-1
 1248 774 l 1,14,15
 1330 744 1330 744 1380 670 c 0,16,17
 1422 606 1422 606 1422 542 c 2,18,-1
 1422 344 l 2,19,20
 1422 264 1422 264 1394 212 c 0,21,22
 1378 184 1378 184 1334 134 c 1,23,24
 1356 126 1356 126 1381 97 c 128,-1,25
 1406 68 1406 68 1406 46 c 2,26,-1
 1406 -62 l 2,27,28
 1406 -166 1406 -166 1310 -248 c 0,29,30
 1224 -318 1224 -318 1152 -318 c 2,31,-1
 812 -318 l 1,32,33
 810 -252 810 -252 870 -181 c 128,-1,34
 930 -110 930 -110 1002 -110 c 2,35,-1
 1072 -110 l 2,36,37
 1104 -110 1104 -110 1122 -82 c 0,38,39
 1138 -60 1138 -60 1138 -36 c 0,40,41
 1138 20 1138 20 1068 20 c 2,42,-1
 990 20 l 2,43,44
 958 20 958 20 902 -68 c 0,45,46
 816 -204 816 -204 794 -230 c 0,47,48
 722 -318 722 -318 650 -318 c 2,49,-1
 290 -318 l 2,50,51
 202 -318 202 -318 119 -246 c 128,-1,52
 36 -174 36 -174 36 -102 c 2,53,-1
 36 -18 l 2,54,55
 36 68 36 68 98 138 c 0,56,57
 170 220 170 220 286 220 c 2,58,-1
 1046 220 l 2,59,60
 1148 220 1148 220 1148 354 c 2,61,-1
 1148 510 l 2,62,63
 1148 602 1148 602 1052 602 c 2,64,-1
 958 602 l 2,65,66
 894 602 894 602 894 522 c 2,67,-1
 894 252 l 1,68,-1
 620 252 l 1,69,-1
 620 536 l 2,70,71
 620 600 620 600 554 600 c 2,72,-1
 350 600 l 2,73,74
 286 600 286 600 286 542 c 2,75,-1
 286 458 l 2,76,77
 286 430 286 430 310 430 c 0,78,79
 332 430 332 430 332 458 c 2,80,-1
 332 558 l 1,81,-1
 522 558 l 2,82,83
 576 558 576 558 576 500 c 2,84,-1
 576 454 l 2,85,86
 576 384 576 384 512 322 c 128,-1,87
 448 260 448 260 374 260 c 2,88,-1
 242 260 l 2,89,90
 162 260 162 260 96 325 c 128,-1,91
 30 390 30 390 30 472 c 2,92,-1
 30 566 l 2,93,94
 30 660 30 660 105 732 c 128,-1,95
 180 804 180 804 306 804 c 2,96,-1
 580 804 l 2,97,98
 690 804 690 804 758 728 c 1,99,100
 782 752 782 752 806 776 c 0,101,102
 838 804 838 804 882 804 c 2,103,-1
 1082 804 l 1,104,105
 1070 830 1070 830 1070 876 c 2,106,-1
 1070 964 l 2,107,108
 1070 1010 1070 1010 1109 1053 c 128,-1,109
 1148 1096 1148 1096 1212 1096 c 2,110,-1
 1442 1096 l 2,111,112
 1598 1096 1598 1096 1598 992 c 2,113,-1
 1598 928 l 2,0,1
682 20 m 1,114,-1
 406 20 l 2,115,116
 318 20 318 20 318 -36 c 2,117,-1
 318 -60 l 2,118,119
 318 -100 318 -100 372 -100 c 2,120,-1
 544 -100 l 2,121,122
 572 -100 572 -100 604 -54 c 0,123,124
 640 0 640 0 682 20 c 1,114,-1
EndSplineSet
Ligature2: "'abvs' Above Base Substitutions lookup 6 subtable" tm_ja tm_iikaar
EndChar

StartChar: tm_ny_iikaar
Encoding: 65565 -1 145
Width: 1358
GlyphClass: 2
Flags: W
LayerCount: 2
Fore
SplineSet
1326 -16 m 2,0,1
 1326 -140 1326 -140 1235 -226 c 128,-1,2
 1144 -312 1144 -312 1016 -312 c 2,3,-1
 74 -312 l 1,4,5
 104 -86 104 -86 310 -86 c 2,6,-1
 1006 -86 l 2,7,8
 1098 -86 1098 -86 1098 0 c 2,9,-1
 1098 70 l 2,10,11
 1098 132 1098 132 1042 132 c 0,12,13
 1014 132 1014 132 1004 114 c 1,14,-1
 1004 0 l 1,15,-1
 716 0 l 1,16,-1
 716 536 l 1,17,-1
 418 536 l 2,18,19
 314 536 314 536 314 436 c 2,20,-1
 314 240 l 2,21,22
 314 214 314 214 338 214 c 0,23,24
 360 214 360 214 360 250 c 2,25,-1
 360 370 l 1,26,-1
 594 370 l 1,27,28
 632 330 632 330 632 244 c 0,29,30
 632 122 632 122 566 56 c 0,31,32
 510 0 510 0 426 0 c 2,33,-1
 282 0 l 2,34,35
 180 0 180 0 105 81 c 128,-1,36
 30 162 30 162 30 274 c 2,37,-1
 30 444 l 2,38,39
 30 576 30 576 110 668 c 0,40,41
 198 768 198 768 344 768 c 2,42,-1
 818 768 l 1,43,44
 792 800 792 800 792 832 c 2,45,-1
 792 938 l 2,46,47
 792 1092 792 1092 982 1092 c 2,48,-1
 1188 1092 l 2,49,50
 1324 1092 1324 1092 1324 968 c 2,51,-1
 1324 902 l 2,52,53
 1324 850 1324 850 1283 821 c 128,-1,54
 1242 792 1242 792 1180 792 c 2,55,-1
 1002 792 l 1,56,57
 998 820 998 820 1020 852 c 128,-1,58
 1042 884 1042 884 1078 884 c 2,59,-1
 1122 884 l 2,60,61
 1146 884 1146 884 1146 910 c 0,62,63
 1146 928 1146 928 1124 928 c 2,64,-1
 1024 928 l 2,65,66
 976 928 976 928 976 878 c 2,67,-1
 976 816 l 2,68,69
 976 770 976 770 1010 768 c 2,70,-1
 1014 768 l 1,71,-1
 1236 768 l 1,72,73
 1214 562 1214 562 1066 536 c 1,74,-1
 1010 536 l 1,75,-1
 1010 356 l 1,76,-1
 1086 356 l 2,77,78
 1176 356 1176 356 1248 298 c 0,79,80
 1326 234 1326 234 1326 142 c 2,81,-1
 1326 -16 l 2,0,1
EndSplineSet
Ligature2: "'abvs' Above Base Substitutions lookup 6 subtable" tm_nya tm_iikaar
EndChar

StartChar: tm_tt_iikaar
Encoding: 65566 -1 146
Width: 1136
GlyphClass: 2
Flags: W
LayerCount: 2
Fore
SplineSet
1114 0 m 1,0,-1
 40 0 l 1,1,-1
 40 768 l 1,2,-1
 328 768 l 1,3,-1
 328 232 l 1,4,-1
 442 232 l 1,5,6
 424 270 424 270 424 394 c 0,7,8
 424 522 424 522 466 577 c 128,-1,9
 508 632 508 632 608 632 c 2,10,-1
 732 632 l 2,11,12
 810 632 810 632 858 577 c 128,-1,13
 906 522 906 522 906 422 c 0,14,15
 906 288 906 288 718 240 c 1,16,-1
 718 412 l 2,17,18
 718 448 718 448 696 448 c 2,19,-1
 658 448 l 2,20,21
 612 448 612 448 612 398 c 2,22,-1
 612 288 l 2,23,24
 612 232 612 232 654 232 c 2,25,-1
 864 232 l 2,26,27
 958 232 958 232 1030 159 c 128,-1,28
 1102 86 1102 86 1114 0 c 1,0,-1
EndSplineSet
Ligature2: "'abvs' Above Base Substitutions lookup 5 subtable" tm_tta tm_iikaar
EndChar

StartChar: tm_nn_iikaar
Encoding: 65567 -1 147
Width: 2524
GlyphClass: 2
Flags: W
LayerCount: 2
Fore
SplineSet
2508 922 m 2,0,1
 2508 804 2508 804 2394 804 c 2,2,-1
 2166 804 l 1,3,4
 2162 830 2162 830 2189 863 c 128,-1,5
 2216 896 2216 896 2252 896 c 2,6,-1
 2298 896 l 2,7,8
 2326 896 2326 896 2326 916 c 256,9,10
 2326 936 2326 936 2302 936 c 2,11,-1
 2200 936 l 2,12,13
 2138 936 2138 936 2138 888 c 2,14,-1
 2138 842 l 2,15,16
 2138 788 2138 788 2170 768 c 1,17,-1
 2500 768 l 1,18,19
 2492 698 2492 698 2448 632 c 0,20,21
 2392 550 2392 550 2314 550 c 0,22,23
 2300 550 2300 550 2284 554 c 1,24,-1
 2284 0 l 1,25,-1
 1988 0 l 1,26,-1
 1988 472 l 2,27,28
 1988 550 1988 550 1932 550 c 2,29,-1
 1878 550 l 1,30,31
 1908 528 1908 528 1908 470 c 2,32,-1
 1908 266 l 2,33,34
 1908 158 1908 158 1850 84 c 0,35,36
 1784 0 1784 0 1672 0 c 2,37,-1
 1534 0 l 2,38,39
 1438 0 1438 0 1366 62 c 0,40,41
 1284 130 1284 130 1284 238 c 2,42,-1
 1284 446 l 2,43,44
 1284 526 1284 526 1318 538 c 1,45,-1
 1220 538 l 1,46,47
 1236 510 1236 510 1236 464 c 2,48,-1
 1236 264 l 2,49,50
 1236 160 1236 160 1176 84 c 0,51,52
 1110 0 1110 0 1006 0 c 2,53,-1
 858 0 l 2,54,55
 776 0 776 0 706 54 c 0,56,57
 620 124 620 124 620 248 c 2,58,-1
 620 428 l 2,59,60
 620 502 620 502 664 542 c 1,61,-1
 400 542 l 2,62,63
 346 542 346 542 328 514 c 0,64,65
 318 496 318 496 318 448 c 2,66,-1
 318 254 l 2,67,68
 318 216 318 216 336 216 c 0,69,70
 356 216 356 216 356 252 c 2,71,-1
 356 348 l 1,72,-1
 538 348 l 1,73,74
 590 326 590 326 590 222 c 0,75,76
 590 130 590 130 535 65 c 128,-1,77
 480 0 480 0 404 0 c 2,78,-1
 276 0 l 2,79,80
 202 0 202 0 124 66 c 0,81,82
 30 148 30 148 30 274 c 2,83,-1
 30 444 l 2,84,85
 30 582 30 582 120 675 c 128,-1,86
 210 768 210 768 332 768 c 2,87,-1
 766 768 l 2,88,89
 874 768 874 768 946 696 c 1,90,91
 1018 768 1018 768 1088 768 c 2,92,-1
 1492 768 l 2,93,94
 1566 768 1566 768 1624 700 c 1,95,96
 1626 730 1626 730 1676 749 c 128,-1,97
 1726 768 1726 768 1790 768 c 2,98,-1
 1992 768 l 1,99,100
 1956 810 1956 810 1956 864 c 2,101,-1
 1956 960 l 2,102,103
 1956 1028 1956 1028 1994 1071 c 128,-1,104
 2032 1114 2032 1114 2088 1114 c 2,105,-1
 2346 1114 l 2,106,107
 2508 1114 2508 1114 2508 990 c 2,108,-1
 2508 922 l 2,0,1
1632 262 m 2,109,-1
 1632 506 l 2,110,111
 1632 550 1632 550 1604 550 c 0,112,113
 1568 550 1568 550 1568 494 c 2,114,-1
 1568 258 l 2,115,116
 1568 212 1568 212 1598 212 c 0,117,118
 1632 212 1632 212 1632 262 c 2,109,-1
960 258 m 2,119,-1
 960 498 l 2,120,121
 960 542 960 542 928 542 c 0,122,123
 894 542 894 542 894 496 c 2,124,-1
 894 248 l 2,125,126
 894 210 894 210 926 210 c 0,127,128
 960 210 960 210 960 258 c 2,119,-1
EndSplineSet
Ligature2: "'abvs' Above Base Substitutions lookup 6 subtable" tm_nna tm_iikaar
EndChar

StartChar: tm_t_iikaar
Encoding: 65568 -1 148
Width: 1214
GlyphClass: 2
Flags: W
LayerCount: 2
Fore
SplineSet
1184 66 m 2,0,1
 1184 -110 1184 -110 1082 -218 c 0,2,3
 988 -316 988 -316 854 -316 c 2,4,-1
 30 -316 l 1,5,6
 56 -104 56 -104 270 -104 c 2,7,-1
 750 -104 l 2,8,9
 828 -104 828 -104 870 -52 c 0,10,11
 904 -8 904 -8 904 56 c 2,12,-1
 904 234 l 2,13,14
 904 300 904 300 854 300 c 2,15,-1
 822 300 l 1,16,-1
 822 244 l 2,17,18
 822 146 822 146 741 73 c 128,-1,19
 660 0 660 0 546 0 c 2,20,-1
 268 0 l 2,21,22
 164 0 164 0 100 58 c 0,23,24
 30 120 30 120 30 226 c 2,25,-1
 30 318 l 2,26,27
 30 378 30 378 70 428 c 0,28,29
 114 486 114 486 186 484 c 1,30,31
 182 506 182 506 182 532 c 0,32,33
 182 622 182 622 236 690 c 0,34,35
 298 768 298 768 404 768 c 2,36,-1
 556 768 l 1,37,38
 530 790 530 790 530 862 c 2,39,-1
 530 984 l 2,40,41
 530 1048 530 1048 573 1084 c 128,-1,42
 616 1120 616 1120 682 1120 c 2,43,-1
 916 1120 l 2,44,45
 998 1120 998 1120 1028 1085 c 128,-1,46
 1058 1050 1058 1050 1058 978 c 2,47,-1
 1058 912 l 2,48,49
 1058 808 1058 808 940 808 c 2,50,-1
 742 808 l 1,51,52
 742 894 742 894 824 894 c 2,53,-1
 860 894 l 2,54,55
 886 894 886 894 886 920 c 0,56,57
 886 942 886 942 860 942 c 2,58,-1
 770 942 l 2,59,60
 718 942 718 942 718 888 c 2,61,-1
 718 816 l 2,62,63
 718 768 718 768 762 768 c 2,64,-1
 1038 768 l 1,65,66
 1006 556 1006 556 852 556 c 2,67,-1
 820 556 l 1,68,-1
 820 498 l 1,69,-1
 952 498 l 2,70,71
 1042 498 1042 498 1113 433 c 128,-1,72
 1184 368 1184 368 1184 288 c 2,73,-1
 1184 66 l 2,0,1
530 488 m 1,74,-1
 530 544 l 1,75,-1
 452 544 l 2,76,77
 412 544 412 544 412 512 c 2,78,-1
 412 488 l 1,79,-1
 530 488 l 1,74,-1
526 288 m 1,80,-1
 368 288 l 2,81,82
 312 288 312 288 312 252 c 2,83,-1
 312 232 l 2,84,85
 312 208 312 208 368 208 c 2,86,-1
 470 208 l 2,87,88
 492 208 492 208 511 229 c 128,-1,89
 530 250 530 250 530 270 c 0,90,91
 530 280 530 280 526 288 c 1,80,-1
EndSplineSet
Ligature2: "'abvs' Above Base Substitutions lookup 6 subtable" tm_ta tm_iikaar
EndChar

StartChar: tm_n_iikaar
Encoding: 65569 -1 149
Width: 1158
GlyphClass: 2
Flags: W
LayerCount: 2
Fore
SplineSet
1128 46 m 2,0,1
 1128 -330 1128 -330 742 -330 c 2,2,-1
 -96 -330 l 1,3,4
 -68 -102 -68 -102 124 -102 c 2,5,-1
 682 -102 l 2,6,7
 768 -102 768 -102 802 -73 c 128,-1,8
 836 -44 836 -44 836 24 c 2,9,-1
 836 192 l 2,10,11
 836 258 836 258 772 258 c 2,12,-1
 742 258 l 1,13,-1
 742 0 l 1,14,-1
 458 0 l 1,15,-1
 458 548 l 1,16,-1
 340 548 l 2,17,18
 290 548 290 548 277 531 c 128,-1,19
 264 514 264 514 264 464 c 2,20,-1
 264 0 l 1,21,-1
 30 0 l 1,22,-1
 30 522 l 2,23,24
 30 620 30 620 102 694 c 128,-1,25
 174 768 174 768 288 768 c 2,26,-1
 460 768 l 1,27,28
 450 786 450 786 450 850 c 2,29,-1
 450 972 l 2,30,31
 450 1040 450 1040 493 1077 c 128,-1,32
 536 1114 536 1114 604 1114 c 2,33,-1
 842 1114 l 2,34,35
 926 1114 926 1114 960 1078 c 0,36,37
 988 1044 988 1044 988 968 c 2,38,-1
 988 898 l 2,39,40
 988 794 988 794 864 794 c 2,41,-1
 660 794 l 1,42,43
 660 830 660 830 685 857 c 128,-1,44
 710 884 710 884 746 884 c 2,45,-1
 782 884 l 2,46,47
 810 884 810 884 810 906 c 0,48,49
 810 932 810 932 782 932 c 2,50,-1
 694 932 l 2,51,52
 640 932 640 932 640 876 c 2,53,-1
 640 802 l 2,54,55
 640 768 640 768 672 768 c 2,56,-1
 968 768 l 1,57,58
 978 714 978 714 915 631 c 128,-1,59
 852 548 852 548 800 548 c 2,60,-1
 742 548 l 1,61,-1
 742 492 l 1,62,-1
 868 492 l 2,63,64
 992 492 992 492 1064 412 c 0,65,66
 1128 344 1128 344 1128 254 c 2,67,-1
 1128 46 l 2,0,1
EndSplineSet
Ligature2: "'abvs' Above Base Substitutions lookup 6 subtable" tm_na tm_iikaar
EndChar

StartChar: tm_nnn_iikaar
Encoding: 65570 -1 150
Width: 1894
GlyphClass: 2
Flags: W
LayerCount: 2
Fore
SplineSet
1870 768 m 1,0,1
 1846 540 1846 540 1654 540 c 0,2,3
 1628 540 1628 540 1600 544 c 1,4,-1
 1600 0 l 1,5,-1
 1318 0 l 1,6,-1
 1318 544 l 1,7,-1
 1178 544 l 1,8,9
 1224 514 1224 514 1224 440 c 2,10,-1
 1224 264 l 2,11,12
 1224 160 1224 160 1172 84 c 0,13,14
 1112 0 1112 0 1010 0 c 2,15,-1
 810 0 l 2,16,17
 742 0 742 0 680 58 c 0,18,19
 606 128 606 128 606 234 c 2,20,-1
 606 440 l 2,21,22
 606 496 606 496 648 538 c 1,23,-1
 392 538 l 2,24,25
 336 538 336 538 320 508 c 0,26,27
 312 492 312 492 312 440 c 2,28,-1
 312 252 l 2,29,30
 312 208 312 208 334 208 c 256,31,32
 356 208 356 208 356 250 c 2,33,-1
 356 356 l 1,34,-1
 532 356 l 1,35,36
 580 346 580 346 580 220 c 0,37,38
 580 130 580 130 525 65 c 128,-1,39
 470 0 470 0 396 0 c 2,40,-1
 262 0 l 2,41,42
 188 0 188 0 118 62 c 0,43,44
 30 142 30 142 30 268 c 2,45,-1
 30 436 l 2,46,47
 30 592 30 592 122 686 c 0,48,49
 204 768 204 768 322 768 c 2,50,-1
 748 768 l 2,51,52
 830 768 830 768 876 742 c 0,53,54
 896 730 896 730 930 688 c 1,55,56
 944 712 944 712 960 736 c 1,57,58
 990 768 990 768 1072 768 c 2,59,-1
 1354 768 l 1,60,61
 1342 794 1342 794 1342 856 c 2,62,-1
 1342 952 l 2,63,64
 1342 1022 1342 1022 1376 1063 c 128,-1,65
 1410 1104 1410 1104 1462 1104 c 2,66,-1
 1720 1104 l 2,67,68
 1864 1104 1864 1104 1864 982 c 2,69,-1
 1864 914 l 2,70,71
 1864 794 1864 794 1766 794 c 2,72,-1
 1542 794 l 1,73,74
 1548 878 1548 878 1628 878 c 2,75,-1
 1668 878 l 2,76,77
 1694 878 1694 878 1694 902 c 0,78,79
 1694 928 1694 928 1674 928 c 2,80,-1
 1574 928 l 2,81,82
 1524 928 1524 928 1524 872 c 2,83,-1
 1524 768 l 1,84,-1
 1870 768 l 1,0,1
950 232 m 2,85,-1
 950 508 l 2,86,87
 950 548 950 548 920 548 c 0,88,89
 886 548 886 548 886 500 c 2,90,-1
 886 222 l 2,91,92
 886 192 886 192 920 192 c 0,93,94
 950 192 950 192 950 232 c 2,85,-1
EndSplineSet
Ligature2: "'abvs' Above Base Substitutions lookup 6 subtable" tm_nnna tm_iikaar
EndChar

StartChar: tm_p_iikaar
Encoding: 65571 -1 151
Width: 1104
GlyphClass: 2
Flags: W
LayerCount: 2
Fore
SplineSet
1070 934 m 2,0,1
 1070 828 1070 828 922 828 c 2,2,-1
 724 828 l 1,3,4
 724 864 724 864 748 892 c 128,-1,5
 772 920 772 920 808 920 c 2,6,-1
 844 920 l 2,7,8
 878 920 878 920 878 942 c 0,9,10
 878 968 878 968 840 968 c 2,11,-1
 754 968 l 2,12,13
 704 968 704 968 704 908 c 2,14,-1
 704 702 l 2,15,16
 704 664 704 664 726 654 c 0,17,18
 740 648 740 648 786 650 c 1,19,-1
 786 768 l 1,20,-1
 1064 768 l 1,21,-1
 1064 0 l 1,22,-1
 40 0 l 1,23,-1
 40 768 l 1,24,-1
 330 768 l 1,25,-1
 330 240 l 1,26,-1
 786 240 l 1,27,-1
 786 474 l 1,28,-1
 630 474 l 2,29,30
 584 474 584 474 546 513 c 128,-1,31
 508 552 508 552 508 588 c 2,32,-1
 508 1006 l 2,33,34
 508 1074 508 1074 549 1113 c 128,-1,35
 590 1152 590 1152 656 1152 c 2,36,-1
 898 1152 l 2,37,38
 1070 1152 1070 1152 1070 1030 c 2,39,-1
 1070 934 l 2,0,1
EndSplineSet
Ligature2: "'abvs' Above Base Substitutions lookup 6 subtable" tm_pa tm_iikaar
EndChar

StartChar: tm_m_iikaar
Encoding: 65572 -1 152
Width: 1266
GlyphClass: 2
Flags: W
LayerCount: 2
Fore
SplineSet
1258 886 m 2,0,1
 1258 788 1258 788 1122 788 c 2,2,-1
 916 788 l 1,3,4
 920 830 920 830 948 858 c 128,-1,5
 976 886 976 886 1014 886 c 2,6,-1
 1050 886 l 2,7,8
 1078 886 1078 886 1078 902 c 0,9,10
 1078 926 1078 926 1050 926 c 2,11,-1
 950 926 l 2,12,13
 892 926 892 926 892 870 c 2,14,-1
 892 822 l 2,15,16
 892 794 892 794 904 776 c 1,17,18
 1236 734 1236 734 1236 376 c 0,19,20
 1236 216 1236 216 1141 108 c 128,-1,21
 1046 0 1046 0 898 0 c 2,22,-1
 40 0 l 1,23,-1
 40 768 l 1,24,-1
 336 768 l 1,25,-1
 336 242 l 1,26,-1
 502 242 l 1,27,-1
 502 768 l 1,28,-1
 748 768 l 1,29,30
 702 814 702 814 702 844 c 2,31,-1
 702 948 l 2,32,33
 702 1016 702 1016 745 1062 c 128,-1,34
 788 1108 788 1108 852 1108 c 2,35,-1
 1096 1108 l 2,36,37
 1258 1108 1258 1108 1258 968 c 2,38,-1
 1258 886 l 2,0,1
968 330 m 2,39,-1
 968 428 l 2,40,41
 968 530 968 530 886 530 c 2,42,-1
 796 530 l 1,43,-1
 796 242 l 1,44,-1
 892 242 l 2,45,46
 968 242 968 242 968 330 c 2,39,-1
EndSplineSet
Ligature2: "'abvs' Above Base Substitutions lookup 6 subtable" tm_ma tm_iikaar
EndChar

StartChar: tm_y_iikaar
Encoding: 65573 -1 153
Width: 1488
GlyphClass: 2
Flags: W
LayerCount: 2
Fore
SplineSet
1448 -4 m 1,0,-1
 430 -4 l 1,1,-1
 430 92 l 1,2,3
 404 66 404 66 378 40 c 0,4,5
 332 0 332 0 278 0 c 2,6,-1
 182 0 l 2,7,8
 40 0 40 0 40 168 c 2,9,-1
 40 768 l 1,10,-1
 274 768 l 1,11,-1
 274 266 l 2,12,13
 274 232 274 232 276 226 c 0,14,15
 280 204 280 204 306 204 c 0,16,17
 336 204 336 204 426 294 c 1,18,-1
 426 768 l 1,19,-1
 716 768 l 1,20,-1
 716 238 l 1,21,-1
 1178 238 l 1,22,-1
 1178 468 l 1,23,-1
 1012 468 l 2,24,25
 966 468 966 468 928 511 c 128,-1,26
 890 554 890 554 890 592 c 2,27,-1
 890 1010 l 2,28,29
 890 1078 890 1078 930 1116 c 128,-1,30
 970 1154 970 1154 1036 1154 c 2,31,-1
 1280 1154 l 2,32,33
 1438 1154 1438 1154 1438 1034 c 2,34,-1
 1438 936 l 2,35,36
 1438 832 1438 832 1302 832 c 2,37,-1
 1110 832 l 1,38,39
 1110 918 1110 918 1190 918 c 2,40,-1
 1226 918 l 2,41,42
 1262 918 1262 918 1262 944 c 256,43,44
 1262 970 1262 970 1224 970 c 2,45,-1
 1138 970 l 2,46,47
 1088 970 1088 970 1088 910 c 2,48,-1
 1088 694 l 2,49,50
 1088 640 1088 640 1178 650 c 1,51,-1
 1178 768 l 1,52,-1
 1448 768 l 1,53,-1
 1448 -4 l 1,0,-1
EndSplineSet
Ligature2: "'abvs' Above Base Substitutions lookup 6 subtable" tm_ya tm_iikaar
EndChar

StartChar: tm_r_iikaar
Encoding: 65574 -1 154
Width: 1028
GlyphClass: 2
Flags: W
LayerCount: 2
Fore
SplineSet
1014 768 m 1,0,1
 1014 684 1014 684 972 616 c 0,2,3
 938 564 938 564 891 548 c 0,4,5
 867 538 867 538 840 538 c 2,6,-1
 786 538 l 1,7,-1
 786 -36 l 2,8,9
 786 -148 786 -148 724 -222 c 128,-1,10
 662 -296 662 -296 570 -296 c 2,11,-1
 178 -296 l 1,12,13
 184 -242 184 -242 236 -176 c 0,14,15
 296 -100 296 -100 362 -100 c 2,16,-1
 440 -100 l 2,17,18
 508 -100 508 -100 508 -8 c 2,19,-1
 508 0 l 1,20,-1
 502 0 l 1,21,-1
 502 538 l 1,22,-1
 338 538 l 2,23,24
 282 538 282 538 265 494 c 0,25,26
 260 477 260 477 260 454 c 2,27,-1
 260 0 l 1,28,-1
 30 0 l 1,29,-1
 30 462 l 2,30,31
 30 586 30 586 98 672 c 0,32,33
 174 768 174 768 306 768 c 2,34,-1
 310 768 l 1,35,-1
 510 768 l 1,36,37
 502 824 502 824 502 852 c 2,38,-1
 502 930 l 2,39,40
 502 1002 502 1002 545 1051 c 128,-1,41
 588 1100 588 1100 656 1100 c 2,42,-1
 900 1100 l 2,43,44
 1060 1100 1060 1100 1060 976 c 2,45,-1
 1060 894 l 2,46,47
 1060 848 1060 848 1021 820 c 128,-1,48
 982 792 982 792 920 792 c 2,49,-1
 720 792 l 1,50,51
 726 888 726 888 818 888 c 2,52,-1
 852 888 l 2,53,54
 874 888 874 888 874 910 c 256,55,56
 874 932 874 932 852 932 c 2,57,-1
 750 932 l 2,58,59
 696 932 696 932 696 888 c 2,60,-1
 696 804 l 2,61,62
 696 770 696 770 725 768 c 2,63,-1
 1014 768 l 1,0,1
EndSplineSet
Ligature2: "'abvs' Above Base Substitutions lookup 5 subtable" tm_ra tm_iikaar
EndChar

StartChar: tm_rr_iikaar
Encoding: 65575 -1 155
Width: 1288
GlyphClass: 2
Flags: W
LayerCount: 2
Fore
SplineSet
1248 8 m 2,0,1
 1248 -140 1248 -140 1178 -236 c 0,2,3
 1098 -342 1098 -342 956 -342 c 2,4,-1
 -72 -342 l 1,5,6
 -70 -228 -70 -228 18 -162 c 0,7,8
 82 -114 82 -114 140 -114 c 2,9,-1
 840 -114 l 2,10,11
 970 -114 970 -114 970 30 c 2,12,-1
 970 450 l 2,13,14
 970 544 970 544 892 544 c 2,15,-1
 792 544 l 2,16,17
 732 544 732 544 732 492 c 2,18,-1
 732 0 l 1,19,-1
 450 0 l 1,20,-1
 450 488 l 2,21,22
 450 510 450 510 432 527 c 128,-1,23
 414 544 414 544 392 544 c 2,24,-1
 316 544 l 2,25,26
 268 544 268 544 268 476 c 2,27,-1
 268 0 l 1,28,-1
 40 0 l 1,29,-1
 40 508 l 2,30,31
 40 610 40 610 104 689 c 128,-1,32
 168 768 168 768 274 768 c 2,33,-1
 478 768 l 2,34,35
 570 768 570 768 602 686 c 1,36,37
 628 762 628 762 722 768 c 1,38,39
 686 822 686 822 686 870 c 2,40,-1
 686 938 l 2,41,42
 686 1008 686 1008 727 1058 c 128,-1,43
 768 1108 768 1108 832 1108 c 2,44,-1
 1086 1108 l 2,45,46
 1248 1108 1248 1108 1248 992 c 2,47,-1
 1248 910 l 2,48,49
 1248 842 1248 842 1210 818 c 0,50,51
 1180 798 1180 798 1112 798 c 2,52,-1
 910 798 l 1,53,54
 910 852 910 852 950 874 c 0,55,56
 970 886 970 886 1022 892 c 0,57,58
 1062 896 1062 896 1062 908 c 0,59,60
 1062 934 1062 934 1022 934 c 2,61,-1
 964 934 l 2,62,63
 884 934 884 934 884 896 c 2,64,-1
 884 798 l 2,65,66
 884 768 884 768 922 768 c 2,67,-1
 992 768 l 2,68,69
 1104 768 1104 768 1174 692 c 0,70,71
 1248 610 1248 610 1248 476 c 2,72,-1
 1248 8 l 2,0,1
EndSplineSet
Ligature2: "'abvs' Above Base Substitutions lookup 6 subtable" tm_rra tm_iikaar
EndChar

StartChar: tm_l_iikaar
Encoding: 65576 -1 156
Width: 1370
GlyphClass: 2
Flags: W
LayerCount: 2
Fore
SplineSet
1502 904 m 2,0,1
 1502 794 1502 794 1368 794 c 2,2,-1
 1166 794 l 1,3,4
 1166 890 1166 890 1270 890 c 2,5,-1
 1306 890 l 2,6,7
 1322 890 1322 890 1322 912 c 0,8,9
 1322 928 1322 928 1282 928 c 2,10,-1
 1204 928 l 2,11,12
 1138 928 1138 928 1138 878 c 2,13,-1
 1138 834 l 2,14,15
 1138 790 1138 790 1160 752 c 1,16,17
 1232 728 1232 728 1286 652 c 128,-1,18
 1340 576 1340 576 1340 496 c 2,19,-1
 1340 302 l 2,20,21
 1340 162 1340 162 1252 74 c 0,22,23
 1176 0 1176 0 1084 0 c 2,24,-1
 860 0 l 2,25,26
 760 0 760 0 682 98 c 0,27,28
 614 184 614 184 614 262 c 2,29,-1
 614 450 l 2,30,31
 614 548 614 548 518 548 c 2,32,-1
 394 548 l 2,33,34
 340 548 340 548 327 527 c 128,-1,35
 314 506 314 506 314 450 c 2,36,-1
 314 236 l 2,37,38
 314 208 314 208 332 208 c 0,39,40
 358 208 358 208 358 246 c 2,41,-1
 358 350 l 1,42,-1
 530 350 l 1,43,44
 586 310 586 310 586 226 c 0,45,46
 586 150 586 150 540 80 c 0,47,48
 486 0 486 0 404 0 c 2,49,-1
 278 0 l 2,50,51
 196 0 196 0 118 68 c 0,52,53
 30 142 30 142 30 242 c 2,54,-1
 30 480 l 2,55,56
 30 592 30 592 112 676 c 0,57,58
 198 768 198 768 332 768 c 2,59,-1
 630 768 l 2,60,61
 736 768 736 768 813 679 c 128,-1,62
 890 590 890 590 890 488 c 2,63,-1
 890 294 l 2,64,65
 890 226 890 226 942 226 c 2,66,-1
 994 226 l 2,67,68
 1048 226 1048 226 1048 296 c 2,69,-1
 1048 490 l 2,70,71
 1048 534 1048 534 992 534 c 2,72,-1
 920 534 l 1,73,-1
 920 768 l 1,74,-1
 988 768 l 1,75,76
 948 820 948 820 948 866 c 2,77,-1
 948 928 l 2,78,79
 948 1012 948 1012 988 1060 c 128,-1,80
 1028 1108 1028 1108 1098 1108 c 2,81,-1
 1338 1108 l 2,82,83
 1502 1108 1502 1108 1502 986 c 2,84,-1
 1502 904 l 2,0,1
EndSplineSet
Ligature2: "'abvs' Above Base Substitutions lookup 5 subtable" tm_la tm_iikaar
EndChar

StartChar: tm_ll_iikaar
Encoding: 65577 -1 157
Width: 1692
GlyphClass: 2
Flags: W
LayerCount: 2
Fore
SplineSet
1678 916 m 2,0,1
 1678 848 1678 848 1638 824 c 0,2,3
 1608 804 1608 804 1540 804 c 2,4,-1
 1332 804 l 1,5,6
 1334 898 1334 898 1442 898 c 2,7,-1
 1460 898 l 2,8,9
 1496 898 1496 898 1496 914 c 0,10,11
 1496 942 1496 942 1462 942 c 2,12,-1
 1386 942 l 2,13,14
 1306 942 1306 942 1306 900 c 2,15,-1
 1306 852 l 2,16,17
 1306 794 1306 794 1340 768 c 1,18,-1
 1668 768 l 1,19,20
 1668 672 1668 672 1610 609 c 128,-1,21
 1552 546 1552 546 1480 546 c 2,22,-1
 1396 546 l 1,23,-1
 1396 0 l 1,24,-1
 1104 0 l 1,25,-1
 1104 546 l 1,26,-1
 1058 546 l 2,27,28
 994 546 994 546 994 470 c 2,29,-1
 994 0 l 1,30,-1
 700 0 l 1,31,-1
 700 464 l 2,32,33
 700 542 700 542 604 542 c 2,34,-1
 390 542 l 2,35,36
 312 542 312 542 312 428 c 2,37,-1
 312 240 l 2,38,39
 312 192 312 192 340 192 c 0,40,41
 362 192 362 192 362 232 c 2,42,-1
 362 354 l 1,43,-1
 576 354 l 1,44,45
 614 334 614 334 614 236 c 0,46,47
 614 144 614 144 547 72 c 128,-1,48
 480 0 480 0 400 0 c 2,49,-1
 318 0 l 2,50,51
 206 0 206 0 118 79 c 128,-1,52
 30 158 30 158 30 262 c 2,53,-1
 30 460 l 2,54,55
 30 600 30 600 117 684 c 128,-1,56
 204 768 204 768 340 768 c 2,57,-1
 674 768 l 2,58,59
 726 768 726 768 777 743 c 128,-1,60
 828 718 828 718 848 678 c 1,61,62
 868 768 868 768 1006 768 c 2,63,-1
 1150 768 l 1,64,65
 1118 814 1118 814 1118 848 c 2,66,-1
 1118 954 l 2,67,68
 1118 1026 1118 1026 1155 1072 c 128,-1,69
 1192 1118 1192 1118 1254 1118 c 2,70,-1
 1510 1118 l 2,71,72
 1678 1118 1678 1118 1678 998 c 2,73,-1
 1678 916 l 2,0,1
EndSplineSet
Ligature2: "'abvs' Above Base Substitutions lookup 6 subtable" tm_lla tm_iikaar
EndChar

StartChar: tm_lll_iikaar
Encoding: 65578 -1 158
Width: 1276
GlyphClass: 2
Flags: W
LayerCount: 2
Fore
SplineSet
1296 900 m 2,0,1
 1296 798 1296 798 1160 798 c 2,2,-1
 958 798 l 1,3,4
 964 896 964 896 1046 896 c 2,5,-1
 1086 896 l 2,6,7
 1112 896 1112 896 1112 914 c 0,8,9
 1112 940 1112 940 1090 940 c 2,10,-1
 990 940 l 2,11,12
 932 940 932 940 932 884 c 2,13,-1
 932 836 l 2,14,15
 932 794 932 794 956 768 c 1,16,17
 1248 722 1248 722 1248 376 c 0,18,19
 1248 218 1248 218 1155 109 c 128,-1,20
 1062 0 1062 0 920 0 c 2,21,-1
 786 0 l 1,22,23
 804 -70 804 -70 864 -70 c 2,24,-1
 968 -70 l 1,25,-1
 968 -248 l 1,26,-1
 820 -248 l 2,27,28
 774 -248 774 -248 748 -226 c 1,29,30
 730 -280 730 -280 654 -320 c 0,31,32
 572 -362 572 -362 462 -362 c 2,33,-1
 36 -362 l 1,34,35
 26 -274 26 -274 96 -195 c 128,-1,36
 166 -116 166 -116 250 -116 c 2,37,-1
 446 -116 l 2,38,39
 528 -116 528 -116 574 -80 c 1,40,41
 552 -72 552 -72 541 -45 c 128,-1,42
 530 -18 530 -18 534 0 c 1,43,-1
 40 0 l 1,44,-1
 40 768 l 1,45,-1
 340 768 l 1,46,-1
 340 242 l 1,47,-1
 510 242 l 1,48,-1
 510 768 l 1,49,-1
 764 768 l 1,50,51
 748 790 748 790 748 830 c 2,52,-1
 748 938 l 2,53,54
 748 1010 748 1010 785 1058 c 128,-1,55
 822 1106 822 1106 884 1106 c 2,56,-1
 1138 1106 l 2,57,58
 1296 1106 1296 1106 1296 982 c 2,59,-1
 1296 900 l 2,0,1
974 328 m 2,60,-1
 974 434 l 2,61,62
 974 530 974 530 884 530 c 2,63,-1
 804 530 l 1,64,-1
 804 240 l 1,65,-1
 894 240 l 2,66,67
 974 240 974 240 974 328 c 2,60,-1
EndSplineSet
Ligature2: "'abvs' Above Base Substitutions lookup 6 subtable" tm_llla tm_iikaar
EndChar

StartChar: tm_v_iikaar
Encoding: 65579 -1 159
Width: 1390
GlyphClass: 2
Flags: W
LayerCount: 2
Fore
SplineSet
1398 924 m 2,0,1
 1398 826 1398 826 1270 826 c 2,2,-1
 1058 826 l 1,3,4
 1058 860 1058 860 1085 890 c 128,-1,5
 1112 920 1112 920 1150 920 c 2,6,-1
 1186 920 l 2,7,8
 1220 920 1220 920 1220 934 c 0,9,10
 1220 960 1220 960 1180 960 c 2,11,-1
 1088 960 l 2,12,13
 1032 960 1032 960 1032 896 c 2,14,-1
 1032 776 l 2,15,16
 1032 736 1032 736 1058 738 c 0,17,18
 1066 738 1066 738 1076 740 c 1,19,-1
 1076 768 l 1,20,-1
 1350 768 l 1,21,-1
 1350 0 l 1,22,-1
 612 0 l 1,23,-1
 612 218 l 1,24,25
 680 216 680 216 680 310 c 2,26,-1
 680 452 l 2,27,28
 680 546 680 546 604 546 c 2,29,-1
 402 546 l 2,30,31
 306 546 306 546 306 456 c 2,32,-1
 306 264 l 2,33,34
 306 236 306 236 332 236 c 0,35,36
 354 236 354 236 354 274 c 2,37,-1
 354 362 l 1,38,-1
 546 362 l 1,39,40
 562 356 562 356 577 315 c 128,-1,41
 592 274 592 274 592 234 c 0,42,43
 592 140 592 140 535 70 c 128,-1,44
 478 0 478 0 392 0 c 2,45,-1
 272 0 l 2,46,47
 192 0 192 0 116 72 c 0,48,49
 30 148 30 148 30 250 c 2,50,-1
 30 480 l 2,51,52
 30 590 30 590 111 679 c 128,-1,53
 192 768 192 768 304 768 c 2,54,-1
 674 768 l 2,55,56
 768 768 768 768 848 718 c 1,57,-1
 848 994 l 2,58,59
 848 1136 848 1136 1010 1136 c 2,60,-1
 1222 1136 l 2,61,62
 1398 1136 1398 1136 1398 1018 c 2,63,-1
 1398 924 l 2,0,1
1070 226 m 1,64,-1
 1070 600 l 1,65,66
 1052 590 1052 590 1014 594 c 0,67,68
 970 598 970 598 944 618 c 1,69,70
 968 566 968 566 968 528 c 2,71,-1
 968 358 l 2,72,73
 968 312 968 312 945 273 c 128,-1,74
 922 234 922 234 884 226 c 1,75,-1
 1070 226 l 1,64,-1
EndSplineSet
Ligature2: "'abvs' Above Base Substitutions lookup 6 subtable" tm_va tm_iikaar
EndChar

StartChar: tm_ss_iikaar
Encoding: 65580 -1 160
Width: 1866
GlyphClass: 2
Flags: W
LayerCount: 2
Fore
SplineSet
1848 842 m 2,0,1
 1848 714 1848 714 1720 714 c 2,2,-1
 1516 714 l 1,3,4
 1516 754 1516 754 1540 777 c 128,-1,5
 1564 800 1564 800 1590 800 c 2,6,-1
 1632 800 l 2,7,8
 1672 800 1672 800 1672 824 c 0,9,10
 1672 850 1672 850 1638 850 c 2,11,-1
 1562 850 l 2,12,13
 1528 850 1528 850 1516 844 c 0,14,15
 1494 834 1494 834 1494 792 c 2,16,-1
 1494 682 l 1,17,18
 1630 628 1630 628 1630 498 c 2,19,-1
 1630 342 l 2,20,21
 1630 262 1630 262 1584 210 c 1,22,23
 1616 220 1616 220 1646 220 c 0,24,25
 1724 220 1724 220 1776 161 c 128,-1,26
 1828 102 1828 102 1844 0 c 1,27,-1
 1472 0 l 1,28,29
 1438 -86 1438 -86 1348 -136 c 0,30,31
 1270 -178 1270 -178 1184 -178 c 1,32,-1
 1278 0 l 1,33,-1
 646 0 l 1,34,-1
 646 202 l 1,35,36
 676 212 676 212 682 220 c 0,37,38
 696 238 696 238 696 290 c 2,39,-1
 696 462 l 2,40,41
 696 542 696 542 628 542 c 2,42,-1
 418 542 l 2,43,44
 330 542 330 542 330 466 c 2,45,-1
 330 244 l 2,46,47
 330 210 330 210 360 210 c 0,48,49
 380 210 380 210 380 254 c 2,50,-1
 380 364 l 1,51,-1
 592 364 l 1,52,53
 628 350 628 350 628 240 c 0,54,55
 628 142 628 142 576 74 c 0,56,57
 518 0 518 0 422 0 c 2,58,-1
 284 0 l 2,59,60
 186 0 186 0 114 54 c 0,61,62
 30 118 30 118 30 228 c 2,63,-1
 30 476 l 2,64,65
 30 596 30 596 124 682 c 128,-1,66
 218 768 218 768 336 768 c 2,67,-1
 702 768 l 2,68,69
 992 768 992 768 992 480 c 2,70,-1
 992 360 l 2,71,72
 992 314 992 314 974 272 c 0,73,74
 952 222 952 222 918 210 c 1,75,-1
 1154 210 l 1,76,77
 1090 246 1090 246 1090 352 c 2,78,-1
 1090 480 l 2,79,80
 1090 552 1090 552 1143 616 c 128,-1,81
 1196 680 1196 680 1264 680 c 2,82,-1
 1324 680 l 1,83,84
 1300 698 1300 698 1300 770 c 2,85,-1
 1300 894 l 2,86,87
 1300 960 1300 960 1342 998 c 0,88,89
 1378 1034 1378 1034 1432 1034 c 2,90,-1
 1700 1034 l 2,91,92
 1848 1034 1848 1034 1848 914 c 2,93,-1
 1848 842 l 2,0,1
1414 310 m 2,94,-1
 1414 430 l 2,95,96
 1414 486 1414 486 1380 486 c 2,97,-1
 1342 486 l 2,98,99
 1328 486 1328 486 1317 467 c 128,-1,100
 1306 448 1306 448 1306 432 c 2,101,-1
 1306 320 l 2,102,103
 1306 230 1306 230 1370 204 c 1,104,105
 1414 222 1414 222 1414 310 c 2,94,-1
EndSplineSet
Ligature2: "'abvs' Above Base Substitutions lookup 6 subtable" tm_ssa tm_iikaar
EndChar

StartChar: tm_s_iikaar
Encoding: 65581 -1 161
Width: 1960
GlyphClass: 2
Flags: W
LayerCount: 2
Fore
SplineSet
2102 924 m 2,0,1
 2102 796 2102 796 1984 796 c 2,2,-1
 1774 796 l 1,3,4
 1774 836 1774 836 1797 859 c 128,-1,5
 1820 882 1820 882 1846 882 c 2,6,-1
 1888 882 l 2,7,8
 1928 882 1928 882 1928 908 c 0,9,10
 1928 936 1928 936 1894 936 c 2,11,-1
 1818 936 l 2,12,13
 1754 936 1754 936 1754 872 c 2,14,-1
 1754 750 l 1,15,16
 1930 666 1930 666 1930 462 c 2,17,-1
 1930 270 l 2,18,19
 1930 180 1930 180 1866 102 c 0,20,21
 1782 0 1782 0 1632 0 c 2,22,-1
 1434 0 l 2,23,24
 1364 0 1364 0 1288 66 c 0,25,26
 1196 146 1196 146 1196 260 c 2,27,-1
 1196 454 l 2,28,29
 1196 488 1196 488 1173 517 c 128,-1,30
 1150 546 1150 546 1120 546 c 2,31,-1
 1052 546 l 2,32,33
 992 546 992 546 992 466 c 2,34,-1
 992 0 l 1,35,-1
 696 0 l 1,36,-1
 696 466 l 2,37,38
 696 542 696 542 592 542 c 2,39,-1
 394 542 l 2,40,41
 308 542 308 542 308 434 c 2,42,-1
 308 224 l 2,43,44
 308 196 308 196 340 196 c 0,45,46
 362 196 362 196 362 236 c 2,47,-1
 362 356 l 1,48,-1
 576 356 l 1,49,50
 612 336 612 336 612 242 c 0,51,52
 612 150 612 150 543 75 c 128,-1,53
 474 0 474 0 396 0 c 2,54,-1
 314 0 l 2,55,56
 194 0 194 0 112 84 c 128,-1,57
 30 168 30 168 30 268 c 2,58,-1
 30 464 l 2,59,60
 30 598 30 598 116 683 c 128,-1,61
 202 768 202 768 334 768 c 2,62,-1
 668 768 l 2,63,64
 720 768 720 768 769 742 c 128,-1,65
 818 716 818 716 838 680 c 1,66,67
 874 732 874 732 905 750 c 128,-1,68
 936 768 936 768 996 768 c 2,69,-1
 1190 768 l 2,70,71
 1306 768 1306 768 1389 680 c 128,-1,72
 1472 592 1472 592 1472 478 c 2,73,-1
 1472 278 l 2,74,75
 1472 222 1472 222 1532 222 c 2,76,-1
 1578 222 l 2,77,78
 1636 222 1636 222 1636 296 c 2,79,-1
 1636 470 l 2,80,81
 1636 540 1636 540 1586 540 c 2,82,-1
 1498 540 l 1,83,-1
 1498 768 l 1,84,-1
 1600 768 l 1,85,86
 1564 794 1564 794 1564 852 c 2,87,-1
 1564 974 l 2,88,89
 1564 1028 1564 1028 1594 1066 c 0,90,91
 1630 1116 1630 1116 1700 1116 c 2,92,-1
 1962 1116 l 2,93,94
 2102 1116 2102 1116 2102 992 c 2,95,-1
 2102 924 l 2,0,1
EndSplineSet
Ligature2: "'abvs' Above Base Substitutions lookup 5 subtable" tm_sa tm_iikaar
EndChar

StartChar: tm_h_iikaar
Encoding: 65582 -1 162
Width: 2296
GlyphClass: 2
Flags: W
LayerCount: 2
Fore
SplineSet
2256 -36 m 2,0,1
 2256 -142 2256 -142 2178 -232 c 0,2,3
 2088 -336 2088 -336 1946 -336 c 2,4,-1
 964 -336 l 1,5,6
 980 -206 980 -206 1086 -146 c 0,7,8
 1154 -108 1154 -108 1224 -108 c 2,9,-1
 1858 -108 l 2,10,11
 1984 -108 1984 -108 1984 50 c 2,12,-1
 1984 446 l 2,13,14
 1984 546 1984 546 1910 546 c 2,15,-1
 1814 546 l 2,16,17
 1790 546 1790 546 1771 529 c 128,-1,18
 1752 512 1752 512 1752 488 c 2,19,-1
 1752 0 l 1,20,-1
 1474 0 l 1,21,-1
 1474 484 l 2,22,23
 1474 538 1474 538 1422 538 c 2,24,-1
 1346 538 l 2,25,26
 1298 538 1298 538 1298 476 c 2,27,-1
 1298 0 l 1,28,-1
 608 0 l 1,29,-1
 608 214 l 1,30,31
 676 232 676 232 676 316 c 2,32,-1
 676 430 l 2,33,34
 676 538 676 538 582 538 c 2,35,-1
 418 538 l 2,36,37
 310 538 310 538 310 448 c 2,38,-1
 310 258 l 2,39,40
 310 234 310 234 334 234 c 0,41,42
 352 234 352 234 352 260 c 2,43,-1
 352 358 l 1,44,-1
 540 358 l 2,45,46
 558 358 558 358 571 316 c 128,-1,47
 584 274 584 274 584 232 c 0,48,49
 584 138 584 138 528 69 c 128,-1,50
 472 0 472 0 394 0 c 2,51,-1
 274 0 l 2,52,53
 202 0 202 0 124 64 c 0,54,55
 30 140 30 140 30 252 c 2,56,-1
 30 458 l 2,57,58
 30 564 30 564 109 651 c 128,-1,59
 188 738 188 738 310 738 c 2,60,-1
 694 738 l 2,61,62
 822 738 822 738 890 676 c 128,-1,63
 958 614 958 614 958 514 c 2,64,-1
 958 360 l 2,65,66
 958 264 958 264 884 222 c 1,67,-1
 1072 222 l 1,68,-1
 1072 530 l 2,69,70
 1072 616 1072 616 1134 688 c 0,71,72
 1202 768 1202 768 1306 768 c 2,73,-1
 1506 768 l 2,74,75
 1582 768 1582 768 1622 682 c 1,76,77
 1638 758 1638 758 1758 770 c 1,78,79
 1704 798 1704 798 1704 850 c 2,80,-1
 1704 972 l 2,81,82
 1704 1018 1704 1018 1738 1058 c 0,83,84
 1780 1106 1780 1106 1846 1106 c 2,85,-1
 2116 1106 l 2,86,87
 2246 1106 2246 1106 2246 986 c 2,88,-1
 2246 922 l 2,89,90
 2246 798 2246 798 2126 798 c 2,91,-1
 1918 798 l 1,92,93
 1918 836 1918 836 1944 864 c 128,-1,94
 1970 892 1970 892 1996 892 c 2,95,-1
 2032 892 l 2,96,97
 2070 892 2070 892 2070 912 c 256,98,99
 2070 932 2070 932 2036 932 c 2,100,-1
 1962 932 l 2,101,102
 1890 932 1890 932 1890 870 c 2,103,-1
 1890 816 l 2,104,105
 1890 798 1890 798 1905 783 c 128,-1,106
 1920 768 1920 768 1938 768 c 2,107,-1
 1998 768 l 2,108,109
 2120 768 2120 768 2188 688 c 128,-1,110
 2256 608 2256 608 2256 472 c 2,111,-1
 2256 -36 l 2,0,1
EndSplineSet
Ligature2: "'abvs' Above Base Substitutions lookup 6 subtable" tm_ha tm_iikaar
EndChar

StartChar: tm_k_ukaar
Encoding: 65583 -1 163
Width: 1596
GlyphClass: 2
Flags: W
LayerCount: 2
Fore
SplineSet
1566 46 m 2,0,1
 1566 -90 1566 -90 1478 -194 c 0,2,3
 1382 -306 1382 -306 1238 -306 c 2,4,-1
 312 -306 l 2,5,6
 198 -306 198 -306 122 -230 c 0,7,8
 40 -152 40 -152 40 -26 c 2,9,-1
 40 624 l 2,10,11
 40 722 40 722 106 802 c 1,12,-1
 334 802 l 1,13,14
 274 750 274 750 274 576 c 2,15,-1
 274 -30 l 2,16,17
 274 -74 274 -74 286 -86 c 128,-1,18
 298 -98 298 -98 340 -98 c 2,19,-1
 1120 -98 l 2,20,21
 1200 -98 1200 -98 1242 -60 c 128,-1,22
 1284 -22 1284 -22 1284 36 c 2,23,-1
 1284 226 l 2,24,25
 1284 286 1284 286 1240 286 c 2,26,-1
 1204 286 l 1,27,-1
 1204 230 l 2,28,29
 1204 132 1204 132 1126 66 c 128,-1,30
 1048 0 1048 0 934 0 c 2,31,-1
 682 0 l 2,32,33
 562 0 562 0 486 61 c 128,-1,34
 410 122 410 122 410 216 c 2,35,-1
 410 308 l 2,36,37
 410 386 410 386 451 439 c 128,-1,38
 492 492 492 492 570 494 c 1,39,40
 564 612 564 612 614 686 c 0,41,42
 672 768 672 768 792 768 c 2,43,-1
 1436 768 l 1,44,45
 1402 548 1402 548 1246 548 c 2,46,-1
 1210 548 l 1,47,-1
 1210 486 l 1,48,-1
 1338 486 l 2,49,50
 1428 486 1428 486 1497 420 c 128,-1,51
 1566 354 1566 354 1566 278 c 2,52,-1
 1566 46 l 2,0,1
920 488 m 1,53,-1
 920 548 l 1,54,-1
 826 548 l 1,55,-1
 800 530 l 1,56,-1
 800 488 l 1,57,-1
 920 488 l 1,53,-1
916 290 m 1,58,-1
 740 290 l 2,59,60
 690 290 690 290 690 254 c 2,61,-1
 690 232 l 2,62,63
 690 208 690 208 732 208 c 2,64,-1
 852 208 l 2,65,66
 880 208 880 208 901 237 c 128,-1,67
 922 266 922 266 916 290 c 1,58,-1
EndSplineSet
Ligature2: "'psts' Post Base Substitutions lookup 7 subtable" tm_ka tm_ukaar
EndChar

StartChar: tm_ng_ukaar
Encoding: 65584 -1 164
Width: 1540
GlyphClass: 2
Flags: W
LayerCount: 2
Fore
SplineSet
1460 -138 m 1,0,-1
 1178 -138 l 1,1,-1
 1178 0 l 1,2,-1
 452 0 l 1,3,4
 468 94 468 94 534 156 c 0,5,6
 592 212 592 212 652 212 c 2,7,-1
 826 212 l 1,8,-1
 826 230 l 2,9,10
 826 256 826 256 762 256 c 2,11,-1
 468 256 l 1,12,-1
 468 546 l 1,13,-1
 334 546 l 2,14,15
 288 546 288 546 272 532 c 0,16,17
 252 512 252 512 252 456 c 2,18,-1
 252 0 l 1,19,-1
 40 0 l 1,20,-1
 40 442 l 2,21,22
 40 768 40 768 378 768 c 2,23,-1
 950 768 l 1,24,25
 952 690 952 690 894 620 c 128,-1,26
 836 550 836 550 780 550 c 2,27,-1
 736 550 l 1,28,-1
 736 490 l 1,29,-1
 914 490 l 2,30,31
 986 490 986 490 1044 438 c 128,-1,32
 1102 386 1102 386 1102 322 c 2,33,-1
 1102 212 l 1,34,35
 1157 212 1157 212 1178 251 c 1,36,-1
 1178 768 l 1,37,-1
 1460 768 l 1,38,-1
 1460 -138 l 1,0,-1
EndSplineSet
Ligature2: "'psts' Post Base Substitutions lookup 7 subtable" tm_nga tm_ukaar
EndChar

StartChar: tm_c_ukaar
Encoding: 65585 -1 165
Width: 1308
GlyphClass: 2
Flags: W
LayerCount: 2
Fore
SplineSet
1286 504 m 1,0,1
 1272 424 1272 424 1217 368 c 128,-1,2
 1162 312 1162 312 1116 318 c 1,3,-1
 1116 0 l 1,4,-1
 896 0 l 1,5,-1
 896 308 l 1,6,-1
 818 308 l 1,7,-1
 818 244 l 2,8,9
 818 144 818 144 743 72 c 128,-1,10
 668 0 668 0 554 0 c 2,11,-1
 300 0 l 2,12,13
 182 0 182 0 106 67 c 128,-1,14
 30 134 30 134 30 234 c 2,15,-1
 30 320 l 2,16,17
 30 394 30 394 77 449 c 128,-1,18
 124 504 124 504 196 502 c 1,19,20
 184 626 184 626 251 697 c 128,-1,21
 318 768 318 768 448 768 c 2,22,-1
 1046 768 l 1,23,24
 1046 708 1046 708 1010 648 c 0,25,26
 966 576 966 576 896 556 c 1,27,-1
 818 556 l 1,28,-1
 818 504 l 1,29,-1
 1286 504 l 1,0,1
538 502 m 1,30,-1
 538 556 l 1,31,-1
 448 556 l 1,32,-1
 420 532 l 1,33,-1
 420 502 l 1,34,-1
 538 502 l 1,30,-1
536 306 m 1,35,-1
 366 306 l 2,36,37
 320 306 320 306 320 278 c 2,38,-1
 320 254 l 2,39,40
 320 236 320 236 352 236 c 2,41,-1
 492 236 l 2,42,43
 510 236 510 236 524 254 c 128,-1,44
 538 272 538 272 538 292 c 0,45,46
 538 300 538 300 536 306 c 1,35,-1
EndSplineSet
Ligature2: "'psts' Post Base Substitutions lookup 7 subtable" tm_ca tm_ukaar
EndChar

StartChar: glyph167
Encoding: 65586 -1 166
Width: 1012
GlyphClass: 2
Flags: W
LayerCount: 2
Fore
SplineSet
68 876 m 1,0,-1
 943 876 l 1,1,-1
 943 0 l 1,2,-1
 68 0 l 1,3,-1
 68 876 l 1,0,-1
873 70 m 1,4,-1
 873 804 l 1,5,-1
 138 804 l 1,6,-1
 138 70 l 1,7,-1
 873 70 l 1,4,-1
EndSplineSet
EndChar

StartChar: tm_ny_ukaar
Encoding: 65587 -1 167
Width: 1855
GlyphClass: 2
Flags: W
LayerCount: 2
Fore
SplineSet
1306 267 m 1,0,1
 1384 200 1384 200 1384 110 c 2,2,-1
 1384 -94 l 2,3,4
 1384 -188 1384 -188 1368 -246 c 1,5,-1
 1468 -246 l 2,6,7
 1566 -246 1566 -246 1566 -82 c 2,8,-1
 1566 624 l 1,9,-1
 1804 624 l 1,10,-1
 1804 -168 l 2,11,12
 1804 -300 1804 -300 1715 -387 c 128,-1,13
 1626 -474 1626 -474 1502 -474 c 2,14,-1
 166 -474 l 1,15,16
 196 -246 196 -246 386 -246 c 2,17,-1
 940 -246 l 2,18,19
 1028 -246 1028 -246 1061 -218 c 128,-1,20
 1094 -190 1094 -190 1094 -118 c 2,21,-1
 1094 52 l 2,22,23
 1094 90 1094 90 1097 122 c 1,24,25
 1084 132 1084 132 1062 132 c 0,26,27
 1034 132 1034 132 1024 114 c 1,28,-1
 1024 0 l 1,29,-1
 736 0 l 1,30,-1
 736 536 l 1,31,-1
 438 536 l 2,32,33
 334 536 334 536 334 436 c 2,34,-1
 334 240 l 2,35,36
 334 214 334 214 358 214 c 0,37,38
 380 214 380 214 380 250 c 2,39,-1
 380 370 l 1,40,-1
 614 370 l 1,41,42
 652 330 652 330 652 244 c 0,43,44
 652 122 652 122 586 56 c 0,45,46
 530 0 530 0 446 0 c 2,47,-1
 302 0 l 2,48,49
 200 0 200 0 125 81 c 128,-1,50
 50 162 50 162 50 274 c 2,51,-1
 50 444 l 2,52,53
 50 576 50 576 130 668 c 0,54,55
 218 768 218 768 364 768 c 2,56,-1
 1256 768 l 1,57,58
 1234 562 1234 562 1086 536 c 1,59,-1
 1030 536 l 1,60,-1
 1030 356 l 1,61,-1
 1106 356 l 2,62,63
 1196 356 1196 356 1268 298 c 0,64,65
 1289 280 1289 280 1304 267 c 1,66,-1
 1306 267 l 1,0,1
EndSplineSet
Ligature2: "'psts' Post Base Substitutions lookup 7 subtable" tm_nya tm_ukaar
EndChar

StartChar: tm_tt_ukaar
Encoding: 65588 -1 168
Width: 1272
GlyphClass: 2
Flags: W
LayerCount: 2
Fore
SplineSet
1242 -66 m 2,0,1
 1242 -184 1242 -184 1156 -267 c 128,-1,2
 1070 -350 1070 -350 930 -350 c 2,3,-1
 346 -350 l 2,4,5
 216 -350 216 -350 128 -276 c 128,-1,6
 40 -202 40 -202 40 -74 c 2,7,-1
 38 580 l 2,8,9
 38 696 38 696 98 768 c 1,10,-1
 328 768 l 1,11,12
 272 712 272 712 272 600 c 2,13,-1
 274 -28 l 2,14,15
 274 -86 274 -86 298 -98 c 0,16,17
 306 -102 306 -102 364 -102 c 2,18,-1
 848 -102 l 2,19,20
 958 -102 958 -102 958 12 c 2,21,-1
 958 254 l 2,22,23
 958 332 958 332 884 332 c 2,24,-1
 842 332 l 2,25,26
 804 332 804 332 776 286 c 1,27,-1
 776 0 l 1,28,-1
 500 0 l 1,29,-1
 500 768 l 1,30,-1
 776 768 l 1,31,-1
 776 494 l 1,32,33
 814 532 814 532 872 532 c 2,34,-1
 1000 532 l 2,35,36
 1100 532 1100 532 1176 454 c 0,37,38
 1242 384 1242 384 1242 308 c 2,39,-1
 1242 -66 l 2,0,1
EndSplineSet
Ligature2: "'psts' Post Base Substitutions lookup 7 subtable" tm_tta tm_ukaar
EndChar

StartChar: tm_nn_ukaar
Encoding: 65589 -1 169
Width: 2752
GlyphClass: 2
Flags: W
LayerCount: 2
Fore
SplineSet
2712 -10 m 2,0,1
 2712 -160 2712 -160 2632 -253 c 128,-1,2
 2552 -346 2552 -346 2436 -346 c 2,3,-1
 -24 -346 l 1,4,5
 16 -256 16 -256 80 -184 c 0,6,7
 156 -100 156 -100 226 -100 c 2,8,-1
 1814 -100 l 2,9,10
 2004 -100 2004 -100 2004 92 c 2,11,-1
 2004 466 l 2,12,13
 2004 550 2004 550 1940 550 c 2,14,-1
 1890 550 l 1,15,16
 1922 524 1922 524 1922 466 c 2,17,-1
 1922 260 l 2,18,19
 1922 152 1922 152 1858 78 c 0,20,21
 1788 0 1788 0 1672 0 c 2,22,-1
 1534 0 l 2,23,24
 1460 0 1460 0 1388 50 c 0,25,26
 1294 116 1294 116 1294 230 c 2,27,-1
 1294 442 l 2,28,29
 1294 506 1294 506 1326 542 c 1,30,-1
 1226 542 l 1,31,32
 1248 522 1248 522 1248 460 c 2,33,-1
 1248 252 l 2,34,35
 1248 150 1248 150 1182 78 c 0,36,37
 1114 0 1114 0 1006 0 c 2,38,-1
 852 0 l 2,39,40
 774 0 774 0 704 62 c 0,41,42
 622 132 622 132 622 240 c 2,43,-1
 622 422 l 2,44,45
 622 512 622 512 670 546 c 1,46,-1
 392 546 l 2,47,48
 322 546 322 546 322 470 c 2,49,-1
 322 250 l 2,50,51
 322 216 322 216 342 216 c 0,52,53
 360 216 360 216 360 248 c 2,54,-1
 360 352 l 1,55,-1
 532 352 l 1,56,57
 590 324 590 324 590 224 c 0,58,59
 590 130 590 130 537 65 c 128,-1,60
 484 0 484 0 400 0 c 2,61,-1
 262 0 l 2,62,63
 194 0 194 0 118 74 c 0,64,65
 30 156 30 156 30 266 c 2,66,-1
 30 438 l 2,67,68
 30 580 30 580 115 674 c 128,-1,69
 200 768 200 768 324 768 c 2,70,-1
 760 768 l 2,71,72
 896 768 896 768 954 702 c 1,73,74
 998 768 998 768 1108 768 c 2,75,-1
 1492 768 l 2,76,77
 1584 768 1584 768 1628 704 c 1,78,79
 1678 768 1678 768 1776 768 c 2,80,-1
 2020 768 l 2,81,82
 2122 768 2122 768 2208 694 c 128,-1,83
 2294 620 2294 620 2294 516 c 2,84,-1
 2294 42 l 2,85,86
 2294 -24 2294 -24 2252 -114 c 1,87,-1
 2368 -114 l 2,88,89
 2472 -114 2472 -114 2472 24 c 2,90,-1
 2472 766 l 1,91,-1
 2712 766 l 1,92,-1
 2712 -10 l 2,0,1
1644 258 m 2,93,-1
 1644 506 l 2,94,95
 1644 552 1644 552 1616 552 c 0,96,97
 1580 552 1580 552 1580 496 c 2,98,-1
 1580 256 l 2,99,100
 1580 206 1580 206 1612 206 c 256,101,102
 1644 206 1644 206 1644 258 c 2,93,-1
966 252 m 2,103,-1
 966 500 l 2,104,105
 966 548 966 548 936 548 c 0,106,107
 922 548 922 548 911 528 c 128,-1,108
 900 508 900 508 900 490 c 2,109,-1
 900 246 l 2,110,111
 900 210 900 210 934 210 c 0,112,113
 966 210 966 210 966 252 c 2,103,-1
EndSplineSet
Ligature2: "'psts' Post Base Substitutions lookup 7 subtable" tm_nna tm_ukaar
EndChar

StartChar: tm_t_ukaar
Encoding: 65590 -1 170
Width: 1630
GlyphClass: 2
Flags: W
LayerCount: 2
Fore
SplineSet
1590 -20 m 2,0,1
 1590 -130 1590 -130 1512 -218 c 0,2,3
 1428 -310 1428 -310 1312 -310 c 2,4,-1
 22 -310 l 1,5,6
 48 -100 48 -100 256 -100 c 2,7,-1
 754 -100 l 2,8,9
 824 -100 824 -100 864 -56 c 128,-1,10
 904 -12 904 -12 904 50 c 2,11,-1
 904 226 l 2,12,13
 904 294 904 294 858 294 c 2,14,-1
 824 294 l 1,15,-1
 824 240 l 2,16,17
 824 142 824 142 745 71 c 128,-1,18
 666 0 666 0 552 0 c 2,19,-1
 274 0 l 2,20,21
 172 0 172 0 101 61 c 128,-1,22
 30 122 30 122 30 218 c 2,23,-1
 30 312 l 2,24,25
 30 384 30 384 72 435 c 128,-1,26
 114 486 114 486 186 484 c 1,27,28
 184 504 184 504 184 524 c 0,29,30
 184 618 184 618 236 688 c 0,31,32
 298 768 298 768 408 768 c 2,33,-1
 1040 768 l 1,34,35
 1040 706 1040 706 1000 638 c 0,36,37
 948 552 948 552 864 552 c 2,38,-1
 822 552 l 1,39,-1
 822 490 l 1,40,-1
 956 490 l 2,41,42
 1050 490 1050 490 1121 422 c 128,-1,43
 1192 354 1192 354 1192 254 c 2,44,-1
 1192 60 l 2,45,46
 1192 -44 1192 -44 1156 -90 c 1,47,-1
 1254 -90 l 2,48,49
 1358 -90 1358 -90 1358 64 c 2,50,-1
 1358 768 l 1,51,-1
 1590 768 l 1,52,-1
 1590 -20 l 2,0,1
534 484 m 1,53,-1
 534 540 l 1,54,-1
 436 540 l 1,55,-1
 416 528 l 1,56,-1
 416 484 l 1,57,-1
 534 484 l 1,53,-1
528 288 m 1,58,-1
 364 288 l 2,59,60
 308 288 308 288 308 252 c 2,61,-1
 308 232 l 2,62,63
 308 208 308 208 368 208 c 2,64,-1
 470 208 l 2,65,66
 492 208 492 208 512 229 c 128,-1,67
 532 250 532 250 532 272 c 0,68,69
 532 280 532 280 528 288 c 1,58,-1
EndSplineSet
Ligature2: "'psts' Post Base Substitutions lookup 7 subtable" tm_ta tm_ukaar
EndChar

StartChar: tm_n_ukaar
Encoding: 65591 -1 171
Width: 1582
GlyphClass: 2
Flags: W
LayerCount: 2
Fore
SplineSet
1542 -24 m 2,0,1
 1542 -156 1542 -156 1453 -243 c 128,-1,2
 1364 -330 1364 -330 1240 -330 c 2,3,-1
 -96 -330 l 1,4,5
 -66 -102 -66 -102 124 -102 c 2,6,-1
 678 -102 l 2,7,8
 766 -102 766 -102 799 -74 c 128,-1,9
 832 -46 832 -46 832 26 c 2,10,-1
 832 196 l 2,11,12
 832 258 832 258 768 258 c 2,13,-1
 736 258 l 1,14,-1
 736 0 l 1,15,-1
 458 0 l 1,16,-1
 458 550 l 1,17,-1
 350 550 l 2,18,19
 262 550 262 550 262 456 c 2,20,-1
 262 0 l 1,21,-1
 30 0 l 1,22,-1
 30 472 l 2,23,24
 30 768 30 768 312 768 c 2,25,-1
 962 768 l 1,26,27
 972 714 972 714 913 632 c 128,-1,28
 854 550 854 550 796 550 c 2,29,-1
 736 550 l 1,30,-1
 736 490 l 1,31,-1
 862 490 l 2,32,33
 986 490 986 490 1058 412 c 0,34,35
 1122 344 1122 344 1122 254 c 2,36,-1
 1122 50 l 2,37,38
 1122 -44 1122 -44 1106 -102 c 1,39,-1
 1206 -102 l 2,40,41
 1304 -102 1304 -102 1304 62 c 2,42,-1
 1304 768 l 1,43,-1
 1542 768 l 1,44,-1
 1542 -24 l 2,0,1
EndSplineSet
Ligature2: "'psts' Post Base Substitutions lookup 7 subtable" tm_na tm_ukaar
EndChar

StartChar: tm_nnn_ukaar
Encoding: 65592 -1 172
Width: 1968
GlyphClass: 2
Flags: W
LayerCount: 2
Fore
SplineSet
1928 -34 m 2,0,1
 1928 -134 1928 -134 1866 -224 c 0,2,3
 1786 -338 1786 -338 1648 -338 c 2,4,-1
 274 -338 l 1,5,6
 284 -234 284 -234 349 -167 c 128,-1,7
 414 -100 414 -100 510 -100 c 2,8,-1
 1170 -100 l 2,9,10
 1262 -100 1262 -100 1290 -42 c 0,11,12
 1306 -8 1306 -8 1306 92 c 2,13,-1
 1306 458 l 2,14,15
 1306 540 1306 540 1244 540 c 2,16,-1
 1184 540 l 1,17,18
 1226 516 1226 516 1226 458 c 2,19,-1
 1226 252 l 2,20,21
 1226 142 1226 142 1163 71 c 128,-1,22
 1100 0 1100 0 1002 0 c 2,23,-1
 822 0 l 2,24,25
 752 0 752 0 688 50 c 0,26,27
 608 114 608 114 608 228 c 2,28,-1
 608 436 l 2,29,30
 608 498 608 498 656 536 c 1,31,-1
 386 536 l 2,32,33
 312 536 312 536 312 460 c 2,34,-1
 312 244 l 2,35,36
 312 214 312 214 334 214 c 0,37,38
 358 214 358 214 358 244 c 2,39,-1
 358 352 l 1,40,-1
 536 352 l 1,41,42
 582 334 582 334 582 220 c 0,43,44
 582 134 582 134 529 67 c 128,-1,45
 476 0 476 0 396 0 c 2,46,-1
 268 0 l 2,47,48
 166 0 166 0 96 82 c 0,49,50
 30 156 30 156 30 250 c 2,51,-1
 30 452 l 2,52,53
 30 592 30 592 114 680 c 128,-1,54
 198 768 198 768 322 768 c 2,55,-1
 776 768 l 2,56,57
 878 768 878 768 934 684 c 1,58,59
 944 718 944 718 980 743 c 128,-1,60
 1016 768 1016 768 1056 768 c 2,61,-1
 1320 768 l 2,62,63
 1424 768 1424 768 1498 704 c 0,64,65
 1580 632 1580 632 1580 510 c 2,66,-1
 1580 46 l 2,67,68
 1580 -4 1580 -4 1556 -130 c 1,69,70
 1698 -138 1698 -138 1698 52 c 2,71,-1
 1698 768 l 1,72,-1
 1928 768 l 1,73,-1
 1928 -34 l 2,0,1
950 230 m 2,74,-1
 950 500 l 2,75,76
 950 544 950 544 924 544 c 0,77,78
 888 544 888 544 888 492 c 2,79,-1
 888 228 l 2,80,81
 888 190 888 190 922 190 c 0,82,83
 950 190 950 190 950 230 c 2,74,-1
EndSplineSet
Ligature2: "'psts' Post Base Substitutions lookup 7 subtable" tm_nnna tm_ukaar
EndChar

StartChar: tm_p_ukaar
Encoding: 65593 -1 173
Width: 1090
GlyphClass: 2
Flags: W
LayerCount: 2
Fore
SplineSet
1050 -138 m 1,0,-1
 768 -138 l 1,1,-1
 768 0 l 1,2,-1
 40 0 l 1,3,-1
 40 768 l 1,4,-1
 326 768 l 1,5,-1
 326 236 l 1,6,-1
 768 236 l 1,7,-1
 768 768 l 1,8,-1
 1050 768 l 1,9,-1
 1050 -138 l 1,0,-1
EndSplineSet
Ligature2: "'psts' Post Base Substitutions lookup 7 subtable" tm_pa tm_ukaar
EndChar

StartChar: tm_m_ukaar
Encoding: 65594 -1 174
Width: 1614
GlyphClass: 2
Flags: W
LayerCount: 2
Fore
SplineSet
1584 378 m 0,0,1
 1584 210 1584 210 1498 105 c 128,-1,2
 1412 0 1412 0 1266 0 c 2,3,-1
 1128 0 l 1,4,5
 1142 -178 1142 -178 1044 -272 c 0,6,7
 960 -354 960 -354 824 -354 c 2,8,-1
 382 -354 l 2,9,10
 242 -354 242 -354 141 -264 c 128,-1,11
 40 -174 40 -174 40 -60 c 2,12,-1
 40 624 l 2,13,14
 40 690 40 690 98 768 c 1,15,-1
 324 768 l 1,16,17
 274 712 274 712 274 658 c 2,18,-1
 274 -16 l 2,19,20
 274 -106 274 -106 372 -106 c 2,21,-1
 798 -106 l 2,22,23
 876 -106 876 -106 876 -50 c 2,24,-1
 876 0 l 1,25,-1
 390 0 l 1,26,-1
 390 768 l 1,27,-1
 684 768 l 1,28,-1
 684 244 l 1,29,-1
 854 244 l 1,30,-1
 854 768 l 1,31,-1
 1232 768 l 2,32,33
 1404 768 1404 768 1498 656 c 0,34,35
 1584 552 1584 552 1584 378 c 0,0,1
1314 330 m 2,36,-1
 1314 426 l 2,37,38
 1314 522 1314 522 1242 522 c 2,39,-1
 1144 522 l 1,40,-1
 1144 240 l 1,41,-1
 1238 240 l 2,42,43
 1314 240 1314 240 1314 330 c 2,36,-1
EndSplineSet
Ligature2: "'psts' Post Base Substitutions lookup 7 subtable" tm_ma tm_ukaar
EndChar

StartChar: tm_y_ukaar
Encoding: 65595 -1 175
Width: 1500
GlyphClass: 2
Flags: W
LayerCount: 2
Fore
SplineSet
1460 -148 m 1,0,-1
 1186 -148 l 1,1,-1
 1186 -12 l 1,2,-1
 436 -12 l 1,3,-1
 436 84 l 1,4,5
 406 60 406 60 376 36 c 0,6,7
 328 0 328 0 286 0 c 2,8,-1
 168 0 l 2,9,10
 104 0 104 0 70 52 c 0,11,12
 40 96 40 96 40 162 c 2,13,-1
 40 768 l 1,14,-1
 276 768 l 1,15,-1
 276 260 l 2,16,17
 276 202 276 202 306 202 c 256,18,19
 336 202 336 202 376 236 c 0,20,21
 406 266 406 266 438 296 c 1,22,-1
 438 768 l 1,23,-1
 732 768 l 1,24,-1
 732 224 l 1,25,-1
 1186 224 l 1,26,-1
 1186 768 l 1,27,-1
 1460 768 l 1,28,-1
 1460 -148 l 1,0,-1
EndSplineSet
Ligature2: "'psts' Post Base Substitutions lookup 7 subtable" tm_ya tm_ukaar
EndChar

StartChar: tm_r_ukaar
Encoding: 65596 -1 176
Width: 1558
GlyphClass: 2
Flags: W
LayerCount: 2
Fore
SplineSet
1528 38 m 2,0,1
 1528 -328 1528 -328 1142 -328 c 2,2,-1
 374 -328 l 2,3,4
 210 -328 210 -328 120 -228 c 0,5,6
 40 -140 40 -140 40 2 c 2,7,-1
 40 618 l 2,8,9
 40 714 40 714 110 768 c 1,10,-1
 330 768 l 1,11,12
 274 736 274 736 274 600 c 2,13,-1
 274 44 l 2,14,15
 274 -52 274 -52 307 -79 c 128,-1,16
 340 -106 340 -106 456 -106 c 2,17,-1
 1026 -106 l 2,18,19
 1142 -106 1142 -106 1184 -86 c 0,20,21
 1238 -62 1238 -62 1238 16 c 2,22,-1
 1238 196 l 2,23,24
 1238 258 1238 258 1146 258 c 1,25,-1
 1146 0 l 1,26,-1
 860 0 l 1,27,-1
 860 548 l 1,28,-1
 746 548 l 2,29,30
 696 548 696 548 682 525 c 128,-1,31
 668 502 668 502 668 450 c 2,32,-1
 668 0 l 1,33,-1
 432 0 l 1,34,-1
 432 484 l 2,35,36
 432 602 432 602 494 680 c 0,37,38
 562 768 562 768 688 768 c 2,39,-1
 1376 768 l 1,40,41
 1372 700 1372 700 1313 624 c 128,-1,42
 1254 548 1254 548 1194 548 c 2,43,-1
 1146 548 l 1,44,-1
 1146 486 l 1,45,-1
 1298 486 l 2,46,47
 1380 486 1380 486 1454 420 c 128,-1,48
 1528 354 1528 354 1528 270 c 2,49,-1
 1528 38 l 2,0,1
EndSplineSet
Ligature2: "'psts' Post Base Substitutions lookup 7 subtable" tm_ra tm_ukaar
EndChar

StartChar: tm_rr_ukaar
Encoding: 65597 -1 177
Width: 1630
GlyphClass: 2
Flags: W
LayerCount: 2
Fore
SplineSet
1590 -20 m 2,0,1
 1590 -168 1590 -168 1508 -256 c 128,-1,2
 1426 -344 1426 -344 1300 -344 c 2,3,-1
 -74 -344 l 1,4,5
 -60 -222 -60 -222 34 -160 c 0,6,7
 96 -120 96 -120 158 -120 c 2,8,-1
 828 -120 l 2,9,10
 962 -120 962 -120 962 26 c 2,11,-1
 962 444 l 2,12,13
 962 498 962 498 946 518 c 128,-1,14
 930 538 930 538 878 538 c 2,15,-1
 786 538 l 2,16,17
 762 538 762 538 743 523 c 128,-1,18
 724 508 724 508 724 488 c 2,19,-1
 724 0 l 1,20,-1
 446 0 l 1,21,-1
 446 482 l 2,22,23
 446 538 446 538 382 538 c 2,24,-1
 306 538 l 2,25,26
 264 538 264 538 264 470 c 2,27,-1
 264 0 l 1,28,-1
 40 0 l 1,29,-1
 40 526 l 2,30,31
 40 610 40 610 98 684 c 0,32,33
 164 768 164 768 264 768 c 2,34,-1
 470 768 l 2,35,36
 564 768 564 768 596 684 c 1,37,38
 624 768 624 768 712 768 c 2,39,-1
 968 768 l 2,40,41
 1090 768 1090 768 1160 698 c 0,42,43
 1238 620 1238 620 1238 470 c 2,44,-1
 1238 4 l 2,45,46
 1238 -78 1238 -78 1222 -128 c 1,47,-1
 1260 -128 l 2,48,49
 1364 -128 1364 -128 1364 66 c 2,50,-1
 1364 768 l 1,51,-1
 1590 768 l 1,52,-1
 1590 -20 l 2,0,1
EndSplineSet
Ligature2: "'psts' Post Base Substitutions lookup 7 subtable" tm_rra tm_ukaar
EndChar

StartChar: tm_l_ukaar
Encoding: 65598 -1 178
Width: 1714
GlyphClass: 2
Flags: W
LayerCount: 2
Fore
SplineSet
1674 -22 m 2,0,1
 1674 -170 1674 -170 1570 -258 c 0,2,3
 1476 -336 1476 -336 1344 -336 c 2,4,-1
 32 -336 l 1,5,6
 66 -110 66 -110 290 -110 c 2,7,-1
 832 -110 l 1,8,-1
 832 12 l 1,9,10
 740 22 740 22 672 108 c 0,11,12
 612 182 612 182 612 242 c 2,13,-1
 612 452 l 2,14,15
 612 552 612 552 512 552 c 2,16,-1
 388 552 l 2,17,18
 348 552 348 552 334 544 c 0,19,20
 310 532 310 532 310 476 c 2,21,-1
 310 242 l 2,22,23
 310 214 310 214 334 214 c 0,24,25
 352 214 352 214 352 250 c 2,26,-1
 352 354 l 1,27,-1
 526 354 l 1,28,29
 580 320 580 320 580 232 c 0,30,31
 580 146 580 146 534 78 c 0,32,33
 482 0 482 0 398 0 c 2,34,-1
 274 0 l 2,35,36
 192 0 192 0 116 70 c 0,37,38
 30 146 30 146 30 246 c 2,39,-1
 30 482 l 2,40,41
 30 590 30 590 113 679 c 128,-1,42
 196 768 196 768 308 768 c 2,43,-1
 622 768 l 2,44,45
 728 768 728 768 806 680 c 128,-1,46
 884 592 884 592 884 490 c 2,47,-1
 884 296 l 2,48,49
 884 234 884 234 932 234 c 2,50,-1
 988 234 l 2,51,52
 1040 234 1040 234 1040 302 c 2,53,-1
 1040 474 l 2,54,55
 1040 540 1040 540 982 540 c 2,56,-1
 912 540 l 1,57,-1
 912 768 l 1,58,-1
 1068 768 l 2,59,60
 1178 768 1178 768 1255 684 c 128,-1,61
 1332 600 1332 600 1332 474 c 2,62,-1
 1332 300 l 2,63,64
 1332 184 1332 184 1262 102 c 0,65,66
 1202 30 1202 30 1116 14 c 1,67,-1
 1116 -104 l 1,68,-1
 1304 -104 l 2,69,70
 1434 -104 1434 -104 1434 26 c 2,71,-1
 1434 768 l 1,72,-1
 1674 768 l 1,73,-1
 1674 -22 l 2,0,1
EndSplineSet
Ligature2: "'psts' Post Base Substitutions lookup 7 subtable" tm_la tm_ukaar
EndChar

